<?xml version="1.0" encoding="UTF-8"?>
<svg version="1.1" xmlns="http://www.w3.org/2000/svg" width="512" height="512">
<path d="M0 0 C8.55624305 6.16679056 13.65044788 14.19332703 15.5859375 24.55859375 C16.77287895 33.81966774 14.14998979 42.24847775 8.8359375 49.87109375 C2.65092057 57.43572598 -4.74293765 61.87198497 -14.48828125 62.875 C-24.88426894 63.25639126 -32.78898405 61.13039193 -40.7890625 54.37109375 C-44.99481653 50.31937211 -48.31895087 46.04999161 -50.4140625 40.55859375 C-50.4140625 39.56859375 -50.4140625 38.57859375 -50.4140625 37.55859375 C-88.3640625 37.55859375 -126.3140625 37.55859375 -165.4140625 37.55859375 C-165.4140625 42.50859375 -165.4140625 47.45859375 -165.4140625 52.55859375 C-163.94453125 52.5121875 -162.475 52.46578125 -160.9609375 52.41796875 C-159.02866615 52.38044892 -157.09637283 52.34404899 -155.1640625 52.30859375 C-153.71193359 52.25832031 -153.71193359 52.25832031 -152.23046875 52.20703125 C-145.03623184 52.1078004 -145.03623184 52.1078004 -141.8046875 54.44921875 C-139.65895869 57.70397594 -139.29306819 59.47353862 -139.31640625 63.34765625 C-139.32124023 64.75917969 -139.32124023 64.75917969 -139.32617188 66.19921875 C-139.33874023 67.67648438 -139.33874023 67.67648438 -139.3515625 69.18359375 C-139.35607422 70.17617187 -139.36058594 71.16875 -139.36523438 72.19140625 C-139.37704105 74.64719535 -139.3935085 77.10286479 -139.4140625 79.55859375 C-138.41890625 79.66816406 -137.42375 79.77773437 -136.3984375 79.890625 C-132.29587015 80.481271 -128.52180224 81.76393923 -124.6640625 83.24609375 C-123.96958008 83.50648437 -123.27509766 83.766875 -122.55957031 84.03515625 C-117.26939242 86.0779224 -112.44574271 88.61305722 -107.6484375 91.65234375 C-105.49339822 92.78365766 -105.49339822 92.78365766 -103.46875 92.0625 C-100.62454042 89.98071162 -98.21888398 87.53311324 -95.7890625 84.99609375 C-89.83351271 78.82896522 -89.83351271 78.82896522 -85.7890625 78.05859375 C-82.09230127 78.60626208 -81.3688074 79.18452268 -78.703125 81.61352539 C-78.00010254 82.25121857 -77.29708008 82.88891174 -76.57275391 83.54592896 C-70.86961732 88.86327176 -65.26940657 94.27746181 -59.71142578 99.74633789 C-58.17341265 101.25247933 -56.6274062 102.75049927 -55.07373047 104.24047852 C-52.81355061 106.40955662 -50.58056541 108.60363836 -48.3515625 110.8046875 C-47.65482422 111.46327255 -46.95808594 112.1218576 -46.24023438 112.80039978 C-43.08615553 115.96751221 -40.98874486 118.20849674 -40.7890625 122.80297852 C-41.41548939 126.56716792 -41.75128367 127.8717277 -44.4765625 130.40234375 C-45.10820312 131.00820312 -45.73984375 131.6140625 -46.390625 132.23828125 C-47.05835938 132.83898437 -47.72609375 133.4396875 -48.4140625 134.05859375 C-49.08179688 134.69023437 -49.74953125 135.321875 -50.4375 135.97265625 C-52.0797098 137.52102549 -53.73749085 139.04764088 -55.4140625 140.55859375 C-55.04438354 141.34955444 -55.04438354 141.34955444 -54.66723633 142.15649414 C-41.4140625 170.65777695 -41.4140625 170.65777695 -41.4140625 177.55859375 C-40.76856445 177.53764648 -40.12306641 177.51669922 -39.45800781 177.49511719 C-36.52685182 177.4118517 -33.59594473 177.35990169 -30.6640625 177.30859375 C-29.64828125 177.27507812 -28.6325 177.2415625 -27.5859375 177.20703125 C-20.30869391 177.11127804 -20.30869391 177.11127804 -16.7265625 178.90234375 C-14.5824061 183.24170788 -15.00062695 187.55160672 -15.1640625 192.30859375 C-15.2465625 195.69109375 -15.3290625 199.07359375 -15.4140625 202.55859375 C-6.1740625 202.55859375 3.0659375 202.55859375 12.5859375 202.55859375 C12.9159375 200.90859375 13.2459375 199.25859375 13.5859375 197.55859375 C17.12124093 189.28706321 22.76550048 183.88795373 30.5859375 179.55859375 C38.94851826 176.57960689 50.1825421 175.70995938 58.5859375 179.12109375 C67.87231861 184.12828203 74.45699875 191.58812005 77.8203125 201.53125 C80.40530928 211.75253829 78.4428582 221.07241941 73.11328125 230.03515625 C67.99738449 237.26755876 61.28658271 241.91196983 52.6484375 243.99609375 C42.60232327 245.52109075 32.8283469 243.774958 24.359375 238.0546875 C17.82686153 232.78219067 14.2260355 226.75908376 12.5859375 218.55859375 C3.3459375 218.55859375 -5.8940625 218.55859375 -15.4140625 218.55859375 C-15.29569309 225.28992006 -15.29569309 225.28992006 -15.14379883 232.02050781 C-15.13630615 232.86323242 -15.12881348 233.70595703 -15.12109375 234.57421875 C-15.09752808 235.86247559 -15.09752808 235.86247559 -15.07348633 237.17675781 C-15.49204274 240.1039523 -16.38677016 241.43196794 -18.4140625 243.55859375 C-21.2043292 244.48868265 -23.17935792 244.74558144 -26.08203125 244.875 C-27.42104492 244.9378418 -27.42104492 244.9378418 -28.78710938 245.00195312 C-29.71587891 245.04126953 -30.64464844 245.08058594 -31.6015625 245.12109375 C-32.54193359 245.16427734 -33.48230469 245.20746094 -34.45117188 245.25195312 C-36.77199104 245.3579804 -39.09291575 245.46004404 -41.4140625 245.55859375 C-41.754375 246.66074219 -42.0946875 247.76289063 -42.4453125 248.8984375 C-45.9360912 259.91873046 -50.25709536 270.21848197 -55.4140625 280.55859375 C-54.77791016 281.1319043 -54.77791016 281.1319043 -54.12890625 281.71679688 C-52.2027844 283.47570595 -50.30896474 285.26611866 -48.4140625 287.05859375 C-47.74632812 287.65929687 -47.07859375 288.26 -46.390625 288.87890625 C-45.75898438 289.48476563 -45.12734375 290.090625 -44.4765625 290.71484375 C-43.59677734 291.53178711 -43.59677734 291.53178711 -42.69921875 292.36523438 C-41.15283135 295.00443354 -40.65169744 297.26133743 -40.78710938 300.3223877 C-42.17127767 305.2594163 -46.32120483 308.59610195 -49.8828125 312.08984375 C-50.75168091 312.96636597 -51.62054932 313.84288818 -52.51574707 314.74597168 C-54.35548852 316.59114957 -56.2053418 318.42629293 -58.06445312 320.25195312 C-60.90444936 323.04912557 -63.69926933 325.88637661 -66.4921875 328.73046875 C-68.28650308 330.51949774 -70.0832988 332.30604343 -71.8828125 334.08984375 C-72.71647339 334.93969849 -73.55013428 335.78955322 -74.40905762 336.66516113 C-81.02153277 343.06925927 -81.02153277 343.06925927 -85.76953125 343.27929688 C-89.40689101 342.56001191 -90.78927641 342.15451723 -93.2578125 339.49609375 C-94.16660156 338.54863281 -94.16660156 338.54863281 -95.09375 337.58203125 C-95.69445312 336.91429687 -96.29515625 336.2465625 -96.9140625 335.55859375 C-97.86152344 334.55699219 -97.86152344 334.55699219 -98.828125 333.53515625 C-100.37649424 331.89294645 -101.90310963 330.2351654 -103.4140625 328.55859375 C-104.20502319 328.92827271 -104.20502319 328.92827271 -105.01196289 329.30541992 C-115.97679197 334.40409519 -126.82631465 339.0647122 -138.4140625 342.55859375 C-138.42864502 343.13826904 -138.44322754 343.71794434 -138.45825195 344.31518555 C-138.53304778 346.95946928 -138.62960148 349.60253377 -138.7265625 352.24609375 C-138.74912109 353.15810547 -138.77167969 354.07011719 -138.79492188 355.00976562 C-138.99170761 359.92940907 -139.15193606 363.60376885 -142.4140625 367.55859375 C-144.86681391 368.78496945 -146.4646406 368.67274689 -149.203125 368.65625 C-150.14414062 368.65302734 -151.08515625 368.64980469 -152.0546875 368.64648438 C-153.03953125 368.63810547 -154.024375 368.62972656 -155.0390625 368.62109375 C-156.03164063 368.61658203 -157.02421875 368.61207031 -158.046875 368.60742188 C-160.50262972 368.59561536 -162.95835356 368.57767957 -165.4140625 368.55859375 C-165.4140625 373.83859375 -165.4140625 379.11859375 -165.4140625 384.55859375 C-127.4640625 384.55859375 -89.5140625 384.55859375 -50.4140625 384.55859375 C-50.0840625 382.57859375 -49.7540625 380.59859375 -49.4140625 378.55859375 C-46.14658927 370.88586644 -39.25092528 364.03352548 -31.6640625 360.62109375 C-22.0005441 357.46186658 -11.77475292 357.30235749 -2.4140625 361.55859375 C6.68720015 366.99284281 12.47148026 374.77652315 15.11328125 385.02734375 C16.87468545 394.46031833 15.10433473 402.53151684 10.265625 410.8203125 C4.96269104 418.42698007 -2.21050061 423.84794707 -11.4140625 425.55859375 C-21.29724173 426.57579517 -29.9482999 425.46829518 -38.14453125 419.60546875 C-43.52229278 415.06177659 -47.87682503 410.2088267 -50.4140625 403.55859375 C-50.4140625 402.56859375 -50.4140625 401.57859375 -50.4140625 400.55859375 C-51.04851634 400.56135913 -51.68297018 400.56412451 -52.33664989 400.56697369 C-67.77700702 400.63323764 -83.21731467 400.68287628 -98.65777874 400.71403027 C-106.12468765 400.72949669 -113.59150163 400.75058185 -121.05834961 400.78491211 C-127.56674492 400.81482143 -134.07507146 400.83417039 -140.58353359 400.84085923 C-144.02948157 400.84476893 -147.47523286 400.85395235 -150.92111778 400.87578392 C-154.76865694 400.89996229 -158.61600396 400.90056275 -162.46362305 400.89916992 C-163.60513824 400.90995575 -164.74665344 400.92074158 -165.92276001 400.93185425 C-166.97298843 400.92773026 -168.02321686 400.92360626 -169.10527039 400.9193573 C-170.4699849 400.92350537 -170.4699849 400.92350537 -171.8622694 400.92773724 C-175.00437328 400.47319914 -176.85612187 399.41575761 -179.4140625 397.55859375 C-181.74297462 394.06522557 -181.64957393 392.6985151 -181.609375 388.578125 C-181.60292969 387.41474609 -181.59648437 386.25136719 -181.58984375 385.05273438 C-181.56470703 383.23032227 -181.56470703 383.23032227 -181.5390625 381.37109375 C-181.53003906 380.14455078 -181.52101562 378.91800781 -181.51171875 377.65429688 C-181.48812267 374.6222008 -181.45520091 371.59049437 -181.4140625 368.55859375 C-182.33687012 368.59001465 -182.33687012 368.59001465 -183.27832031 368.62207031 C-186.07340059 368.70536392 -188.86821965 368.75729388 -191.6640625 368.80859375 C-192.63214844 368.84210938 -193.60023438 368.875625 -194.59765625 368.91015625 C-195.53222656 368.92304688 -196.46679688 368.9359375 -197.4296875 368.94921875 C-198.71794434 368.98063965 -198.71794434 368.98063965 -200.03222656 369.01269531 C-203.39092716 368.37235264 -204.35826893 367.29082573 -206.4140625 364.55859375 C-206.80347148 361.60492061 -206.95127902 359.02598204 -206.91577148 356.07397461 C-206.92117447 355.21989517 -206.92657745 354.36581573 -206.93214417 353.4858551 C-206.94464467 350.66469601 -206.92813321 347.84455471 -206.91015625 345.0234375 C-206.91031119 343.06335903 -206.91179939 341.10328026 -206.91456604 339.14320374 C-206.91595058 335.03665615 -206.90338162 330.9304576 -206.88061523 326.82397461 C-206.85221179 321.55549263 -206.8549723 316.28758987 -206.86770535 311.0190649 C-206.87465355 306.97248877 -206.86688338 302.92604698 -206.85444832 298.87948799 C-206.84992678 296.93658526 -206.84960313 294.99366814 -206.85351372 293.05076408 C-206.856418 290.33814698 -206.83995741 287.62633396 -206.81811523 284.91381836 C-206.82261688 284.10802338 -206.82711853 283.30222839 -206.83175659 282.47201538 C-206.75967395 277.09535424 -206.75967395 277.09535424 -205.12709045 274.55982971 C-200.02678762 271.57878868 -193.13472652 273.78725803 -187.7890625 275.05859375 C-169.51573931 279.15636687 -151.88842356 275.69179971 -136.16601562 265.75195312 C-127.20665158 259.6491979 -120.6276087 252.07515133 -115.4140625 242.55859375 C-115.02863281 241.92953125 -114.64320313 241.30046875 -114.24609375 240.65234375 C-106.06124486 226.35237788 -105.32252277 208.10832888 -109.44091797 192.49926758 C-114.65519191 174.94368275 -125.66319451 161.40217729 -141.63378906 152.49267578 C-157.26503722 144.29120082 -173.06100058 142.71064506 -190.08984375 146.8046875 C-199.47667967 148.93354688 -199.47667967 148.93354688 -203.2265625 147.43359375 C-205.85070935 145.18432502 -206.40469276 143.85520975 -207.4140625 140.55859375 C-207.60056508 137.91143148 -207.68767919 135.37174508 -207.67285156 132.7265625 C-207.6763562 131.95357819 -207.67986084 131.18059387 -207.68347168 130.38418579 C-207.69224869 127.8380628 -207.68645414 125.2922194 -207.6796875 122.74609375 C-207.68103531 120.97159777 -207.68297681 119.19710214 -207.68548584 117.42260742 C-207.68843164 113.70715818 -207.68415695 109.99180522 -207.67480469 106.27636719 C-207.66341048 101.51826818 -207.66997286 96.76039481 -207.68194962 92.00230408 C-207.68918289 88.33913478 -207.68687354 84.67601882 -207.68169403 81.0128479 C-207.6803616 79.25859551 -207.68199101 77.50433825 -207.68665314 75.75009155 C-207.69174249 73.29680588 -207.68397441 70.84388367 -207.67285156 68.390625 C-207.67892426 67.30728378 -207.67892426 67.30728378 -207.68511963 66.20205688 C-207.65173634 62.21960924 -207.25278799 59.11311382 -205.4140625 55.55859375 C-203.30807981 53.49059979 -202.05040402 52.6532309 -199.12402344 52.21801758 C-197.8986084 52.24158325 -197.8986084 52.24158325 -196.6484375 52.265625 C-195.75898438 52.27529297 -194.86953125 52.28496094 -193.953125 52.29492188 C-193.03273437 52.32005859 -192.11234375 52.34519531 -191.1640625 52.37109375 C-190.22820312 52.38462891 -189.29234375 52.39816406 -188.328125 52.41210938 C-186.02284923 52.44739421 -183.7187519 52.49669094 -181.4140625 52.55859375 C-181.43500977 51.79716064 -181.45595703 51.03572754 -181.47753906 50.2512207 C-181.56084045 46.79131343 -181.61276834 43.33161737 -181.6640625 39.87109375 C-181.69757813 38.67291016 -181.73109375 37.47472656 -181.765625 36.24023438 C-181.77851563 35.08330078 -181.79140625 33.92636719 -181.8046875 32.734375 C-181.82563477 31.67130127 -181.84658203 30.60822754 -181.86816406 29.51293945 C-181.2514555 25.50068662 -180.52253819 24.23666939 -177.4140625 21.55859375 C-173.38609328 20.80269343 -169.38838046 20.92834745 -165.30175781 20.9909668 C-164.06247025 20.99023666 -162.82318268 20.98950653 -161.54634094 20.98875427 C-158.15146101 20.99164044 -154.7581026 21.01670695 -151.36349201 21.05162406 C-147.81478168 21.08288778 -144.26605092 21.08581827 -140.71722412 21.0917511 C-133.99875295 21.10728964 -127.28068875 21.14831776 -120.56239676 21.19849855 C-112.91317217 21.25439208 -105.2639281 21.28187845 -97.61455011 21.30697572 C-81.88081858 21.35923401 -66.14749302 21.44717592 -50.4140625 21.55859375 C-50.26710938 20.61097168 -50.12015625 19.66334961 -49.96875 18.68701172 C-48.48001308 10.29058792 -42.00595035 4.47419397 -35.4140625 -0.44140625 C-24.80411287 -6.57066002 -10.44311332 -6.23545116 0 0 Z M-32.3515625 18.62109375 C-35.7779445 23.50109236 -35.94028217 27.78010606 -35.4140625 33.55859375 C-33.6000965 39.00049174 -30.03143612 42.33692625 -25.4140625 45.55859375 C-20.64187692 47.14932228 -15.93264241 47.58369996 -11.1875 45.65234375 C-5.7313782 42.46449731 -2.4389213 38.63317014 -0.4140625 32.55859375 C0.17395731 26.56079172 -1.11566968 22.47405578 -4.4140625 17.55859375 C-8.44807696 13.62801556 -12.14727829 11.81521083 -17.7265625 11.18359375 C-23.73951146 11.79508009 -28.37083734 14.02088975 -32.3515625 18.62109375 Z M-191.4140625 68.55859375 C-191.4140625 88.68859375 -191.4140625 108.81859375 -191.4140625 129.55859375 C-185.9690625 129.06359375 -185.9690625 129.06359375 -180.4140625 128.55859375 C-156.43775165 127.18246995 -135.12969261 134.49788757 -116.8515625 150.12109375 C-101.57566645 164.54590417 -91.9884906 184.52017828 -91.2109375 205.65234375 C-90.7894087 229.4002561 -97.66506828 250.81450684 -114.1418457 268.37988281 C-128.25085134 282.79995694 -148.41384916 292.31908619 -168.71875 292.69140625 C-170.24218747 292.69402835 -171.76564253 292.6913531 -173.2890625 292.68359375 C-174.04058594 292.68746094 -174.79210937 292.69132813 -175.56640625 292.6953125 C-176.31792969 292.69402344 -177.06945312 292.69273437 -177.84375 292.69140625 C-178.50616699 292.69027832 -179.16858398 292.68915039 -179.85107422 292.68798828 C-183.71881933 292.49272205 -187.56507773 291.98625872 -191.4140625 291.55859375 C-191.4140625 311.68859375 -191.4140625 331.81859375 -191.4140625 352.55859375 C-179.5340625 352.55859375 -167.6540625 352.55859375 -155.4140625 352.55859375 C-155.20427927 346.11213972 -155.20427927 346.11213972 -155.02612305 339.66479492 C-154.97645386 338.45786987 -154.97645386 338.45786987 -154.92578125 337.2265625 C-154.89959717 336.40438232 -154.87341309 335.58220215 -154.84643555 334.73510742 C-154.31260855 332.04788683 -153.59019113 331.19107677 -151.4140625 329.55859375 C-149.5390625 328.81005859 -149.5390625 328.81005859 -147.4140625 328.26953125 C-146.61822754 328.05474121 -145.82239258 327.83995117 -145.00244141 327.61865234 C-143.72119385 327.27954834 -143.72119385 327.27954834 -142.4140625 326.93359375 C-134.97474202 324.84013714 -128.00885938 322.27672894 -121.0390625 318.93359375 C-120.26175781 318.56153809 -119.48445313 318.18948242 -118.68359375 317.80615234 C-115.33659275 316.15683114 -112.15686127 314.45155528 -109.0859375 312.328125 C-105.46381539 309.92926343 -103.68508342 309.74857254 -99.4140625 310.55859375 C-96.43525697 312.59373188 -93.9439643 314.99693587 -91.4140625 317.55859375 C-90.88039063 318.079375 -90.34671875 318.60015625 -89.796875 319.13671875 C-88.65309006 320.2611175 -87.53061544 321.40714853 -86.4140625 322.55859375 C-82.64802381 320.99576393 -80.27767099 318.65224625 -77.4296875 315.76953125 C-76.96923035 315.3062442 -76.50877319 314.84295715 -76.03436279 314.3656311 C-74.57281172 312.89293477 -73.11839082 311.41341972 -71.6640625 309.93359375 C-70.67103639 308.93053053 -69.67755161 307.92792118 -68.68359375 306.92578125 C-66.25508309 304.4752854 -63.83291575 302.01862705 -61.4140625 299.55859375 C-63.09679935 295.95428609 -65.09545937 293.69908279 -67.9765625 290.93359375 C-73.3020766 285.80405857 -73.3020766 285.80405857 -73.703125 281.34375 C-73.36472717 276.91256757 -72.14632121 274.73504156 -69.7890625 270.99609375 C-63.34860756 260.32521379 -59.07246559 249.50989084 -56.1496582 237.42285156 C-54.72557572 231.76626923 -54.72557572 231.76626923 -51.4140625 229.55859375 C-49.23754883 229.23974609 -49.23754883 229.23974609 -46.74609375 229.14453125 C-45.5391687 229.09111572 -45.5391687 229.09111572 -44.30786133 229.03662109 C-43.29103271 229.00262207 -42.2742041 228.96862305 -41.2265625 228.93359375 C-37.9884375 228.80984375 -34.7503125 228.68609375 -31.4140625 228.55859375 C-31.4140625 216.67859375 -31.4140625 204.79859375 -31.4140625 192.55859375 C-38.18973438 192.42777696 -38.18973438 192.42777696 -44.96606445 192.35083008 C-51.87004425 192.12115808 -51.87004425 192.12115808 -54.4765625 189.42578125 C-55.51298611 186.25605239 -56.36759604 183.12560845 -57.1015625 179.87109375 C-59.8781437 168.57938049 -64.63734873 157.65800763 -70.9140625 147.87109375 C-72.69653727 144.99851044 -73.46922988 143.31246236 -74.2265625 139.93359375 C-73.01959985 134.92005659 -70.01677358 132.11664312 -66.4140625 128.55859375 C-65.89328125 128.02492187 -65.3725 127.49125 -64.8359375 126.94140625 C-63.71153875 125.79762131 -62.56550772 124.67514669 -61.4140625 123.55859375 C-62.97689232 119.79255506 -65.32041 117.42220224 -68.203125 114.57421875 C-68.66641205 114.1137616 -69.1296991 113.65330444 -69.60702515 113.17889404 C-71.07972148 111.71734297 -72.55923653 110.26292207 -74.0390625 108.80859375 C-75.04212572 107.81556764 -76.04473507 106.82208286 -77.046875 105.828125 C-79.49737085 103.39961434 -81.9540292 100.977447 -84.4140625 98.55859375 C-88.01837016 100.2413306 -90.27357346 102.23999062 -93.0390625 105.12109375 C-98.15554021 110.4330515 -98.15554021 110.4330515 -102.5859375 110.875 C-107.10641618 110.5013686 -109.93858091 108.86932119 -113.6640625 106.49609375 C-125.01953425 99.69116526 -137.54764254 95.08636098 -150.48046875 92.26171875 C-152.4140625 91.55859375 -152.4140625 91.55859375 -154.4140625 88.55859375 C-154.73291016 86.38208008 -154.73291016 86.38208008 -154.828125 83.890625 C-154.86373535 83.0860083 -154.8993457 82.2813916 -154.93603516 81.45239258 C-154.97003418 80.43556396 -155.0040332 79.41873535 -155.0390625 78.37109375 C-155.1628125 75.13296875 -155.2865625 71.89484375 -155.4140625 68.55859375 C-167.2940625 68.55859375 -179.1740625 68.55859375 -191.4140625 68.55859375 Z M31.5859375 198.55859375 C28.39428328 202.79906352 26.89596823 207.2308562 27.19921875 212.54296875 C28.1397021 217.44488195 30.41395948 221.24873596 33.7109375 224.93359375 C38.40928071 227.58917904 43.4212014 229.08604977 48.8359375 228.18359375 C54.62794298 226.25292526 58.10140274 222.86218218 61.3984375 217.74609375 C63.3028502 212.63424914 63.27641978 208.58942399 61.5234375 203.43359375 C58.72385181 199.27936982 55.09817433 195.81471216 50.5859375 193.55859375 C43.13949184 192.68106648 37.12542982 193.17551063 31.5859375 198.55859375 Z M-32.3515625 381.62109375 C-35.7779445 386.50109236 -35.94028217 390.78010606 -35.4140625 396.55859375 C-33.6000965 402.00049174 -30.03143612 405.33692625 -25.4140625 408.55859375 C-20.82343641 410.08880245 -16.03866112 410.49997025 -11.41015625 408.83984375 C-6.57828655 406.25171484 -3.68153762 402.96679647 -1.1640625 398.18359375 C0.55351035 392.17208878 -0.26986737 387.70555285 -3.2109375 382.3515625 C-5.96747758 378.24360179 -9.7189587 375.90005198 -14.4140625 374.55859375 C-21.69883165 373.7339029 -27.56997703 376.09539988 -32.3515625 381.62109375 Z " fill="#000000" transform="translate(425.4140625,12.44140625)"/>
<path d="M0 0 C7.02466636 7.43788203 8.6032977 14.44568842 8.3984375 24.51171875 C7.8338927 32.22985267 4.30382877 36.52978097 -1.09375 41.8046875 C-4.04573083 44.19993511 -6.04019494 45.25 -9.875 45.25 C-9.875 59.77 -9.875 74.29 -9.875 89.25 C-0.635 89.25 8.605 89.25 18.125 89.25 C18.125 84.96 18.125 80.67 18.125 76.25 C19.80435903 70.81677961 23.49033441 67.3902224 28.125 64.25 C32.34453114 62.15017294 36.20868118 61.95919831 40.83349609 61.9753418 C41.59351425 61.97023087 42.35353241 61.96511993 43.13658142 61.95985413 C45.64061432 61.94599256 48.14437087 61.94691244 50.6484375 61.94921875 C52.39572247 61.94532962 54.1430065 61.9409945 55.89028931 61.93623352 C59.55026312 61.92877847 63.21014047 61.92905717 66.87011719 61.93432617 C71.54962485 61.94011651 76.22873616 61.92319696 80.90817833 61.8999815 C84.51653332 61.88521536 88.12479352 61.88437643 91.73317337 61.88749123 C93.45786956 61.88697935 95.18257124 61.88176682 96.90723801 61.87167931 C99.32432185 61.8592776 101.74064229 61.86612869 104.15771484 61.87768555 C104.86340103 61.87004181 105.56908722 61.86239807 106.29615784 61.85452271 C112.42624971 61.91897693 116.61555284 63.73265986 121.8125 66.875 C129.65296324 74.92736765 128.69850048 85.42965437 128.62109375 95.91015625 C128.62124898 97.62690797 128.62274189 99.34366004 128.62550354 101.06040955 C128.62688258 104.64533116 128.61441177 108.22985027 128.59155273 111.81469727 C128.563148 116.39315296 128.56591789 120.97094185 128.57864285 125.54944706 C128.58562081 129.09009933 128.577787 132.6305994 128.56538582 136.17123222 C128.56089339 137.85880384 128.56051506 139.54639192 128.56445122 141.23396492 C128.56738495 143.59780117 128.55075579 145.96074049 128.52905273 148.32446289 C128.53580521 149.35414688 128.53580521 149.35414688 128.54269409 150.40463257 C128.45531582 156.17679569 127.1871692 161.71871174 123.4765625 166.2734375 C122.62191406 166.94246094 122.62191406 166.94246094 121.75 167.625 C120.90308594 168.31722656 120.90308594 168.31722656 120.0390625 169.0234375 C115.22160201 172.11054483 110.8329317 172.54371679 105.21704102 172.5246582 C104.43590942 172.52976913 103.65477783 172.53488007 102.84997559 172.54014587 C100.27620716 172.55400889 97.7027075 172.55308765 95.12890625 172.55078125 C93.33438518 172.55466989 91.53986503 172.55900491 89.74534607 172.56376648 C85.98702 172.57122153 82.22878788 172.57094252 78.47045898 172.56567383 C73.66082079 172.55987908 68.85156768 172.57681373 64.04199314 172.6000185 C60.33674379 172.61476951 56.63158691 172.6156257 52.9263134 172.61250877 C51.15334243 172.61302126 49.38036619 172.61824541 47.60742378 172.62832069 C45.12548103 172.64069489 42.64428484 172.63388794 40.16235352 172.62231445 C39.43437057 172.62995819 38.70638763 172.63760193 37.9563446 172.64547729 C31.87182671 172.58295068 28.0048222 170.86752143 23.4375 166.9375 C17.21651273 159.70770398 18.125 156.93257738 18.125 146.25 C8.885 146.25 -0.355 146.25 -9.875 146.25 C-9.875 160.44 -9.875 174.63 -9.875 189.25 C-8.225 189.58 -6.575 189.91 -4.875 190.25 C1.5954652 194.51544633 5.68178525 199.92035575 8.125 207.25 C8.94951886 216.30792866 8.59485714 223.74966559 3.125 231.25 C-1.66321977 236.72391144 -7.27788302 239.69089118 -14.4765625 240.56640625 C-23.01893114 240.93938291 -30.36555641 238.90358669 -36.75 233.0625 C-42.67661022 226.44935574 -44.54538967 219.92968593 -44.1875 211.10546875 C-43.31237173 203.10898422 -39.76649887 197.67966527 -33.875 192.25 C-28.90625 189.25 -28.90625 189.25 -25.875 189.25 C-25.88388245 188.58458694 -25.89276489 187.91917389 -25.9019165 187.2335968 C-25.9904219 180.30694164 -26.05074791 173.38044716 -26.09472656 166.45336914 C-26.11483972 163.86834183 -26.14213386 161.28336 -26.17675781 158.69848633 C-26.22528654 154.98247045 -26.24797235 151.26705622 -26.265625 147.55078125 C-26.29659271 145.81771477 -26.29659271 145.81771477 -26.32818604 144.04963684 C-26.3294453 139.54504045 -26.27925625 136.15088288 -24.421875 132.01171875 C-20.59717882 129.36610836 -17.28024981 129.62439936 -12.734375 129.76171875 C-11.85219299 129.76879349 -10.97001099 129.77586823 -10.06109619 129.78315735 C-7.24819519 129.81110822 -4.43729748 129.87384619 -1.625 129.9375 C0.28382538 129.96258206 2.19268202 129.98539539 4.1015625 130.00585938 C8.77681152 130.06093701 13.45056633 130.14721306 18.125 130.25 C18.125 128.6 18.125 126.95 18.125 125.25 C-2.005 125.25 -22.135 125.25 -42.875 125.25 C-43.535 127.23 -44.195 129.21 -44.875 131.25 C-48.80084209 137.36169877 -53.76342509 141.56126319 -60.875 143.25 C-69.88527645 144.35782087 -77.42243452 143.68502013 -84.875 138.25 C-90.45008157 133.37328321 -93.37998154 127.72350013 -94.19140625 120.390625 C-94.51957389 112.0488152 -92.54341446 106.44322273 -88.125 99.5 C-82.24154674 93.61654674 -76.37105472 91.12817702 -68.125 91 C-59.97298009 91.09905249 -54.45084924 93.0404126 -48.41796875 98.5625 C-45.72857653 101.50380997 -42.875 105.13763026 -42.875 109.25 C-22.745 109.25 -2.615 109.25 18.125 109.25 C18.125 107.93 18.125 106.61 18.125 105.25 C17.03034424 105.26047363 15.93568848 105.27094727 14.80786133 105.28173828 C10.7357919 105.31801444 6.66373669 105.34092817 2.59155273 105.35986328 C0.83111161 105.36990351 -0.92931291 105.38353844 -2.68969727 105.40087891 C-5.22416285 105.42521436 -7.75840739 105.43650296 -10.29296875 105.4453125 C-11.07649216 105.45563507 -11.86001556 105.46595764 -12.6672821 105.47659302 C-16.81176722 105.47743862 -20.26099144 105.39179116 -23.875 103.25 C-25.90985109 100.07989218 -26.1194491 97.56210823 -26.10205078 93.83886719 C-26.10189972 92.75804871 -26.10174866 91.67723022 -26.10159302 90.56365967 C-26.09127045 89.40312073 -26.08094788 88.24258179 -26.0703125 87.046875 C-26.0674826 85.85394836 -26.06465271 84.66102173 -26.06173706 83.4319458 C-26.05054053 79.62119524 -26.02543653 75.81067955 -26 72 C-25.98996954 69.41667006 -25.9808438 66.83333644 -25.97265625 64.25 C-25.95060289 57.91658651 -25.91713035 51.58331003 -25.875 45.25 C-26.65673584 45.11352051 -27.43847168 44.97704102 -28.24389648 44.83642578 C-33.34778839 43.69885982 -37.22705584 39.51474612 -40.2421875 35.37109375 C-44.23607893 28.62229181 -44.69226759 21.95702348 -43.875 14.25 C-41.41799393 6.13269489 -36.27981715 0.24080791 -28.8984375 -3.84375 C-18.91183581 -8.14077384 -9.00482216 -5.48119609 0 0 Z M-26.6875 15 C-28.42068109 18.28392206 -28.32432633 20.59119985 -27.875 24.25 C-25.7779767 27.62021602 -23.75546613 30.14129539 -19.875 31.25 C-15.29462818 31.25 -13.41788294 30.72357873 -9.9375 27.6875 C-7.13004629 23.80743109 -7.13202776 20.93072512 -7.875 16.25 C-10.43204348 12.60815019 -12.09772709 11.47207798 -16.375 10.25 C-21.20273113 10.25 -23.29788871 11.72727186 -26.6875 15 Z M34.125 80.25 C33.81675341 83.4349067 33.81675341 83.4349067 33.86621094 87.23828125 C33.8627063 87.95712494 33.85920166 88.67596863 33.85559082 89.41659546 C33.84677035 91.79866116 33.85262364 94.18043115 33.859375 96.5625 C33.85802844 98.21394915 33.85608798 99.86539791 33.85357666 101.5168457 C33.85062497 104.98034433 33.85492443 108.4437399 33.86425781 111.90722656 C33.87565242 116.35295311 33.86909318 120.7984382 33.85711288 125.24415588 C33.84989546 128.65500721 33.85218166 132.06580102 33.85736847 135.47665405 C33.85870529 137.11616036 33.8570561 138.75567185 33.85240936 140.39517212 C33.847346 142.68416226 33.85505138 144.97275808 33.86621094 147.26171875 C33.86780212 148.56584717 33.86939331 149.86997559 33.87103271 151.21362305 C33.80520182 154.36067419 33.80520182 154.36067419 36.125 156.25 C39.309696 156.56524528 39.309696 156.56524528 43.11328125 156.5246582 C44.19154678 156.5323246 44.19154678 156.5323246 45.29159546 156.54014587 C47.67364773 156.55407452 50.05541179 156.55308287 52.4375 156.55078125 C54.08894967 156.55466606 55.74039834 156.55900028 57.3918457 156.56376648 C60.85533892 156.57123548 64.31873022 156.57093228 67.78222656 156.56567383 C72.22803128 156.55987469 76.67341999 156.57681739 81.11915588 156.6000185 C84.53001356 156.61472496 87.94077029 156.61563184 91.35165405 156.61250877 C92.99116847 156.61302343 94.63068832 156.61828806 96.27017212 156.62832069 C98.55929899 156.6406101 100.84760575 156.63393977 103.13671875 156.62231445 C105.09291138 156.62325859 105.09291138 156.62325859 107.08862305 156.6242218 C108.09062744 156.50072861 109.09263184 156.37723541 110.125 156.25 C112.57985546 152.56771681 112.38363399 150.74154767 112.3996582 146.34765625 C112.4073246 145.30084183 112.4073246 145.30084183 112.41514587 144.23287964 C112.42904637 141.92599921 112.42808501 139.61941733 112.42578125 137.3125 C112.42966754 135.70971566 112.43400207 134.10693236 112.43876648 132.50415039 C112.44622937 129.14498556 112.44593665 125.78592584 112.44067383 122.42675781 C112.43487475 118.11895858 112.45182014 113.81158869 112.4750185 109.50386047 C112.48973823 106.19418822 112.49063004 102.88461984 112.48750877 99.57492065 C112.48802273 97.98647205 112.49327447 96.39801775 112.50332069 94.80960083 C112.51563605 92.5902297 112.50892415 90.37170105 112.49731445 88.15234375 C112.49794388 86.88898193 112.4985733 85.62562012 112.4992218 84.32397461 C112.33592652 81.33546791 112.33592652 81.33546791 111.03985596 79.34187317 C108.07740138 77.65264707 105.50448963 77.87602418 102.11499023 77.87768555 C101.05113602 77.87220955 101.05113602 77.87220955 99.96578979 77.86662292 C97.62148089 77.85851677 95.27786299 77.87212609 92.93359375 77.88671875 C91.30599467 77.88723729 89.67839497 77.88671981 88.05079651 77.88520813 C84.64029589 77.88529785 81.23003166 77.89572819 77.81958008 77.91381836 C73.44224615 77.93652364 69.06525715 77.93704643 64.68788052 77.93030071 C61.32763081 77.9269639 57.96746015 77.93358505 54.60722542 77.94342995 C52.99284338 77.94728587 51.37845256 77.94842854 49.7640667 77.9468441 C47.51107817 77.94647437 45.25853677 77.95906647 43.00561523 77.9753418 C41.72226791 77.97994919 40.43892059 77.98455658 39.11668396 77.98930359 C36.00928457 77.93701385 36.00928457 77.93701385 34.125 80.25 Z M-75.875 110.25 C-78.20567577 113.46855225 -78.34241137 116.35490526 -77.875 120.25 C-75.5991177 124.47481746 -75.5991177 124.47481746 -71.875 127.25 C-66.06154053 127.78365513 -66.06154053 127.78365513 -60.9375 125.375 C-57.77804642 122.1198054 -57.54078757 119.82586762 -57.58203125 115.2890625 C-58.03754967 112.11865433 -59.62815657 110.4307598 -61.875 108.25 C-66.80703697 105.78398152 -71.72564171 106.93051336 -75.875 110.25 Z M-24.875 206.25 C-27.49900474 208.69907109 -27.84303795 210.03425618 -28.375 213.625 C-27.71553371 218.40613064 -26.25065893 219.87434107 -22.875 223.25 C-20.05498673 224.66000664 -18.00492745 224.49548451 -14.875 224.25 C-11.38093231 222.58237678 -10.04829319 221.50993978 -7.875 218.25 C-7.43788906 213.73318695 -7.26809699 211.36670154 -9.4375 207.375 C-14.69594444 202.7907151 -19.12846061 202.33190496 -24.875 206.25 Z " fill="#000000" transform="translate(167.875,105.75)"/>
<path d="M0 0 C12.3238463 10.16606094 20.04751642 23.73663132 22.1875 39.625 C23.32205839 55.52741673 20.14057861 70.64011299 10.046875 83.3125 C7.83636312 85.83879929 5.55658318 88.24751582 3.1875 90.625 C2.64609375 91.18960938 2.1046875 91.75421875 1.546875 92.3359375 C-8.87597176 102.2850185 -23.75717226 106.46041771 -37.8125 106.625 C-55.30689422 105.6135468 -70.10501359 99.44546998 -82.1953125 86.57421875 C-92.97785425 73.57787011 -97.72017389 58.1127155 -96.58984375 41.31640625 C-94.50410159 24.44821966 -86.68202297 10.61683847 -73.8125 -0.375 C-51.24286967 -16.56312143 -22.43493301 -16.62690467 0 0 Z M-67.65625 16.34375 C-71.26362962 20.16025307 -74.16575258 23.91232382 -76.5 28.625 C-77.12455078 29.8625 -77.12455078 29.8625 -77.76171875 31.125 C-78.81445087 33.62964148 -79.37777307 35.94975735 -79.8125 38.625 C-79.13703125 38.67398438 -78.4615625 38.72296875 -77.765625 38.7734375 C-76.87359375 38.84820312 -75.9815625 38.92296875 -75.0625 39 C-74.18078125 39.06960938 -73.2990625 39.13921875 -72.390625 39.2109375 C-69.78863712 39.62883252 -68.03816767 40.23145133 -65.8125 41.625 C-64.40792263 44.43415474 -64.56354843 46.51310534 -64.8125 49.625 C-65.94140625 51.7734375 -65.94140625 51.7734375 -67.8125 53.625 C-70.73046875 54.234375 -70.73046875 54.234375 -74 54.375 C-75.08667969 54.43171875 -76.17335938 54.4884375 -77.29296875 54.546875 C-78.12441406 54.57265625 -78.95585938 54.5984375 -79.8125 54.625 C-76.81768263 66.97205408 -71.18642201 76.08978731 -60.8125 83.625 C-55.65283184 86.52299056 -50.65376503 88.61824696 -44.8125 89.625 C-44.77382812 88.37783203 -44.77382812 88.37783203 -44.734375 87.10546875 C-44.67765625 86.01878906 -44.6209375 84.93210937 -44.5625 83.8125 C-44.51609375 82.73355469 -44.4696875 81.65460938 -44.421875 80.54296875 C-43.8125 77.625 -43.8125 77.625 -41.95703125 75.76171875 C-39.04603123 74.21872967 -37.0592247 74.21052451 -33.8125 74.625 C-31.77582385 76.17006466 -30.95176922 77.34646156 -29.8125 79.625 C-29.58627919 81.32863822 -29.40361527 83.03828701 -29.25 84.75 C-29.16621094 85.66007812 -29.08242187 86.57015625 -28.99609375 87.5078125 C-28.93550781 88.20648438 -28.87492187 88.90515625 -28.8125 89.625 C-16.44299827 86.25530494 -7.27890334 80.19158385 0.1875 69.625 C3.91188341 62.45614744 3.91188341 62.45614744 5.1875 54.625 C4.42824219 54.57601562 3.66898437 54.52703125 2.88671875 54.4765625 C1.89285156 54.40179688 0.89898437 54.32703125 -0.125 54.25 C-1.11113281 54.18039062 -2.09726563 54.11078125 -3.11328125 54.0390625 C-5.8125 53.625 -5.8125 53.625 -8.8125 51.625 C-9.8125 48.3125 -9.8125 48.3125 -9.8125 44.625 C-8 41.75 -8 41.75 -4.8125 39.625 C-1.47784791 38.938753 1.78773022 38.69761644 5.1875 38.625 C3.05666618 27.97083088 -2.26502321 18.35373324 -11.203125 11.8984375 C-19.46952551 6.68408322 -19.46952551 6.68408322 -28.8125 4.625 C-28.84988281 5.30046875 -28.88726562 5.9759375 -28.92578125 6.671875 C-28.99152344 7.56390625 -29.05726562 8.4559375 -29.125 9.375 C-29.21201172 10.69757813 -29.21201172 10.69757813 -29.30078125 12.046875 C-29.88775686 15.00415672 -30.74610231 16.45036243 -32.8125 18.625 C-36.01615319 19.57927967 -37.95056876 19.92784071 -41.125 18.8125 C-42.8125 17.625 -42.8125 17.625 -43.8125 15.625 C-44.0400015 13.75443209 -44.22212811 11.87814042 -44.375 10 C-44.45878906 8.99710937 -44.54257813 7.99421875 -44.62890625 6.9609375 C-44.68949219 6.19007813 -44.75007813 5.41921875 -44.8125 4.625 C-53.8148412 4.625 -61.40484878 10.42575684 -67.65625 16.34375 Z " fill="#000000" transform="translate(130.8125,371.375)"/>
<path d="M0 0 C6.49591077 1.67997692 10.2834609 7.35970012 13.625 12.9375 C14.625 15.5625 14.625 15.5625 14.625 17.9375 C12.62791088 21.90565753 10.257209 24.41480028 6.8125 27.1875 C5.98105469 27.87328125 5.14960937 28.5590625 4.29296875 29.265625 C1.29502752 31.14427631 -0.86341758 31.68735988 -4.375 31.9375 C-7.1875 30.9375 -7.1875 30.9375 -9.375 28.9375 C-9.78276062 26.61601624 -10.1227498 24.28098574 -10.375 21.9375 C-32.71499477 22.52462207 -51.69180056 28.69925015 -67.58984375 45.2421875 C-79.46371118 59.14441232 -85.50168556 76.87612888 -84.68359375 95.0703125 C-83.48256306 110.12120348 -78.09653733 123.50697823 -68.63671875 135.2734375 C-66.51752302 138.06841391 -65.39264268 140.56655863 -64.375 143.9375 C-65.15193758 147.35602534 -66.44212989 149.94733814 -69.375 151.9375 C-72.50807507 152.66612211 -74.42554043 152.49034987 -77.2265625 150.859375 C-90.99834331 139.99557978 -98.93238592 119.89168728 -101.1640625 103.00195312 C-103.66117344 78.56263587 -97.35559259 55.64282817 -82.0625 36.25 C-68.52070502 20.38284628 -49.34302299 8.65278355 -28.375 5.9375 C-21.70889883 5.62049616 -15.04328991 5.75799469 -8.375 5.9375 C-8.106875 5.31875 -7.83875 4.7 -7.5625 4.0625 C-5.59359845 0.53920249 -3.96671425 -0.07345767 0 0 Z " fill="#000000" transform="translate(109.375,327.0625)"/>
<path d="M0 0 C2.67676107 2.33137254 2.96621485 3.57768562 3.25 7.125 C3 10 3 10 2 12 C3.70822826 12.31307386 5.41658805 12.62543008 7.125 12.9375 C8.07632813 13.11152344 9.02765625 13.28554688 10.0078125 13.46484375 C10.99523437 13.64144531 11.98265625 13.81804687 13 14 C14.42699219 14.27457031 14.42699219 14.27457031 15.8828125 14.5546875 C19.51567383 15.07366769 23.08811985 15.1905669 26.75 15.1875 C27.80453369 15.18955444 27.80453369 15.18955444 28.88037109 15.19165039 C33.77094714 15.14619059 38.21023657 14.49662308 42.953125 13.3984375 C45.9633649 12.81247477 48.11588232 12.96995797 51 14 C53.4375 16.125 53.4375 16.125 55 19 C54.94192551 22.36832022 54.84689232 24.81607911 52.8515625 27.60546875 C44.06878231 34.2203475 26.14533627 33.05804303 15.75585938 31.70849609 C12.32653647 31.16044117 8.9467469 30.48388018 5.55078125 29.75390625 C2.01927057 29.00409155 -1.40101869 28.30898147 -5 28 C-5.99 28.66 -6.98 29.32 -8 30 C-10.9375 30.375 -10.9375 30.375 -14 30 C-19.6643549 25.25596582 -22.42048156 18.26637667 -23.6875 11.125 C-22.92656202 7.66619101 -21.85776251 6.18971399 -18.97265625 4.13671875 C-12.84981583 0.60850773 -7.08105027 -2.31217968 0 0 Z " fill="#000000" transform="translate(67,472)"/>
<path d="M0 0 C2.875 1.5625 2.875 1.5625 5 4 C6.26141944 9.04567776 4.6741072 12.12138908 2.25 16.625 C-5.05919546 28.38455238 -16.00432692 40.5580619 -29 46 C-32.54000728 45.8524997 -34.4779011 45.37096501 -37.375 43.3125 C-39.52675145 40.25039216 -39.60011905 38.67572916 -39 35 C-36.3696537 31.20530316 -33.56729908 28.8021371 -29.75 26.25 C-21.30178375 20.23963339 -15.79860786 13.16106933 -10.54296875 4.28515625 C-7.6485263 -0.00154966 -4.93141202 -0.59176944 0 0 Z " fill="#000000" transform="translate(165,447)"/>
<path d="M0 0 C2.61234096 2.19099564 2.95512553 3.81302305 3.75 7.125 C2.48165175 13.67813261 -2.76924556 18.14579037 -7.67578125 22.48046875 C-11.33651785 25.99002448 -11.32836371 29.26519677 -11.5625 34.0625 C-11.56378906 35.24972656 -11.56507812 36.43695313 -11.56640625 37.66015625 C-12.08387878 41.64609331 -13.10212082 43.25490883 -16 46 C-18 46.6640625 -18 46.6640625 -20 46.625 C-20.99 46.64433594 -20.99 46.64433594 -22 46.6640625 C-25.28541641 45.57320158 -26.25739667 43.96355968 -28 41 C-29.62954631 33.52417492 -29.73098713 24.42696553 -26.26171875 17.55859375 C-23.99681018 14.80862704 -21.61085766 12.42060912 -19 10 C-17.54923122 8.32389366 -16.11085476 6.63694806 -14.6875 4.9375 C-10.10172266 -0.37892531 -7.02964474 -1.78936412 0 0 Z " fill="#000000" transform="translate(114,394)"/>
<path d="M0 0 C3.37855936 1.00105462 4.25988231 1.37535816 6.375 4 C9.84991529 11.5933334 9.66072396 20.01084389 9.6875 28.1875 C9.69289795 29.2086792 9.6982959 30.2298584 9.70385742 31.28198242 C9.56394319 46.28687182 9.56394319 46.28687182 6.01293945 50.68823242 C3.26250635 52.89095668 0.82623834 52.94049589 -2.625 53 C-5.32324219 51.44116211 -5.32324219 51.44116211 -7.625 49 C-8.17675781 45.77954102 -8.17675781 45.77954102 -8.078125 42.00390625 C-8.06395538 40.9980674 -8.06395538 40.9980674 -8.04949951 39.97190857 C-8.01499785 37.8341887 -7.94629827 35.69928033 -7.875 33.5625 C-7.82486681 31.42967 -7.78184929 29.2968734 -7.74334717 27.1638031 C-7.70503492 25.22553171 -7.64840707 23.28764803 -7.59082031 21.34985352 C-7.6211009 18.3821394 -7.9382213 15.87271372 -8.625 13 C-9.23015383 8.43541113 -9.19696318 5.84927866 -6.5625 1.9375 C-3.625 0 -3.625 0 0 0 Z " fill="#000000" transform="translate(169.625,390)"/>
<path d="M0 0 C9.84988713 6.62718916 22.61380946 16.85887933 26.0625 28.625 C26 32 26 32 24.4375 34.875 C21.48097805 37.45248068 19.91032112 38 16 38 C12.07372199 36.06802193 9.87658334 33.87906184 7.3125 30.375 C1.58330794 22.96712218 -5.13789552 17.03981057 -13 12 C-14.54586876 8.90826248 -14.29359521 6.40570448 -14 3 C-9.97038443 -2.28018592 -5.82329903 -2.72556665 0 0 Z " fill="#000000" transform="translate(141,346)"/>
<path d="M0 0 C0.78295441 -0.00807175 1.56590881 -0.01614349 2.37258911 -0.02445984 C4.02848102 -0.03828041 5.68440117 -0.04901162 7.34033203 -0.05688477 C9.86676142 -0.07410932 12.39188554 -0.11801255 14.91796875 -0.16210938 C16.52863624 -0.17223602 18.13931481 -0.18075221 19.75 -0.1875 C20.8783577 -0.21376213 20.8783577 -0.21376213 22.0295105 -0.24055481 C25.74713892 -0.22525105 27.82130403 0.11913793 30.98461914 2.13989258 C33.0078125 4.23828125 33.0078125 4.23828125 33.63671875 6.23828125 C33.61480469 6.89828125 33.59289062 7.55828125 33.5703125 8.23828125 C33.57224609 9.22828125 33.57224609 9.22828125 33.57421875 10.23828125 C32.71781878 13.26225909 31.51853573 14.32993649 29.0078125 16.23828125 C26.08430282 16.84791596 23.20488697 16.8227048 20.2265625 16.8046875 C19.37606323 16.81088608 18.52556396 16.81708466 17.64929199 16.82347107 C15.85393416 16.83056429 14.05851048 16.82740384 12.26318359 16.81469727 C9.51667303 16.800826 6.77356681 16.83491172 4.02734375 16.87304688 C2.28124917 16.87399806 0.53515032 16.87213928 -1.2109375 16.8671875 C-2.44076355 16.88707481 -2.44076355 16.88707481 -3.69543457 16.90736389 C-7.81673844 16.84007233 -9.39795006 16.79161021 -12.51367188 13.89038086 C-14.31149069 10.66552852 -14.53437543 8.87868592 -13.9921875 5.23828125 C-10.73462708 -0.50122996 -5.99724708 0.05857732 0 0 Z " fill="#000000" transform="translate(230.9921875,231.76171875)"/>
<path d="M0 0 C0.80469223 -0.00241196 1.60938446 -0.00482391 2.4384613 -0.00730896 C4.13374782 -0.00633247 5.829067 0.00701417 7.52416992 0.03198242 C10.11682434 0.06634966 12.70607882 0.05261987 15.29882812 0.03320312 C16.94923323 0.04010054 18.59962956 0.04977199 20.25 0.0625 C21.40949913 0.0550602 21.40949913 0.0550602 22.59242249 0.04747009 C26.16256359 0.1255259 28.17301841 0.33235356 31.04248047 2.53930664 C32.67694968 4.7920316 33.12647207 5.87520513 33.12109375 8.62890625 C33.14300781 9.28890625 33.16492188 9.94890625 33.1875 10.62890625 C32.17993263 13.83309565 30.34923088 14.83533454 27.55859375 16.62890625 C24.69670729 17.03140509 22.22843181 17.21431076 19.37109375 17.1953125 C18.20090698 17.20461037 18.20090698 17.20461037 17.00708008 17.21409607 C15.36313114 17.22117745 13.71911024 17.21804956 12.07519531 17.20532227 C9.56571108 17.19144561 7.05995142 17.22555728 4.55078125 17.26367188 C2.94921784 17.26462309 1.34764979 17.26276412 -0.25390625 17.2578125 C-1.37285278 17.27769981 -1.37285278 17.27769981 -2.5144043 17.29798889 C-6.4807114 17.22740101 -8.26708023 16.76682368 -11.4140625 14.27709961 C-13.44140625 11.62890625 -13.44140625 11.62890625 -14.06640625 8.62890625 C-12.47821983 1.00561143 -6.89901261 -0.11864007 0 0 Z " fill="#000000" transform="translate(230.44140625,198.37109375)"/>
</svg>
