<?xml version="1.0" encoding="UTF-8"?>
<svg version="1.1" xmlns="http://www.w3.org/2000/svg" width="512" height="512">
<path d="M0 0 C0.67709015 0.00054382 1.3541803 0.00108765 2.05178833 0.00164795 C35.68013816 0.12526886 64.95532042 12.85303085 89 36.375 C91.74441327 39.3116116 94.40350934 42.30707947 97 45.375 C99.43153072 42.95631187 101.85049147 40.53161545 104.21875 38.05078125 C127.16736982 14.27695421 157.39781411 0.66365112 190.44238281 -0.09545898 C225.10101676 -0.47527247 253.55078284 10.17413279 279.57421875 32.96484375 C281.87539924 35.24080582 282.00667685 36.44711 282.3125 39.75 C282 43.375 282 43.375 280.4375 45.8125 C276.98350948 48.02659649 275.07179735 47.87468304 271 47.375 C268.04056299 45.6999385 265.53173582 43.56231448 262.9375 41.375 C240.12542754 23.1307829 212.75226891 14.17073705 183.4375 17.0625 C170.05144149 18.59083482 158.03153466 22.22862214 146 28.375 C145.04222656 28.849375 144.08445312 29.32375 143.09765625 29.8125 C136.3938745 33.27251639 130.7025339 37.45499046 125 42.375 C124.14148438 43.11105469 123.28296875 43.84710938 122.3984375 44.60546875 C118.39016506 48.12330302 114.66627901 51.65046519 111.25 55.75 C107.93786997 59.61671925 105.06122664 61.98820241 99.8359375 62.6484375 C94.68960369 62.87219114 91.46955419 62.13398406 87 59.375 C84.46442302 56.97345265 82.18180909 54.36953057 79.875 51.75 C60.44017781 30.42438969 34.19703875 18.1130257 5.31445312 16.44726562 C-24.67894878 15.38529828 -51.87381578 26.39635719 -74 46.375 C-92.78642665 64.65215604 -105.41453394 90.46856918 -106.3359375 116.8359375 C-106.89700971 159.46209597 -91.00191314 198.19633847 -66.30126953 232.57910156 C-63 237.18888319 -63 237.18888319 -63 239.375 C-62.13191711 239.36611755 -61.26383423 239.35723511 -60.3694458 239.3480835 C-52.18857027 239.26793524 -44.0078266 239.20703446 -35.82664871 239.16775131 C-31.62059023 239.14687639 -27.41485615 239.118561 -23.20898438 239.07324219 C-19.1500403 239.02978024 -15.09140826 239.00586218 -11.03224945 238.99549103 C-9.48366127 238.9881002 -7.93509017 238.97366748 -6.38663483 238.95207977 C-4.21734216 238.92303952 -2.04933859 238.91904401 0.12011719 238.92089844 C1.35477722 238.91201599 2.58943726 238.90313354 3.86151123 238.89398193 C7 239.375 7 239.375 9.39874268 241.18463135 C11.73477748 244.38010614 11.55089298 246.51874916 11 250.375 C9.64544678 252.56536865 9.64544678 252.56536865 7 254.375 C3.39369407 254.96483539 -0.18072633 254.87941526 -3.82714844 254.82910156 C-5.48125481 254.82997772 -5.48125481 254.82997772 -7.16877747 254.83087158 C-10.81596282 254.82808349 -14.4623323 254.79695572 -18.109375 254.765625 C-20.63714145 254.75816523 -23.16491369 254.75247105 -25.69268799 254.74847412 C-31.66739213 254.73475884 -37.64174573 254.70322951 -43.6163094 254.66307616 C-50.41913332 254.61834983 -57.22197131 254.59636931 -64.02490568 254.57629442 C-78.01679584 254.53449618 -92.00831623 254.46114753 -106 254.375 C-106 264.605 -106 274.835 -106 285.375 C-51.22 285.375 3.56 285.375 60 285.375 C60 275.145 60 264.915 60 254.375 C51.29392999 254.53298429 51.29392999 254.53298429 42.58886719 254.73535156 C41.50250977 254.7453418 40.41615234 254.75533203 39.296875 254.765625 C38.18666992 254.78657227 37.07646484 254.80751953 35.93261719 254.82910156 C32.31527769 254.26897407 31.16687461 253.27837939 29 250.375 C28.44594832 246.49663821 28.25561889 244.37239079 30.63769531 241.18066406 C33.70842969 238.83350082 35.46224589 238.91202351 39.296875 238.984375 C40.50214844 238.99726563 41.70742187 239.01015625 42.94921875 239.0234375 C44.83060547 239.07371094 44.83060547 239.07371094 46.75 239.125 C48.01972656 239.14304687 49.28945312 239.16109375 50.59765625 239.1796875 C53.73253077 239.22682847 56.8658856 239.29262336 60 239.375 C59.97905273 238.38693359 59.95810547 237.39886719 59.93652344 236.38085938 C59.86362992 232.68341809 59.81802306 228.98603913 59.78027344 225.28808594 C59.76026947 223.69357592 59.73305699 222.09913822 59.69824219 220.50488281 C59.31123429 202.31551152 59.31123429 202.31551152 65.74609375 195.53515625 C66.30425781 195.17292969 66.86242187 194.81070313 67.4375 194.4375 C67.99308594 194.05722656 68.54867188 193.67695313 69.12109375 193.28515625 C74.44376195 190.70681594 80.54067051 191.15722236 86.3125 191.125 C87.68051758 191.0940625 87.68051758 191.0940625 89.07617188 191.0625 C95.83177528 191.02375819 101.48273752 191.73872167 107.05859375 195.91796875 C107.51363281 196.46066406 107.96867187 197.00335938 108.4375 197.5625 C108.91058594 198.09230469 109.38367188 198.62210938 109.87109375 199.16796875 C111.56942363 202.48823305 111.6653911 205.67122557 112 209.375 C112.6297876 209.35928955 113.2595752 209.3435791 113.90844727 209.32739258 C116.79303825 209.26459768 119.67748486 209.22586942 122.5625 209.1875 C123.55314453 209.16236328 124.54378906 209.13722656 125.56445312 209.11132812 C132.97777006 209.03744125 137.8170247 209.84308783 143.75 214.5625 C148.63842992 220.67303739 149.44545385 226.87111655 149.38818359 234.41796875 C149.39606903 235.71717758 149.39606903 235.71717758 149.40411377 237.04263306 C149.41723069 239.88277655 149.40860528 242.72235161 149.3984375 245.5625 C149.40046062 247.54972439 149.40337405 249.53694806 149.40713501 251.52416992 C149.41154712 255.67992248 149.40516318 259.83548101 149.39111328 263.99121094 C149.37402216 269.30390368 149.38386931 274.61614167 149.40183067 279.92881775 C149.41269859 284.02961623 149.40920837 288.13030783 149.4014473 292.23110962 C149.39945361 294.18942316 149.4018752 296.14774658 149.40888596 298.10604858 C149.41655005 300.84830231 149.40482714 303.58983117 149.38818359 306.33203125 C149.39425629 307.13226715 149.40032898 307.93250305 149.40658569 308.75698853 C149.33226641 315.40493728 147.99868623 320.87664221 143.75 326.1875 C136.924956 331.61651227 131.00273519 331.77666342 122.5625 331.5625 C121.54478516 331.54896484 120.52707031 331.53542969 119.47851562 331.52148438 C116.98511786 331.4863661 114.49284488 331.43718559 112 331.375 C111.88785156 332.61636719 111.77570313 333.85773438 111.66015625 335.13671875 C111.23709993 338.47628855 110.73157973 340.61838074 108.4375 343.1875 C107.98246094 343.73019531 107.52742188 344.27289063 107.05859375 344.83203125 C100.58284214 349.68577297 93.71073838 349.84485986 85.9375 349.75 C84.98294922 349.76160156 84.02839844 349.77320313 83.04492188 349.78515625 C75.84975259 349.75536259 70.89348013 348.80815374 65.25 344.0625 C60.78167818 338.72533782 59.55729119 334.21445189 59.70703125 327.3515625 C59.71156311 326.35805786 59.71156311 326.35805786 59.71618652 325.34448242 C59.73175324 322.89616061 59.7736364 320.44806284 59.8125 318 C59.874375 312.51375 59.93625 307.0275 60 301.375 C38.22 301.705 16.44 302.035 -6 302.375 C2.31823814 310.7756455 2.31823814 310.7756455 10.984375 318.640625 C13.30114621 320.63412581 15.55419984 322.69054388 17.8125 324.75 C22.5269498 329.00014793 27.39467502 333.02252601 32.32910156 337.01318359 C34.24739762 338.57663412 36.15152865 340.15644067 38.0546875 341.73828125 C45.65107962 348.04764242 53.27439171 354.25901361 61.24902344 360.08935547 C63.35314807 361.63429695 65.44589748 363.19414959 67.5390625 364.75390625 C71.6070724 367.78045386 75.6913372 370.7835852 79.79101562 373.76708984 C81.16739488 374.76895034 82.54150822 375.77394056 83.91210938 376.78369141 C85.5121009 377.95656655 87.1303411 379.10443724 88.75 380.25 C89.61109375 380.86617188 90.4721875 381.48234375 91.359375 382.1171875 C94.82965782 383.77019204 97.19414644 383.79976044 101 383.375 C103.72698129 382.17089653 103.72698129 382.17089653 106.25 380.25 C107.79300781 379.15751953 107.79300781 379.15751953 109.3671875 378.04296875 C110.57882235 377.15459616 111.78969611 376.26518503 113 375.375 C114.50239221 374.28746755 116.00501041 373.20024724 117.5078125 372.11328125 C127.17587673 365.08222936 136.68235094 357.86359095 146 350.375 C146.6403418 349.8608252 147.28068359 349.34665039 147.94042969 348.81689453 C160.27251445 338.89579492 172.45856071 328.86004767 184.05078125 318.078125 C186.23518516 316.05346403 188.47094088 314.09935206 190.72705078 312.1550293 C194.74384227 308.64474028 198.55160042 304.96860696 202.31640625 301.19140625 C202.97656235 300.53220688 203.63671844 299.87300751 204.31687927 299.1938324 C205.70035506 297.81103165 207.08259083 296.42698924 208.46362305 295.04174805 C210.55731669 292.94269657 212.65629874 290.8490406 214.75585938 288.75585938 C216.10969571 287.40136214 217.46322175 286.04655469 218.81640625 284.69140625 C219.74169884 283.76915001 219.74169884 283.76915001 220.6856842 282.82826233 C224.98615626 278.50498035 229.03005521 274.00238388 233 269.375 C233.46518036 268.83741058 233.93036072 268.29982117 234.40963745 267.74594116 C269.35184979 227.27390722 305.15512233 174.40696122 301.75390625 118.43359375 C300.65894036 104.40190821 298.51650456 81.89150456 288 71.375 C287.42028986 64.30253623 287.42028986 64.30253623 289.5625 60.875 C292.99136114 58.76493161 295.04220351 58.75008477 299 59.375 C303.55622012 63.11066863 305.72298131 67.21449403 308 72.5 C308.3410376 73.27899658 308.6820752 74.05799316 309.03344727 74.8605957 C319.79417825 100.36233278 321.72835994 131.4981274 315 158.375 C314.80664062 159.1784082 314.61328125 159.98181641 314.4140625 160.80957031 C311.01670205 174.62445426 305.97900879 187.48879485 300 200.375 C299.68337402 201.06867676 299.36674805 201.76235352 299.04052734 202.47705078 C290.66624425 220.67788325 279.82213924 237.86487363 267.42041016 253.57373047 C266.00958941 255.36283935 264.61815366 257.16556462 263.23046875 258.97265625 C250.86073711 275.00585881 237.44116322 290.17906408 223 304.375 C219.86734906 307.49640264 216.75106393 310.63379648 213.63671875 313.7734375 C211.98704484 315.43235698 210.33730342 317.09120932 208.6875 318.75 C207.87087891 319.575 207.05425781 320.4 206.21289062 321.25 C201.30797708 326.17445503 196.29535466 330.87433161 191 335.375 C189.87085516 336.34868171 188.74193976 337.32262958 187.61328125 338.296875 C184.68020296 340.81294664 181.74249626 343.32360563 178.80371094 345.83300781 C177.08795684 347.29980572 175.37582907 348.77074033 173.6640625 350.2421875 C166.93320965 356.00844385 160.04687145 361.52255308 152.97753906 366.87011719 C150.70204048 368.60174352 148.44086843 370.35128338 146.1796875 372.1015625 C137.46422955 378.82817085 128.6882601 385.43447681 119.625 391.6875 C118.85913574 392.22028564 118.09327148 392.75307129 117.30419922 393.30200195 C108.6760961 399.17297569 101.62627286 401.6537332 91 400.375 C75.14993298 395.85358627 59.81998702 380.34434721 47 370.375 C46.39591309 369.90739258 45.79182617 369.43978516 45.16943359 368.95800781 C32.50024336 359.14618443 19.93375674 349.13575197 8.11328125 338.30859375 C6.14330794 336.50612279 4.14377944 334.74741601 2.125 333 C-1.10797575 330.17275627 -4.31450393 327.31818445 -7.5 324.4375 C-7.9933786 324.0115152 -8.4867572 323.5855304 -8.99508667 323.14663696 C-12.06331021 320.42515138 -14.5028954 317.76471011 -16.76367188 314.33569336 C-21.23762163 308.08533302 -26.13171815 302.92401189 -33.96069336 301.48855591 C-44.65827422 300.06655883 -55.5713561 300.52035545 -66.3293457 300.81280518 C-70.80768953 300.9170979 -75.28625242 300.92893808 -79.765625 300.94921875 C-88.51315995 301.00212238 -97.25506309 301.15555028 -106 301.375 C-105.97381592 302.39335937 -105.94763184 303.41171875 -105.9206543 304.4609375 C-105.82956841 308.27011805 -105.77254145 312.07920408 -105.7253418 315.88916016 C-105.70032946 317.53222894 -105.66630774 319.17518794 -105.62280273 320.81787109 C-105.19774448 337.29012859 -105.19774448 337.29012859 -109.61816406 343.01977539 C-116.40743554 349.67829941 -122.80307303 349.57791091 -131.75 349.625 C-133.19632813 349.6559375 -133.19632813 349.6559375 -134.671875 349.6875 C-141.58893362 349.72509271 -147.34440332 349.11496336 -153.05859375 344.83203125 C-153.51363281 344.28933594 -153.96867187 343.74664062 -154.4375 343.1875 C-154.91058594 342.65769531 -155.38367188 342.12789063 -155.87109375 341.58203125 C-157.56942363 338.26176695 -157.6653911 335.07877443 -158 331.375 C-158.62455078 331.39594727 -159.24910156 331.41689453 -159.89257812 331.43847656 C-162.7615506 331.52235844 -165.63026408 331.57388511 -168.5 331.625 C-169.48226562 331.65851563 -170.46453125 331.69203125 -171.4765625 331.7265625 C-179.54843006 331.8341874 -184.70463722 330.53810821 -190.57319641 324.90507507 C-193.96365175 320.74939033 -193.71087539 316.6168883 -193.6628418 311.44165039 C-193.67320969 310.45715408 -193.68357758 309.47265778 -193.69425964 308.45832825 C-193.72130411 305.2126769 -193.71167268 301.96837929 -193.69921875 298.72265625 C-193.70512868 296.46113204 -193.71237583 294.19961096 -193.72090149 291.93809509 C-193.73277787 287.2011585 -193.72608046 282.4646919 -193.70678711 277.7277832 C-193.68390842 271.66350619 -193.71067206 265.60063107 -193.75184917 259.53649235 C-193.77745021 254.86692313 -193.77484074 250.19768825 -193.76395607 245.52807426 C-193.76247104 243.29260422 -193.77014013 241.05710835 -193.78720665 238.82170296 C-193.80721592 235.69285742 -193.78875621 232.56647689 -193.76049805 229.43774414 C-193.77421448 228.51856201 -193.78793091 227.59937988 -193.80206299 226.65234375 C-193.69955259 220.96036492 -192.5754919 217.89725991 -188.64587116 213.74054623 C-182.59873982 208.72336288 -175.49075736 208.98602446 -168 209.1875 C-167.03449219 209.20103516 -166.06898438 209.21457031 -165.07421875 209.22851562 C-162.71554575 209.26354542 -160.35808229 209.31265916 -158 209.375 C-157.88785156 208.13363281 -157.77570313 206.89226562 -157.66015625 205.61328125 C-157.23709993 202.27371145 -156.73157973 200.13161926 -154.4375 197.5625 C-153.98246094 197.01980469 -153.52742188 196.47710937 -153.05859375 195.91796875 C-146.60083925 191.07771632 -139.75213493 190.90494657 -132 191 C-131.05382812 190.98839844 -130.10765625 190.97679687 -129.1328125 190.96484375 C-122.87356146 190.99085172 -116.36390231 191.32440761 -111.47705078 195.75610352 C-106.71458774 201.23835377 -105.70586684 205.29039802 -105.8046875 212.421875 C-105.8075174 213.19307678 -105.81034729 213.96427856 -105.81326294 214.7588501 C-105.82442987 217.21439332 -105.84952771 219.6695676 -105.875 222.125 C-105.88503432 223.79296347 -105.89415939 225.46093268 -105.90234375 227.12890625 C-105.92265363 231.21119291 -105.96180786 235.292685 -106 239.375 C-98.41 239.045 -90.82 238.715 -83 238.375 C-85.3203125 234.9409375 -85.3203125 234.9409375 -87.6875 231.4375 C-102.58277896 208.69770674 -113.78988131 183.85826777 -120 157.375 C-120.16371094 156.70065918 -120.32742187 156.02631836 -120.49609375 155.33154297 C-125.45958359 134.08801157 -125.01110372 110.32573726 -119 89.375 C-118.79632813 88.65103027 -118.59265625 87.92706055 -118.3828125 87.18115234 C-113.79909883 71.46707838 -105.92789559 56.59105617 -95 44.375 C-94.29230469 43.54871094 -93.58460937 42.72242188 -92.85546875 41.87109375 C-68.9633361 14.46418152 -36.25015035 -0.0494453 0 0 Z M-142 208.375 C-142.12221052 210.61886844 -142.17981473 212.86630276 -142.2109375 215.11328125 C-142.23901506 216.50456888 -142.26767958 217.89584476 -142.296875 219.28710938 C-142.33808884 221.48591677 -142.37496406 223.68450704 -142.40136719 225.88354492 C-142.42902846 228.00225502 -142.47490777 230.11996 -142.5234375 232.23828125 C-142.54325684 233.50969971 -142.56307617 234.78111816 -142.58349609 236.09106445 C-143.01938324 239.52782763 -143.57181158 240.95649751 -146 243.375 C-147.9375 243.87109375 -147.9375 243.87109375 -150 243.8125 C-151.0209375 243.81056641 -151.0209375 243.81056641 -152.0625 243.80859375 C-154.6643508 243.22632472 -155.49170536 242.58472041 -157 240.375 C-157.44140625 237.30859375 -157.44140625 237.30859375 -157.5625 233.8125 C-157.47390284 229.05095625 -157.47390284 229.05095625 -160 225.375 C-162.87626829 225.14992616 -165.62453024 225.05069594 -168.5 225.0625 C-169.28503906 225.04638672 -170.07007813 225.03027344 -170.87890625 225.01367188 C-173.42185612 224.97545323 -173.42185612 224.97545323 -177 225.375 C-179.49795998 229.12193997 -179.28159408 232.04169812 -179.25878906 236.37890625 C-179.2622937 237.19382538 -179.26579834 238.00874451 -179.26940918 238.84835815 C-179.27821899 241.54482516 -179.27238001 244.24103027 -179.265625 246.9375 C-179.26697187 248.80932669 -179.26891258 250.68115303 -179.27142334 252.55297852 C-179.27437358 256.47708464 -179.27008014 260.40109976 -179.26074219 264.32519531 C-179.24934772 269.35931136 -179.25590772 274.39321416 -179.26788712 279.42732239 C-179.27510839 283.29286307 -179.27281655 287.15835306 -179.26763153 291.02389526 C-179.26629578 292.8802798 -179.26794016 294.73666891 -179.27259064 296.5930481 C-179.27766024 299.18585431 -179.26993957 301.77831344 -179.25878906 304.37109375 C-179.26283752 305.14105682 -179.26688599 305.9110199 -179.27105713 306.70431519 C-179.24098915 310.47145733 -179.14333176 312.16000235 -177 315.375 C-174.08285199 315.65070606 -171.4113174 315.7472561 -168.5 315.6875 C-167.71496094 315.69072266 -166.92992187 315.69394531 -166.12109375 315.69726562 C-161.58406708 315.82907925 -161.58406708 315.82907925 -158 313.375 C-157.69079177 311.37719018 -157.69079177 311.37719018 -157.72875977 309.06469727 C-157.71857315 308.17359756 -157.70838654 307.28249786 -157.69789124 306.36439514 C-157.69575119 305.39980881 -157.69361115 304.43522247 -157.69140625 303.44140625 C-157.66624927 301.41080438 -157.6408512 299.38020549 -157.61523438 297.34960938 C-157.58645553 294.13892362 -157.56244623 290.92828949 -157.54370117 287.7175293 C-157.52209984 284.62521571 -157.48266577 281.53351071 -157.44140625 278.44140625 C-157.44129044 277.47884415 -157.44117462 276.51628204 -157.4410553 275.52455139 C-157.42771652 274.63029953 -157.41437775 273.73604767 -157.40063477 272.81469727 C-157.39302879 271.63460838 -157.39302879 271.63460838 -157.38526917 270.43067932 C-156.90310886 267.85801829 -156.01842512 266.98921006 -154 265.375 C-151.33234452 264.21901596 -150.20125898 264.31749743 -147.375 265.125 C-145 266.375 -145 266.375 -143 269.375 C-142.72825623 272.12075806 -142.72825623 272.12075806 -142.69702148 275.48291016 C-142.67205849 277.36968979 -142.67205849 277.36968979 -142.64659119 279.29458618 C-142.63803117 280.66774458 -142.62953351 282.04090336 -142.62109375 283.4140625 C-142.60492056 284.81986651 -142.58774075 286.22565927 -142.56959534 287.63143921 C-142.5239167 291.329944 -142.48910272 295.0284637 -142.45739746 298.72711182 C-142.4055059 304.65468855 -142.34052582 310.58210059 -142.26918221 316.50947189 C-142.24628681 318.58406858 -142.2300584 320.65864409 -142.21446228 322.73330688 C-142.20097244 323.98485565 -142.1874826 325.23640442 -142.17358398 326.52587891 C-142.16407211 327.63379791 -142.15456024 328.74171692 -142.14476013 329.88320923 C-142.28048546 332.31615002 -142.28048546 332.31615002 -141 333.375 C-139.66956375 333.4733721 -138.33406656 333.50578592 -137 333.5078125 C-136.195625 333.50910156 -135.39125 333.51039063 -134.5625 333.51171875 C-133.2940625 333.50591797 -133.2940625 333.50591797 -132 333.5 C-131.154375 333.50386719 -130.30875 333.50773437 -129.4375 333.51171875 C-128.633125 333.51042969 -127.82875 333.50914062 -127 333.5078125 C-125.88625 333.50612061 -125.88625 333.50612061 -124.75 333.50439453 C-122.97174189 333.56442216 -122.97174189 333.56442216 -122 332.375 C-121.90182792 330.77042809 -121.87368079 329.16152726 -121.87301636 327.55395508 C-121.87019653 326.51067047 -121.86737671 325.46738586 -121.86447144 324.39248657 C-121.86649567 323.23816132 -121.8685199 322.08383606 -121.87060547 320.89453125 C-121.86885315 319.68654877 -121.86710083 318.47856628 -121.86529541 317.23397827 C-121.86163722 313.91174046 -121.86251032 310.58956457 -121.8656745 307.26733017 C-121.86819848 303.79776676 -121.86586045 300.32820608 -121.86428833 296.85864258 C-121.86246675 291.03108238 -121.86487265 285.20353484 -121.86962891 279.37597656 C-121.87507151 272.62938708 -121.87330884 265.88282781 -121.8678025 259.13623905 C-121.86327105 253.35365826 -121.86262098 247.57108659 -121.86524117 241.7885046 C-121.86680377 238.33048444 -121.86699818 234.87247849 -121.86370468 231.41445923 C-121.86029161 227.56145036 -121.86501623 223.70847561 -121.87060547 219.85546875 C-121.86858124 218.70114349 -121.86655701 217.54681824 -121.86447144 216.35751343 C-121.86729126 215.31422882 -121.87011108 214.27094421 -121.87301636 213.19604492 C-121.87339338 212.28384689 -121.87377041 211.37164886 -121.87415886 210.43180847 C-121.77154353 208.38258813 -121.77154353 208.38258813 -123 207.375 C-124.33043625 207.2766279 -125.66593344 207.24421408 -127 207.2421875 C-127.804375 207.24089844 -128.60875 207.23960937 -129.4375 207.23828125 C-130.283125 207.24214844 -131.12875 207.24601563 -132 207.25 C-132.845625 207.24613281 -133.69125 207.24226562 -134.5625 207.23828125 C-135.366875 207.23957031 -136.17125 207.24085938 -137 207.2421875 C-138.11375 207.24387939 -138.11375 207.24387939 -139.25 207.24560547 C-141.02825811 207.18557784 -141.02825811 207.18557784 -142 208.375 Z M76 208.375 C75.97667091 224.5253192 75.95902078 240.67563296 75.94818783 256.82596493 C75.94302489 264.32433064 75.93598224 271.82268591 75.92456055 279.32104492 C75.91461363 285.85430504 75.90814656 292.38755759 75.90591151 298.92082506 C75.90460441 302.38221807 75.90151864 305.84358942 75.89426994 309.30497551 C75.88625593 313.16287527 75.88600887 317.02075357 75.88647461 320.87866211 C75.88287933 322.03455841 75.87928406 323.19045471 75.87557983 324.38137817 C75.8769545 325.42610794 75.87832916 326.47083771 75.87974548 327.54722595 C75.87882369 328.4607228 75.8779019 329.37421965 75.87695217 330.31539822 C75.77089742 332.36712355 75.77089742 332.36712355 77 333.375 C78.33043625 333.4733721 79.66593344 333.50578592 81 333.5078125 C81.804375 333.50910156 82.60875 333.51039063 83.4375 333.51171875 C84.7059375 333.50591797 84.7059375 333.50591797 86 333.5 C86.845625 333.50386719 87.69125 333.50773437 88.5625 333.51171875 C89.366875 333.51042969 90.17125 333.50914062 91 333.5078125 C92.11375 333.50612061 92.11375 333.50612061 93.25 333.50439453 C95.02825811 333.56442216 95.02825811 333.56442216 96 332.375 C96.09817208 330.77042809 96.12631921 329.16152726 96.12698364 327.55395508 C96.13121338 325.98902817 96.13121338 325.98902817 96.13552856 324.39248657 C96.13350433 323.23816132 96.1314801 322.08383606 96.12939453 320.89453125 C96.13114685 319.68654877 96.13289917 318.47856628 96.13470459 317.23397827 C96.13836278 313.91174046 96.13748968 310.58956457 96.1343255 307.26733017 C96.13180152 303.79776676 96.13413955 300.32820608 96.13571167 296.85864258 C96.13753325 291.03108238 96.13512735 285.20353484 96.13037109 279.37597656 C96.12492849 272.62938708 96.12669116 265.88282781 96.1321975 259.13623905 C96.13672895 253.35365826 96.13737902 247.57108659 96.13475883 241.7885046 C96.13319623 238.33048444 96.13300182 234.87247849 96.13629532 231.41445923 C96.13970839 227.56145036 96.13498377 223.70847561 96.12939453 219.85546875 C96.13141876 218.70114349 96.13344299 217.54681824 96.13552856 216.35751343 C96.13270874 215.31422882 96.12988892 214.27094421 96.12698364 213.19604492 C96.12660662 212.28384689 96.12622959 211.37164886 96.12584114 210.43180847 C96.22845647 208.38258813 96.22845647 208.38258813 95 207.375 C92.17743509 207.27492992 89.3847681 207.23624402 86.5625 207.25 C85.77294922 207.24613281 84.98339844 207.24226562 84.16992188 207.23828125 C79.95129255 207.13367531 79.95129255 207.13367531 76 208.375 Z M112 227.375 C111.80144475 230.10505123 111.7272822 232.73366732 111.74121094 235.46484375 C111.7377063 236.30073029 111.73420166 237.13661682 111.73059082 237.99783325 C111.72176586 240.76947254 111.72762532 243.54085797 111.734375 246.3125 C111.73302857 248.23299204 111.73108822 250.15348374 111.72857666 252.07397461 C111.72562436 256.10240926 111.72992644 260.13075532 111.73925781 264.15917969 C111.7506524 269.33130443 111.74409349 274.50322162 111.73211288 279.67533875 C111.72489714 283.64206516 111.7271809 287.6087421 111.73236847 291.57546997 C111.73370576 293.48292058 111.7320545 295.39037563 111.72740936 297.29782104 C111.72234881 299.96038772 111.73004765 302.62261496 111.74121094 305.28515625 C111.73716248 306.07898712 111.73311401 306.87281799 111.72894287 307.69070435 C111.6021092 311.9968167 111.6021092 311.9968167 114 315.375 C116.87342061 315.57356972 119.62861988 315.65328946 122.5 315.625 C123.28503906 315.63273437 124.07007813 315.64046875 124.87890625 315.6484375 C129.41532251 315.81919897 129.41532251 315.81919897 133 313.375 C133.19855525 310.64494877 133.2727178 308.01633268 133.25878906 305.28515625 C133.2622937 304.44926971 133.26579834 303.61338318 133.26940918 302.75216675 C133.27823414 299.98052746 133.27237468 297.20914203 133.265625 294.4375 C133.26697143 292.51700796 133.26891178 290.59651626 133.27142334 288.67602539 C133.27437564 284.64759074 133.27007356 280.61924468 133.26074219 276.59082031 C133.2493476 271.41869557 133.25590651 266.24677838 133.26788712 261.07466125 C133.27510286 257.10793484 133.2728191 253.1412579 133.26763153 249.17453003 C133.26629424 247.26707942 133.2679455 245.35962437 133.27259064 243.45217896 C133.27765119 240.78961228 133.26995235 238.12738504 133.25878906 235.46484375 C133.26283752 234.67101288 133.26688599 233.87718201 133.27105713 233.05929565 C133.3978908 228.7531833 133.3978908 228.7531833 131 225.375 C128.12657939 225.17643028 125.37138012 225.09671054 122.5 225.125 C121.71496094 225.11726562 120.92992187 225.10953125 120.12109375 225.1015625 C115.58467749 224.93080103 115.58467749 224.93080103 112 227.375 Z " fill="#000000" transform="translate(193,56.625)"/>
<path d="M0 0 C4.36359872 3.22526862 5.36528837 7.27506237 6.796875 12.265625 C7.0353717 13.05902283 7.27386841 13.85242065 7.51959229 14.66986084 C8.27511186 17.19316823 9.01274397 19.72130318 9.75 22.25 C10.26054563 23.9664952 10.77225168 25.6826457 11.28515625 27.3984375 C12.53691488 31.59508435 13.772663 35.79614913 15 40 C16.26120918 40.00213753 16.26120918 40.00213753 17.54789734 40.00431824 C25.47861857 40.02216085 33.40878253 40.06381129 41.33923626 40.13209057 C45.41625486 40.16635603 49.49289895 40.19146976 53.57006836 40.19555664 C57.50616084 40.1998407 61.44140856 40.22831076 65.37723732 40.27343178 C66.87745045 40.28640361 68.37776469 40.29071551 69.87802696 40.28615379 C71.98300315 40.28124482 74.08551298 40.30734475 76.19018555 40.34057617 C77.38709518 40.34723801 78.58400482 40.35389984 79.81718445 40.36076355 C83.92044774 41.18486266 85.42084857 42.77060007 88 46 C88.625 49 88.625 49 88 52 C85.32132147 55.43206181 83.84585935 56.8477848 79.50915527 57.62818909 C78.15414832 57.65466818 76.79843282 57.65392742 75.44335938 57.63110352 C74.69963577 57.63825882 73.95591217 57.64541412 73.18965149 57.65278625 C70.74038563 57.66964367 68.29295798 57.65029028 65.84375 57.62890625 C64.13651376 57.62973523 62.42927761 57.63219572 60.7220459 57.63621521 C57.14762284 57.63907116 53.57382711 57.62439238 49.99951172 57.59692383 C45.42273722 57.56284092 40.84708422 57.56886091 36.27025604 57.5875864 C32.74597869 57.59816598 29.22196132 57.58920997 25.69770813 57.57420158 C24.01044996 57.56902631 22.32316456 57.56949363 20.63591003 57.57574654 C18.27556182 57.58121054 15.91680713 57.56078831 13.55664062 57.53344727 C12.86246536 57.53997314 12.1682901 57.54649902 11.45307922 57.55322266 C8.18884489 57.4890787 6.07110357 57.03938374 3.20349121 55.45103455 C0.42055993 52.3554648 -0.68222993 49.17074012 -1.8125 45.25 C-2.13637695 44.20392578 -2.13637695 44.20392578 -2.46679688 43.13671875 C-2.99311601 41.42910557 -3.49868955 39.7151217 -4 38 C-4.42222588 39.38609215 -4.42222588 39.38609215 -4.85298157 40.80018616 C-7.5115505 49.52594168 -10.17428052 58.25041791 -12.84104633 66.97367191 C-14.2117863 71.45797188 -15.58107748 75.9427034 -16.94702148 80.4284668 C-18.26629551 84.76077222 -19.58942235 89.09188389 -20.91518211 93.42220879 C-21.41927491 95.07111468 -21.92199888 96.72043972 -22.4233036 98.37019539 C-23.12790283 100.68812085 -23.83743894 103.00448235 -24.5480957 105.32055664 C-24.75237686 105.9966951 -24.95665802 106.67283356 -25.16712952 107.36946106 C-28.82117788 119.21411858 -28.82117788 119.21411858 -33 122 C-36.72588133 122.56698194 -38.36978372 122.45969013 -41.44335938 120.21777344 C-45.35020701 116.06166937 -46.46116205 110.41969784 -48.03125 105.078125 C-48.38964966 103.90473572 -48.74804932 102.73134644 -49.11730957 101.5223999 C-50.25976696 97.76926005 -51.3800758 94.0099177 -52.5 90.25 C-53.25247034 87.76649157 -54.0063626 85.28341349 -54.76171875 82.80078125 C-56.54771705 76.91697434 -58.31247648 71.02712854 -60.06591797 65.13354492 C-60.91947694 62.27012896 -61.7805356 59.40910846 -62.64453125 56.54882812 C-63.10702055 55.00658528 -63.56928197 53.46427407 -64.03125 51.921875 C-64.23713745 51.24465393 -64.4430249 50.56743286 -64.65515137 49.86968994 C-65.47164734 47.12124308 -66 44.88856351 -66 42 C-66.87839035 42.00888245 -67.7567807 42.01776489 -68.66178894 42.0269165 C-76.94536663 42.1071105 -85.22881369 42.16798883 -93.51269054 42.20724869 C-97.7714057 42.22811132 -102.02979973 42.25640431 -106.28833008 42.30175781 C-110.3991492 42.34526351 -114.5096597 42.36914707 -118.6206913 42.37950897 C-120.18799001 42.38689193 -121.75527209 42.40130936 -123.32243919 42.42292023 C-125.52026048 42.45201852 -127.71681157 42.45595354 -129.91479492 42.45410156 C-131.16499924 42.46298401 -132.41520355 42.47186646 -133.70329285 42.48101807 C-137.59590776 41.91305191 -139.24514402 40.75503644 -142 38 C-142.62890625 36 -142.62890625 36 -142.5625 34 C-142.56378906 33.34 -142.56507813 32.68 -142.56640625 32 C-141.72107956 29.0151223 -140.44877711 27.90349447 -138 26 C-135.2570358 25.60522036 -132.91500793 25.45229593 -130.17382812 25.48242188 C-129.38962997 25.4754126 -128.60543182 25.46840332 -127.79747009 25.46118164 C-125.20836858 25.44359356 -122.6203624 25.4552267 -120.03125 25.46875 C-118.23050731 25.46605531 -116.42976603 25.46217307 -114.62902832 25.45715332 C-110.85622292 25.45125719 -107.08379649 25.45982481 -103.31103516 25.47851562 C-98.47523077 25.50130539 -93.64031435 25.4881829 -88.80454254 25.46422577 C-85.08645946 25.44977081 -81.36858686 25.45437236 -77.65049744 25.46473694 C-75.86750687 25.46740507 -74.08449718 25.46413142 -72.30152893 25.45481873 C-69.80922843 25.44465789 -67.31836532 25.46014629 -64.82617188 25.48242188 C-64.08942734 25.47432495 -63.3526828 25.46622803 -62.59361267 25.45788574 C-59.25487257 25.5131633 -57.33676976 25.752063 -54.61659241 27.75471497 C-52.99191167 30.01123388 -52.10985313 31.79083407 -51.30834961 34.44213867 C-51.03804428 35.31372116 -50.76773895 36.18530365 -50.48924255 37.08329773 C-50.07497765 38.48645988 -50.07497765 38.48645988 -49.65234375 39.91796875 C-49.35437393 40.88978592 -49.05640411 41.86160309 -48.74940491 42.86286926 C-47.80019949 45.96760183 -46.86847787 49.0772587 -45.9375 52.1875 C-44.99900132 55.27858501 -44.05700013 58.3685885 -43.11488342 61.45857239 C-42.53088478 63.37880269 -41.94969123 65.29988918 -41.37181091 67.2219696 C-39.67764783 72.84909453 -37.89279054 78.43646864 -36 84 C-35.73104416 83.11796402 -35.46208832 82.23592804 -35.1849823 81.3271637 C-32.6411824 72.98555738 -30.09626197 64.64429392 -27.55010509 56.30340672 C-26.24136946 52.0160153 -24.93305648 47.72849589 -23.62573242 43.44067383 C-22.36238288 39.29713856 -21.09789307 35.15395281 -19.83263588 31.01099968 C-19.35185032 29.43601632 -18.871465 27.86091072 -18.39150047 26.28567696 C-11.46138366 3.5437736 -11.46138366 3.5437736 -9.25 0.9375 C-5.95703716 -0.43456785 -3.52651286 -0.44081411 0 0 Z " fill="#000000" transform="translate(254,141)"/>
</svg>
