<?xml version="1.0" encoding="UTF-8"?>
<svg version="1.1" xmlns="http://www.w3.org/2000/svg" width="512" height="512">
<path d="M0 0 C1.0213353 -0.00953201 2.04267059 -0.01906403 3.09495544 -0.02888489 C4.7341671 -0.02751778 4.7341671 -0.02751778 6.40649414 -0.02612305 C8.10582848 -0.03255074 8.10582848 -0.03255074 9.8394928 -0.03910828 C12.23250664 -0.0448447 14.62553791 -0.04535692 17.01855469 -0.04101562 C20.6748638 -0.0378563 24.33036317 -0.06132231 27.98657227 -0.08666992 C30.3140452 -0.08894307 32.64152032 -0.08964634 34.96899414 -0.08862305 C36.05977768 -0.09783279 37.15056122 -0.10704254 38.2743988 -0.11653137 C44.79017406 -0.07691605 49.06945636 0.59121667 54.45043945 4.51000977 C59.72466997 10.1277875 61.51020511 17.49493897 63.76382446 24.67721558 C68.61735951 40.06691711 74.40145753 54.04801399 82.92993164 67.7902832 C88.93251034 77.55800647 88.93251034 77.55800647 87.75415039 84.2746582 C86.30185244 87.82471985 84.17517686 90.47949732 80.90527344 92.56884766 C77.75356363 93.60296331 74.82790366 93.43160647 71.52368164 93.38012695 C70.25758057 93.3648999 68.99147949 93.34967285 67.68701172 93.33398438 C66.71916748 93.31440674 65.75132324 93.2948291 64.75415039 93.2746582 C64.78033447 94.1625 64.80651855 95.0503418 64.83349609 95.96508789 C64.91884789 99.26766225 64.98145691 102.56906095 65.02880859 105.87231445 C65.05391386 107.30023722 65.08800626 108.72803195 65.13134766 110.15551758 C65.19218717 112.21117738 65.2203959 114.26513573 65.24243164 116.3215332 C65.26861572 117.55742187 65.2947998 118.79331055 65.32177734 120.06665039 C64.75415039 123.2746582 64.75415039 123.2746582 62.41113281 125.67797852 C59.14414852 127.64123104 57.50618056 127.89999657 53.75415039 127.2746582 C51.11083984 125.71899414 51.11083984 125.71899414 48.75415039 123.2746582 C48.23633205 120.53928906 48.0317784 118.40053107 48.04711914 115.6652832 C48.03199783 114.93847351 48.01687653 114.21166382 48.001297 113.46282959 C47.95843471 111.14978988 47.94958451 108.83805539 47.94165039 106.5246582 C47.91850458 104.95300896 47.89313904 103.38139072 47.86547852 101.80981445 C47.80264205 97.9646471 47.77029522 94.12029362 47.75415039 90.2746582 C44.70501811 89.26354728 44.70501811 89.26354728 41.75415039 90.2746582 C41.61457874 99.22865947 41.50824239 108.18228118 41.44327736 117.13713646 C41.41208287 121.29616337 41.369832 125.45444121 41.30151367 129.61303711 C41.23589048 133.63314706 41.20035518 137.6525407 41.18488693 141.67314529 C41.1738768 143.20009246 41.15237727 144.72700436 41.11977005 146.25364304 C40.94769271 154.65096244 41.20535677 161.23861818 46.301651 168.26118469 C48.52963284 171.34964204 49.43088381 174.45954252 50.56665039 178.0871582 C50.9649707 179.33110352 51.36329102 180.57504883 51.77368164 181.85668945 C53.17923285 186.75651938 53.87813628 190.98382947 53.81665039 196.0871582 C53.80311523 197.55088867 53.80311523 197.55088867 53.78930664 199.04418945 C53.7719043 200.14827148 53.7719043 200.14827148 53.75415039 201.2746582 C54.4927832 201.22825195 55.23141602 201.1818457 55.99243164 201.1340332 C66.87243452 200.74694288 75.30117938 203.23568352 83.68774414 210.30200195 C92.20578089 218.43358713 96.75664567 227.08268313 97.22485352 238.90991211 C97.37948582 251.39131641 94.58863255 261.09507909 85.75415039 270.2746582 C81.68112542 273.93487659 78.15690306 277.06572962 72.75415039 278.2746582 C72.76303284 279.1419455 72.77191528 280.00923279 72.78106689 280.90280151 C72.86150689 289.11124003 72.92226346 297.31954449 72.96139908 305.52828789 C72.98219617 309.74762788 73.01036783 313.96663979 73.0559082 318.18579102 C73.09964971 322.26421417 73.12334661 326.3423235 73.13365936 330.42096329 C73.14100034 331.97017475 73.15533455 333.51937075 73.17707062 335.06844711 C73.35432005 348.23470171 71.47153034 357.27485846 62.13696289 367.0715332 C58.09205759 370.81141285 53.97955696 373.53285601 48.75415039 375.2746582 C48.89852539 376.5121582 49.04290039 377.7496582 49.19165039 379.0246582 C49.27286133 379.72075195 49.35407227 380.4168457 49.43774414 381.1340332 C49.7134165 383.26364158 49.7134165 383.26364158 50.26977539 385.2590332 C50.80079123 387.46874427 50.99276745 389.50372995 51.06665039 391.7746582 C51.1040332 392.5274707 51.14141602 393.2802832 51.17993164 394.0559082 C50.57107878 397.22864607 49.25805607 398.27230686 46.75415039 400.2746582 C42.127542 401.10819542 37.44741019 400.87721112 32.75415039 400.8371582 C31.47024414 400.86100586 30.18633789 400.88485352 28.86352539 400.90942383 C27.63118164 400.90749023 26.39883789 400.90555664 25.12915039 400.90356445 C24.00250977 400.90428955 22.87586914 400.90501465 21.71508789 400.90576172 C18.75415039 400.2746582 18.75415039 400.2746582 16.4621582 397.97802734 C15.06694927 395.76974425 13.94925189 393.82836359 13.05102539 391.3918457 C12.79321289 390.69961914 12.53540039 390.00739258 12.26977539 389.29418945 C12.01711914 388.58649414 11.76446289 387.87879883 11.50415039 387.1496582 C11.23602539 386.43422852 10.96790039 385.71879883 10.69165039 384.98168945 C9.58353873 381.95699691 8.75415039 379.52022122 8.75415039 376.2746582 C-28.20584961 376.2746582 -65.16584961 376.2746582 -103.24584961 376.2746582 C-103.57584961 378.2546582 -103.90584961 380.2346582 -104.24584961 382.2746582 C-105.12608559 384.88286513 -106.0412848 387.41066312 -107.05834961 389.9621582 C-107.30649414 390.62538086 -107.55463867 391.28860352 -107.81030273 391.97192383 C-109.36154251 395.89146861 -110.57105763 398.19012482 -114.24584961 400.2746582 C-117.39038086 400.67871094 -117.39038086 400.67871094 -121.05834961 400.70825195 C-121.70908447 400.7134938 -122.35981934 400.71873566 -123.03027344 400.72413635 C-124.40192237 400.73054103 -125.77362635 400.72923962 -127.14526367 400.72070312 C-129.23968482 400.71218328 -131.33138458 400.74098295 -133.42553711 400.77270508 C-134.7614738 400.77431713 -136.09741529 400.77373949 -137.43334961 400.77075195 C-139.24899414 400.77353149 -139.24899414 400.77353149 -141.10131836 400.77636719 C-144.81745842 400.1834582 -145.98518901 399.22125309 -148.24584961 396.2746582 C-149.89994931 389.69733263 -147.20668821 382.51899542 -145.24584961 376.2746582 C-147.19491211 375.9652832 -147.19491211 375.9652832 -149.18334961 375.6496582 C-157.43053262 373.80830602 -163.74029422 368.48605403 -169.24584961 362.2746582 C-169.24584961 361.6146582 -169.24584961 360.9546582 -169.24584961 360.2746582 C-210.49584961 360.2746582 -251.74584961 360.2746582 -294.24584961 360.2746582 C-294.90584961 362.2546582 -295.56584961 364.2346582 -296.24584961 366.2746582 C-297.40838904 368.80465809 -298.59466684 371.29986646 -299.83569336 373.7902832 C-300.18088516 374.48732361 -300.52607697 375.18436401 -300.88172913 375.90252686 C-301.6083447 377.36583065 -302.33709455 378.8280764 -303.06787109 380.28930664 C-304.18480775 382.52758023 -305.28876802 384.77195569 -306.39233398 387.0168457 C-307.10183691 388.44171529 -307.81209713 389.8662081 -308.52319336 391.2902832 C-308.85141586 391.96109924 -309.17963837 392.63191528 -309.51780701 393.32305908 C-311.16801419 396.59109931 -312.13418727 398.20021665 -315.24584961 400.2746582 C-319.79676016 400.68595793 -324.35709784 400.64626143 -328.92431641 400.64526367 C-331.17223891 400.64963659 -333.4181964 400.6859619 -335.66577148 400.72387695 C-337.09740541 400.72974558 -338.52904864 400.73371467 -339.96069336 400.7355957 C-341.26127686 400.74381348 -342.56186035 400.75203125 -343.90185547 400.76049805 C-347.24584961 400.2746582 -347.24584961 400.2746582 -349.67675781 398.76245117 C-351.89327556 395.24816522 -351.74468399 392.0281937 -351.63647461 388.0090332 C-351.62798492 386.81893646 -351.62798492 386.81893646 -351.61932373 385.60479736 C-351.59698108 383.07746347 -351.54679137 380.55156155 -351.49584961 378.0246582 C-351.47578175 376.30853289 -351.45753148 374.59238528 -351.44116211 372.8762207 C-351.39712356 368.6751504 -351.32811287 364.47514686 -351.24584961 360.2746582 C-352.06569336 360.32106445 -352.88553711 360.3674707 -353.73022461 360.4152832 C-354.80788086 360.45137695 -355.88553711 360.4874707 -356.99584961 360.5246582 C-358.06319336 360.57106445 -359.13053711 360.6174707 -360.23022461 360.6652832 C-364.01744325 360.17471084 -364.91100325 359.24096929 -367.24584961 356.2746582 C-367.74724627 353.57672882 -367.74724627 353.57672882 -367.74921417 350.42126465 C-367.75964516 349.21747917 -367.77007615 348.0136937 -367.78082323 346.77342987 C-367.77217481 345.43594628 -367.76314818 344.0984651 -367.75378418 342.76098633 C-367.7583918 341.34144704 -367.76474379 339.92191251 -367.77269316 338.502388 C-367.78942897 334.5968771 -367.78112106 330.69175595 -367.76874828 326.78624344 C-367.75971739 322.57621843 -367.77365774 318.36626158 -367.78466797 314.15625 C-367.80247881 305.90698739 -367.79860182 297.65787013 -367.78701741 289.40860176 C-367.77799342 282.70582 -367.77675459 276.00307906 -367.78111267 269.30029297 C-367.7817256 268.34726555 -367.78233854 267.39423814 -367.78297004 266.4123311 C-367.78424891 264.47643215 -367.78554576 262.54053321 -367.78686041 260.60463428 C-367.79827372 242.44056337 -367.78514073 224.27657313 -367.76365894 206.11251545 C-367.74578728 190.51808512 -367.74889118 174.92377388 -367.76733398 159.3293457 C-367.78872745 141.23143298 -367.79717501 123.13359102 -367.78488493 105.03566742 C-367.7836107 103.1067861 -367.78235322 101.17790478 -367.78111267 99.24902344 C-367.78049557 98.2999123 -367.77987847 97.35080117 -367.77924266 96.3729291 C-367.77578519 89.67617377 -367.78162666 82.97946323 -367.79103088 76.28271484 C-367.80223533 68.12448691 -367.79924365 59.96641297 -367.77790791 51.80820274 C-367.76737646 47.64364519 -367.76331109 43.47934462 -367.77650452 39.31478882 C-367.78839125 35.50515472 -367.78192809 31.69601673 -367.76059431 27.88642788 C-367.75611234 26.50560212 -367.75843016 25.12473477 -367.76809746 23.74393559 C-367.78020172 21.87200286 -367.76543449 19.99995334 -367.74921417 18.12805176 C-367.74856476 17.08674858 -367.74791535 16.0454454 -367.74724627 14.97258759 C-367.10504413 11.51700808 -366.05656059 10.34240618 -363.24584961 8.2746582 C-361.00958633 7.77326155 -361.00958633 7.77326155 -358.51690674 7.77129364 C-357.56392574 7.76086265 -356.61094475 7.75043166 -355.62908554 7.73968458 C-354.58512745 7.74860747 -353.54116936 7.75753036 -352.46557617 7.76672363 C-351.35425449 7.76048367 -350.24293282 7.75424371 -349.09793472 7.74781466 C-345.36056784 7.73181372 -341.62384675 7.74451726 -337.88647461 7.75708008 C-335.21258632 7.75166212 -332.53874307 7.74468648 -329.86486816 7.73583984 C-323.34816283 7.71803783 -316.8316416 7.721902 -310.31492901 7.73349041 C-305.0194669 7.74251788 -299.72405646 7.74375171 -294.42858887 7.73939514 C-293.67538746 7.73878221 -292.92218606 7.73816928 -292.14616036 7.73753777 C-290.61612541 7.73625889 -289.08609047 7.73496204 -287.55605555 7.73364741 C-273.20330519 7.72223669 -258.85065698 7.73536299 -244.49792337 7.75684887 C-232.17817055 7.77472032 -219.85856847 7.77161635 -207.53881836 7.75317383 C-193.23801566 7.73177576 -178.93730252 7.72333537 -164.63648605 7.73562288 C-163.1120275 7.7368971 -161.58756893 7.73815458 -160.06311035 7.73939514 C-159.31301516 7.74001224 -158.56291996 7.74062935 -157.79009461 7.74126515 C-152.49997451 7.74472125 -147.20991113 7.73888412 -141.9197998 7.72947693 C-135.47433382 7.71826735 -129.02906273 7.72127486 -122.58361912 7.7425999 C-119.29393473 7.75312466 -116.00464329 7.75506128 -112.71495056 7.7440033 C-109.15168025 7.73312726 -105.58933394 7.74671655 -102.02612305 7.76672363 C-100.98216496 7.75780075 -99.93820686 7.74887786 -98.86261368 7.73968458 C-91.94917803 7.81535658 -91.94917803 7.81535658 -88.60214615 10.00110245 C-87.03129882 12.63430904 -86.75161139 14.10562872 -86.76483154 17.15948486 C-86.75658356 18.63179565 -86.75658356 18.63179565 -86.74816895 20.1338501 C-86.7697406 21.73930695 -86.7697406 21.73930695 -86.79174805 23.37719727 C-86.79116394 24.50919556 -86.79057983 25.64119385 -86.78997803 26.80749512 C-86.79276648 30.55206888 -86.82389609 34.29584835 -86.85522461 38.0402832 C-86.86268425 40.63531052 -86.86837849 43.23034346 -86.87237549 45.82537842 C-86.88609161 51.95944136 -86.91762211 58.09317612 -86.95777345 64.22711539 C-87.00249711 71.21131542 -87.02447963 78.19552915 -87.04455519 85.17983675 C-87.08635526 99.54493048 -87.15670354 113.9097842 -87.24584961 128.2746582 C-86.2761171 128.27021698 -85.30638458 128.26577576 -84.30726624 128.26119995 C-75.14192675 128.22055198 -65.9766057 128.19062503 -56.81119633 128.17103386 C-52.09984119 128.16062307 -47.38855916 128.14651354 -42.67724609 128.1237793 C-38.12553125 128.10195412 -33.57388649 128.09006926 -29.02212334 128.08490372 C-27.29070369 128.08122527 -25.55928762 128.0740424 -23.82789803 128.06319809 C-21.39169325 128.04855432 -18.95577337 128.04668559 -16.51953125 128.04760742 C-15.81318039 128.04041687 -15.10682953 128.03322632 -14.3790741 128.02581787 C-8.87277524 128.04817623 -4.89219859 129.01991399 0.75415039 130.2746582 C0.42415039 117.0746582 0.09415039 103.8746582 -0.24584961 90.2746582 C-5.19737207 89.03677759 -6.70663355 90.2041386 -11.24584961 92.2746582 C-16.38293889 93.52094044 -21.42320839 93.53263013 -26.68334961 93.5871582 C-28.07650391 93.63066406 -28.07650391 93.63066406 -29.49780273 93.67504883 C-35.4374425 93.73000635 -38.70851879 93.19162265 -43.24584961 89.2746582 C-46.15262935 85.78652252 -46.60426658 82.93523329 -46.53149414 78.4284668 C-46.0354342 74.68809002 -44.22060958 71.86853685 -42.24584961 68.7121582 C-33.66999282 54.47501518 -27.37843502 40.87294104 -22.46142578 25.0078125 C-16.90293832 7.2210268 -16.90293832 7.2210268 -10.24584961 2.2746582 C-6.70200288 0.62016898 -3.89948439 0.0200838 0 0 Z M38.75415039 16.2746582 C38.81930187 32.66025516 43.91437004 49.16102121 48.87915039 64.6496582 C49.10820068 65.38595459 49.33725098 66.12225098 49.57324219 66.88085938 C50.90638093 70.8339631 52.02558007 73.25803846 55.75415039 75.2746582 C58.50493923 76.19158782 60.11363952 76.38351904 62.94165039 76.3371582 C64.19977539 76.3165332 65.45790039 76.2959082 66.75415039 76.2746582 C65.2466251 72.19368065 63.26818872 68.55845508 61.12915039 64.7746582 C53.81533961 51.40222876 49.00361623 36.79978583 44.66430664 22.23168945 C43.87512611 19.3796868 43.87512611 19.3796868 42.75415039 17.2746582 C40.72951784 16.62252529 40.72951784 16.62252529 38.75415039 16.2746582 Z M-1.24584961 17.2746582 C-2.26475595 19.11224919 -2.26475595 19.11224919 -2.99584961 21.5246582 C-3.33616211 22.51594727 -3.67647461 23.50723633 -4.02709961 24.52856445 C-4.95701484 27.38686158 -5.87088358 30.24870483 -6.77709961 33.11450195 C-11.28123176 47.2098476 -16.93696593 59.89965246 -24.43334961 72.6730957 C-25.39665837 74.27261336 -25.39665837 74.27261336 -25.24584961 76.2746582 C-19.75863234 76.55847979 -15.81641425 76.70258168 -11.24584961 73.2746582 C-7.47969472 66.81684479 -5.63992514 59.36566529 -3.68334961 52.2121582 C-3.22883423 50.56594482 -3.22883423 50.56594482 -2.76513672 48.88647461 C0.14676486 38.14829575 2.99637825 27.47413449 2.75415039 16.2746582 C1.385218 16.22195358 1.385218 16.22195358 -1.24584961 17.2746582 Z M19.75415039 18.2746582 C19.64458008 18.97623047 19.53500977 19.67780273 19.42211914 20.40063477 C16.47643406 38.88301251 12.26276026 56.39580067 6.75415039 74.2746582 C8.33500131 74.93686579 9.91894713 75.59168808 11.50415039 76.2434082 C12.82672852 76.79158203 12.82672852 76.79158203 14.17602539 77.35083008 C20.09216215 79.47077908 24.28640145 78.61326467 30.00415039 76.2434082 C30.89618164 75.87666992 31.78821289 75.50993164 32.70727539 75.13208008 C33.38274414 74.84913086 34.05821289 74.56618164 34.75415039 74.2746582 C34.53799072 73.57308594 34.32183105 72.87151367 34.09912109 72.14868164 C28.6516741 54.28279173 24.63835705 36.74206381 21.75415039 18.2746582 C21.09415039 18.2746582 20.43415039 18.2746582 19.75415039 18.2746582 Z M-351.24584961 24.2746582 C-351.24584961 98.1946582 -351.24584961 172.1146582 -351.24584961 248.2746582 C-314.28584961 248.2746582 -277.32584961 248.2746582 -239.24584961 248.2746582 C-239.24584961 174.3546582 -239.24584961 100.4346582 -239.24584961 24.2746582 C-276.20584961 24.2746582 -313.16584961 24.2746582 -351.24584961 24.2746582 Z M-223.24584961 24.2746582 C-223.24584961 98.1946582 -223.24584961 172.1146582 -223.24584961 248.2746582 C-215.32584961 248.2746582 -207.40584961 248.2746582 -199.24584961 248.2746582 C-199.16334961 245.8615332 -199.08084961 243.4484082 -198.99584961 240.9621582 C-198.37941249 229.67150507 -195.3502125 220.47181915 -187.24584961 212.2746582 C-177.61479435 204.07869396 -168.66440966 201.88402917 -156.24584961 201.2746582 C-156.15948242 200.29368164 -156.07311523 199.31270508 -155.98413086 198.30200195 C-154.03584092 178.68676591 -147.34017164 162.39437541 -133.24584961 148.2746582 C-132.70573242 147.72293945 -132.16561523 147.1712207 -131.60913086 146.6027832 C-123.65249944 139.1471991 -113.4232623 134.6671291 -103.24584961 131.2746582 C-103.24584961 95.9646582 -103.24584961 60.6546582 -103.24584961 24.2746582 C-142.84584961 24.2746582 -182.44584961 24.2746582 -223.24584961 24.2746582 Z M16.75415039 95.2746582 C16.58088915 101.16439817 16.45398176 107.05265053 16.36962891 112.94433594 C16.33446243 114.9475285 16.28671893 116.95054184 16.22607422 118.953125 C16.14098326 121.83549177 16.10142589 124.71548193 16.07055664 127.59887695 C16.01636314 128.93821541 16.01636314 128.93821541 15.96107483 130.30461121 C15.90137486 135.07319821 15.90137486 135.07319821 18.32394409 138.98501587 C21.25579877 141.33223355 21.25579877 141.33223355 24.75415039 142.2746582 C24.75415039 126.7646582 24.75415039 111.2546582 24.75415039 95.2746582 C22.11415039 95.2746582 19.47415039 95.2746582 16.75415039 95.2746582 Z M-118.24584961 157.2746582 C-118.86073242 157.72454102 -119.47561523 158.17442383 -120.10913086 158.63793945 C-131.34998348 167.4860607 -137.8921353 181.69107363 -139.67553711 195.6340332 C-140.33545514 202.47550994 -140.33545514 202.47550994 -137.48022461 208.38012695 C-135.92192905 209.49584537 -134.32680631 210.56151527 -132.70288086 211.5793457 C-125.44739385 216.58551639 -122.93857724 224.1964753 -120.24584961 232.2746582 C-119.91584961 248.4446582 -119.58584961 264.6146582 -119.24584961 281.2746582 C-74.36584961 281.2746582 -29.48584961 281.2746582 16.75415039 281.2746582 C17.08415039 265.1046582 17.41415039 248.9346582 17.75415039 232.2746582 C24.06594814 214.91721438 24.06594814 214.91721438 33.19165039 209.5871582 C36.02932658 207.5925198 36.66354059 206.69970054 37.39868164 203.2512207 C37.86508691 187.60073275 31.61369633 172.67332182 20.94555664 161.3371582 C5.17063325 146.49017148 -13.00688298 144.1243693 -33.73022461 144.10668945 C-35.11728955 144.10346548 -36.50435418 144.10010062 -37.89141846 144.09660339 C-40.78593736 144.09065208 -43.68042659 144.08875932 -46.57495117 144.08935547 C-50.24352786 144.08945681 -53.91190981 144.07581539 -57.58044052 144.05858326 C-60.44273718 144.04734277 -63.30498855 144.04543992 -66.16730499 144.04596519 C-68.16434676 144.04424616 -70.1613744 144.03348485 -72.15838623 144.02241516 C-89.48932211 144.06514043 -104.18669989 146.69630377 -118.24584961 157.2746582 Z M-176.24584961 224.2746582 C-181.95443914 231.50930632 -183.04416453 238.18080994 -182.24584961 247.2746582 C-180.48092188 253.95215547 -175.81697892 258.44694174 -170.24584961 262.2746582 C-167.87335898 263.47209451 -165.5152083 264.5087435 -163.03100586 265.45043945 C-161.24584961 266.2746582 -161.24584961 266.2746582 -160.24584961 268.2746582 C-160.13507647 270.50915339 -160.08928257 272.74695634 -160.07226562 274.98413086 C-160.06223511 276.01867905 -160.06223511 276.01867905 -160.05200195 277.0741272 C-160.03793834 278.57463429 -160.02604847 280.07516295 -160.01605415 281.57570267 C-159.99963883 283.95568825 -159.97639689 286.33551622 -159.95115662 288.71542358 C-159.88042355 295.48329791 -159.82048026 302.25123928 -159.76904297 309.01928711 C-159.73710515 313.15843608 -159.6957844 317.2974081 -159.64884758 321.43641281 C-159.63290563 323.00952314 -159.62054835 324.58267427 -159.61194038 326.15584183 C-159.81661072 341.96582771 -159.81661072 341.96582771 -152.24584961 355.2746582 C-146.01761337 360.07680296 -139.51051585 360.39841758 -131.89651489 360.40837097 C-131.17832765 360.41063653 -130.46014042 360.41290208 -129.72018993 360.41523629 C-127.32524351 360.42154204 -124.93035417 360.42074914 -122.53540039 360.41992188 C-120.81352669 360.42291549 -119.09165365 360.42631848 -117.36978149 360.43009949 C-112.70032348 360.43892266 -108.03088379 360.44127688 -103.36141825 360.44191527 C-100.44229727 360.44262668 -97.52318094 360.4447627 -94.60406113 360.44741249 C-84.41515559 360.45666 -74.22626312 360.46074808 -64.03735352 360.45996094 C-54.54773376 360.45936015 -45.05817086 360.46991378 -35.56856549 360.4857046 C-27.4138195 360.49878948 -19.25909207 360.50414444 -11.10433567 360.50350553 C-6.23713041 360.50325084 -1.36997569 360.50608599 3.49721909 360.51668358 C8.07564284 360.5263806 12.65396789 360.52643273 17.23239517 360.51916695 C18.90932612 360.51812314 20.58626326 360.52047188 22.26318359 360.5265274 C24.55918691 360.53427923 26.85485202 360.5295817 29.15084839 360.52189636 C30.43356565 360.52244113 31.71628292 360.5229859 33.03787041 360.52354717 C40.27295555 360.03899464 46.45204561 358.38836332 51.75415039 353.2746582 C56.52788494 347.08326916 56.87273304 340.60254324 56.91186523 333.03173828 C56.91694595 332.33342392 56.92202667 331.63510956 56.92726135 330.91563416 C56.93790569 329.40972429 56.94654878 327.90379919 56.95338058 326.3978672 C56.96523442 324.01473002 56.98469905 321.63176882 57.00650024 319.248703 C57.06793057 312.47689629 57.12228132 305.70511426 57.15551758 298.93310547 C57.17642997 294.78281731 57.21169124 290.63286172 57.25627518 286.48276329 C57.27044757 284.9027363 57.27916042 283.32265062 57.28232956 281.74256325 C57.2872239 279.53781714 57.31033708 277.3339606 57.33764648 275.12939453 C57.34977676 273.24792473 57.34977676 273.24792473 57.3621521 271.32844543 C57.75415039 268.2746582 57.75415039 268.2746582 59.14053345 266.41532898 C61.16120754 264.98690826 63.23137605 264.0647335 65.50415039 263.0871582 C71.60819119 260.1333022 75.93147464 256.01175513 78.91821289 249.88793945 C80.87401648 243.7737684 80.81359087 236.68691809 78.06665039 230.8371582 C74.35180785 224.56349056 68.90452366 219.70187007 61.80883789 217.7355957 C54.30346999 216.46998464 47.82979955 218.54359953 41.57836914 222.73168945 C36.18958871 227.28965149 33.84305523 233.43284991 32.75415039 240.2746582 C32.50364333 244.85869921 32.47549674 249.43557172 32.4797554 254.02488708 C32.48072999 256.34663814 32.46767073 258.66793797 32.45077515 260.98962402 C32.40477555 267.58508903 32.37990002 274.18050281 32.37329102 280.77612305 C32.36825805 284.82503754 32.34392641 288.87347385 32.30796432 292.92222595 C32.2982153 294.45626445 32.29580746 295.9903691 32.30113602 297.52442932 C32.33157117 306.71335549 32.28637165 314.02255392 26.00805664 321.2980957 C25.44989258 321.74411133 24.89172852 322.19012695 24.31665039 322.6496582 C23.76106445 323.11114258 23.20547852 323.57262695 22.63305664 324.0480957 C18.55450461 326.7106016 14.95364004 327.52543456 10.11955261 327.54208374 C8.43533958 327.55487869 8.43533958 327.55487869 6.71710205 327.56793213 C5.49464783 327.56702576 4.2721936 327.56611938 3.01269531 327.56518555 C1.71783707 327.57190277 0.42297882 327.57862 -0.91111755 327.58554077 C-4.45671907 327.60317951 -8.002224 327.60789528 -11.54786515 327.60917234 C-13.76562578 327.61059586 -15.98336201 327.61486928 -18.20111656 327.62016678 C-25.94561695 327.63866095 -33.69004857 327.64683828 -41.43457031 327.64526367 C-48.64132902 327.64406286 -55.84778796 327.66515475 -63.05447084 327.696751 C-69.25168726 327.72294832 -75.448806 327.73362951 -81.64607733 327.73235285 C-85.34301944 327.73184417 -89.0396951 327.73747467 -92.7365818 327.75870895 C-96.86333145 327.7817658 -100.98941444 327.77254942 -105.11621094 327.76049805 C-106.33259247 327.77173706 -107.548974 327.78297607 -108.80221558 327.79455566 C-116.64762365 327.73637764 -122.15693618 326.80312211 -128.26928711 321.52856445 C-136.25273693 311.5377154 -135.38118139 300.62794969 -135.41451454 288.23894882 C-135.42179477 286.09354184 -135.43753926 283.94834887 -135.45585632 281.80300903 C-135.50782155 275.7110671 -135.55631828 269.61925902 -135.57177734 263.52709961 C-135.58189977 259.78057012 -135.61131062 256.03460789 -135.65309715 252.28830338 C-135.66533058 250.87150499 -135.67054253 249.45462637 -135.66829872 248.03777695 C-135.65734914 238.87716298 -135.93059015 232.11246862 -142.24584961 225.0324707 C-142.90584961 224.49364258 -143.56584961 223.95481445 -144.24584961 223.3996582 C-144.90584961 222.84536133 -145.56584961 222.29106445 -146.24584961 221.7199707 C-155.89474066 214.74713928 -167.5136922 216.8112758 -176.24584961 224.2746582 Z M-351.24584961 264.2746582 C-351.24584961 290.6746582 -351.24584961 317.0746582 -351.24584961 344.2746582 C-314.28584961 344.2746582 -277.32584961 344.2746582 -239.24584961 344.2746582 C-239.24584961 317.8746582 -239.24584961 291.4746582 -239.24584961 264.2746582 C-276.20584961 264.2746582 -313.16584961 264.2746582 -351.24584961 264.2746582 Z M-223.24584961 264.2746582 C-223.24584961 290.6746582 -223.24584961 317.0746582 -223.24584961 344.2746582 C-207.40584961 344.2746582 -191.56584961 344.2746582 -175.24584961 344.2746582 C-174.92562249 332.71538237 -174.92562249 332.71538237 -174.70874023 321.15551758 C-174.64309605 316.43594502 -174.56566303 311.71873035 -174.41601562 307.00097656 C-174.29604167 303.19466069 -174.23064013 299.3908725 -174.20219994 295.58281136 C-174.18195004 294.13403569 -174.14239688 292.68539127 -174.08281898 291.23769951 C-173.90545892 286.74734031 -173.92559977 282.62185713 -175.24584961 278.2746582 C-177.77381487 275.8189291 -180.09607404 274.4239638 -183.29142761 272.957901 C-186.24584961 271.2746582 -186.24584961 271.2746582 -192.24584961 264.2746582 C-202.47584961 264.2746582 -212.70584961 264.2746582 -223.24584961 264.2746582 Z M-117.24584961 299.2746582 C-118.66626782 302.11549462 -118.56037233 304.12943098 -118.24584961 307.2746582 C-116.0137853 310.12246439 -114.69591962 311.12463486 -111.24584961 312.2746582 C-109.62265019 312.37047519 -107.99581233 312.40956824 -106.36979675 312.4151001 C-104.86206947 312.42366531 -104.86206947 312.42366531 -103.32388306 312.43240356 C-101.67106827 312.43408035 -101.67106827 312.43408035 -99.98486328 312.43579102 C-98.82363449 312.44075592 -97.6624057 312.44572083 -96.46598816 312.45083618 C-92.61525892 312.46546989 -88.76457087 312.4722618 -84.91381836 312.4777832 C-82.91709602 312.4820807 -80.92037368 312.48637872 -78.92365152 312.4907577 C-73.35919894 312.50256851 -67.79475634 312.51010594 -62.2302925 312.5135529 C-55.03944538 312.51803209 -47.8487885 312.53557447 -40.65799922 312.5645535 C-35.0961036 312.58618812 -29.53426143 312.59625814 -23.97232419 312.59759402 C-20.65214625 312.59864086 -17.33218771 312.60597283 -14.01204491 312.62241364 C-10.30622292 312.63945444 -6.60086473 312.63759835 -2.89501953 312.63110352 C-1.7992157 312.6403183 -0.70341187 312.64953308 0.42559814 312.6590271 C5.91955212 312.62884129 10.06250583 312.49574977 14.75415039 309.2746582 C16.1745686 306.43382179 16.06867311 304.41988543 15.75415039 301.2746582 C13.52208608 298.42685202 12.20422041 297.42468154 8.75415039 296.2746582 C7.13095097 296.17884121 5.50411311 296.13974816 3.87809753 296.13421631 C2.87294601 296.12850616 1.86779449 296.12279602 0.83218384 296.11691284 C-0.82063095 296.11523605 -0.82063095 296.11523605 -2.50683594 296.11352539 C-3.66806473 296.10856049 -4.82929352 296.10359558 -6.02571106 296.09848022 C-9.8764403 296.08384651 -13.72712835 296.07705461 -17.57788086 296.0715332 C-19.5746032 296.0672357 -21.57132554 296.06293768 -23.5680477 296.0585587 C-29.13250028 296.04674789 -34.69694288 296.03921046 -40.26140672 296.0357635 C-47.45225384 296.03128432 -54.64291072 296.01374194 -61.8337 295.98476291 C-67.39559562 295.96312829 -72.95743779 295.95305826 -78.51937503 295.95172238 C-81.83955297 295.95067555 -85.15951151 295.94334357 -88.47965431 295.92690277 C-92.1854763 295.90986196 -95.89083449 295.91171806 -99.59667969 295.91821289 C-100.69248352 295.90899811 -101.78828735 295.89978333 -102.91729736 295.89028931 C-108.41125134 295.92047512 -112.55420505 296.05356664 -117.24584961 299.2746582 Z M-335.24584961 360.2746582 C-335.24584961 368.1946582 -335.24584961 376.1146582 -335.24584961 384.2746582 C-331.61584961 384.2746582 -327.98584961 384.2746582 -324.24584961 384.2746582 C-322.40768227 380.65203622 -320.57513271 377.02676253 -318.74584961 373.3996582 C-318.22120117 372.36711914 -317.69655273 371.33458008 -317.15600586 370.27075195 C-316.6597168 369.28461914 -316.16342773 368.29848633 -315.65209961 367.2824707 C-315.19125977 366.37126465 -314.73041992 365.46005859 -314.25561523 364.52124023 C-313.10919603 362.38113696 -313.10919603 362.38113696 -313.24584961 360.2746582 C-320.50584961 360.2746582 -327.76584961 360.2746582 -335.24584961 360.2746582 Z M-127.24584961 376.2746582 C-128.50249939 379.18066081 -129.24584961 381.07070405 -129.24584961 384.2746582 C-127.59584961 384.2746582 -125.94584961 384.2746582 -124.24584961 384.2746582 C-122.04446301 380.47038328 -122.04446301 380.47038328 -121.24584961 376.2746582 C-123.22584961 376.2746582 -125.20584961 376.2746582 -127.24584961 376.2746582 Z M26.75415039 376.2746582 C27.52445161 379.76275011 27.52445161 379.76275011 28.75415039 383.2746582 C29.74415039 383.6046582 30.73415039 383.9346582 31.75415039 384.2746582 C31.42415039 381.9646582 31.09415039 379.6546582 30.75415039 377.2746582 C29.43415039 376.9446582 28.11415039 376.6146582 26.75415039 376.2746582 Z " fill="#000000" transform="translate(391.245849609375,55.725341796875)"/>
<path d="M0 0 C0.66 -0.0103125 1.32 -0.020625 2 -0.03125 C4.97217385 0.75823368 6.09656286 2.10063373 8 4.5 C8.50793457 7.6875 8.50793457 7.6875 8.51757812 11.5 C8.5245874 12.19641602 8.53159668 12.89283203 8.53881836 13.61035156 C8.55639196 15.90730932 8.54477919 18.20303021 8.53125 20.5 C8.53394513 22.09896073 8.53782773 23.69791987 8.54284668 25.296875 C8.54874082 28.64599226 8.54018192 31.99468243 8.52148438 35.34375 C8.49869435 39.63478591 8.51181796 43.92482111 8.53577423 48.21582031 C8.5502348 51.51700366 8.54562515 54.81795011 8.53526306 58.11914062 C8.53259646 59.70117308 8.53586322 61.28322711 8.54518127 62.86523438 C8.55535179 65.07740163 8.5398419 67.287953 8.51757812 69.5 C8.51280457 71.3871875 8.51280457 71.3871875 8.50793457 73.3125 C7.91152758 77.05520109 6.9748465 78.23159929 4 80.5 C2 81.03125 2 81.03125 0 81 C-0.66 81.0103125 -1.32 81.020625 -2 81.03125 C-4.97217385 80.24176632 -6.09656286 78.89936627 -8 76.5 C-8.50793457 73.3125 -8.50793457 73.3125 -8.51757812 69.5 C-8.5245874 68.80358398 -8.53159668 68.10716797 -8.53881836 67.38964844 C-8.55639196 65.09269068 -8.54477919 62.79696979 -8.53125 60.5 C-8.53394513 58.90103927 -8.53782773 57.30208013 -8.54284668 55.703125 C-8.54874082 52.35400774 -8.54018192 49.00531757 -8.52148438 45.65625 C-8.49869435 41.36521409 -8.51181796 37.07517889 -8.53577423 32.78417969 C-8.5502348 29.48299634 -8.54562515 26.18204989 -8.53526306 22.88085938 C-8.53259646 21.29882692 -8.53586322 19.71677289 -8.54518127 18.13476562 C-8.55535179 15.92259837 -8.5398419 13.712047 -8.51757812 11.5 C-8.51439575 10.241875 -8.51121338 8.98375 -8.50793457 7.6875 C-7.72413955 2.76886132 -5.09820141 -0.0796594 0 0 Z " fill="#000000" transform="translate(192,155.5)"/>
<path d="M0 0 C0.66 -0.0103125 1.32 -0.020625 2 -0.03125 C4.97217385 0.75823368 6.09656286 2.10063373 8 4.5 C8.50793457 7.6875 8.50793457 7.6875 8.51757812 11.5 C8.5245874 12.19641602 8.53159668 12.89283203 8.53881836 13.61035156 C8.55639196 15.90730932 8.54477919 18.20303021 8.53125 20.5 C8.53394513 22.09896073 8.53782773 23.69791987 8.54284668 25.296875 C8.54874082 28.64599226 8.54018192 31.99468243 8.52148438 35.34375 C8.49869435 39.63478591 8.51181796 43.92482111 8.53577423 48.21582031 C8.5502348 51.51700366 8.54562515 54.81795011 8.53526306 58.11914062 C8.53259646 59.70117308 8.53586322 61.28322711 8.54518127 62.86523438 C8.55535179 65.07740163 8.5398419 67.287953 8.51757812 69.5 C8.51280457 71.3871875 8.51280457 71.3871875 8.50793457 73.3125 C7.91152758 77.05520109 6.9748465 78.23159929 4 80.5 C2 81.03125 2 81.03125 0 81 C-0.66 81.0103125 -1.32 81.020625 -2 81.03125 C-4.97217385 80.24176632 -6.09656286 78.89936627 -8 76.5 C-8.50793457 73.3125 -8.50793457 73.3125 -8.51757812 69.5 C-8.5245874 68.80358398 -8.53159668 68.10716797 -8.53881836 67.38964844 C-8.55639196 65.09269068 -8.54477919 62.79696979 -8.53125 60.5 C-8.53394513 58.90103927 -8.53782773 57.30208013 -8.54284668 55.703125 C-8.54874082 52.35400774 -8.54018192 49.00531757 -8.52148438 45.65625 C-8.49869435 41.36521409 -8.51181796 37.07517889 -8.53577423 32.78417969 C-8.5502348 29.48299634 -8.54562515 26.18204989 -8.53526306 22.88085938 C-8.53259646 21.29882692 -8.53586322 19.71677289 -8.54518127 18.13476562 C-8.55535179 15.92259837 -8.5398419 13.712047 -8.51757812 11.5 C-8.51439575 10.241875 -8.51121338 8.98375 -8.50793457 7.6875 C-7.72413955 2.76886132 -5.09820141 -0.0796594 0 0 Z " fill="#000000" transform="translate(128,155.5)"/>
<path d="M0 0 C2.35466621 2.29697044 2.95800747 3.67969469 3.38818359 6.9609375 C3.39156738 8.08757812 3.39495117 9.21421875 3.3984375 10.375 C3.40423828 12.22351563 3.40423828 12.22351563 3.41015625 14.109375 C3.39855469 15.39328125 3.38695312 16.6771875 3.375 18 C3.38660156 19.28390625 3.39820313 20.5678125 3.41015625 21.890625 C3.40628906 23.12296875 3.40242188 24.3553125 3.3984375 25.625 C3.39505371 26.75164062 3.39166992 27.87828125 3.38818359 29.0390625 C2.95805365 32.31995304 2.34209121 33.69385749 0 36 C-3.97344161 37.10373378 -6.08999772 37.41543583 -9.875 35.6875 C-12 34 -12 34 -13 32 C-13.2722879 27.38018192 -13.23165738 22.75192597 -13.25 18.125 C-13.270625 16.83207031 -13.29125 15.53914063 -13.3125 14.20703125 C-13.31765625 12.96566406 -13.3228125 11.72429687 -13.328125 10.4453125 C-13.3374707 9.30594238 -13.34681641 8.16657227 -13.35644531 6.99267578 C-12.96198883 3.68086235 -12.34420413 2.33390447 -10 0 C-6.20519658 -1.26493447 -3.87641726 -0.89988258 0 0 Z " fill="#000000" transform="translate(197,338)"/>
<path d="M0 0 C2.35466621 2.29697044 2.95800747 3.67969469 3.38818359 6.9609375 C3.39156738 8.08757812 3.39495117 9.21421875 3.3984375 10.375 C3.40423828 12.22351563 3.40423828 12.22351563 3.41015625 14.109375 C3.39855469 15.39328125 3.38695312 16.6771875 3.375 18 C3.38660156 19.28390625 3.39820313 20.5678125 3.41015625 21.890625 C3.40628906 23.12296875 3.40242188 24.3553125 3.3984375 25.625 C3.39505371 26.75164062 3.39166992 27.87828125 3.38818359 29.0390625 C2.95805365 32.31995304 2.34209121 33.69385749 0 36 C-3.97344161 37.10373378 -6.08999772 37.41543583 -9.875 35.6875 C-12 34 -12 34 -13 32 C-13.2722879 27.38018192 -13.23165738 22.75192597 -13.25 18.125 C-13.270625 16.83207031 -13.29125 15.53914063 -13.3125 14.20703125 C-13.31765625 12.96566406 -13.3228125 11.72429687 -13.328125 10.4453125 C-13.3374707 9.30594238 -13.34681641 8.16657227 -13.35644531 6.99267578 C-12.96198883 3.68086235 -12.34420413 2.33390447 -10 0 C-6.20519658 -1.26493447 -3.87641726 -0.89988258 0 0 Z " fill="#000000" transform="translate(133,338)"/>
</svg>
