<?xml version="1.0" encoding="UTF-8"?>
<svg version="1.1" xmlns="http://www.w3.org/2000/svg" width="512" height="512">
<path d="M0 0 C2.58143093 2.88643414 3.28242484 6.27529001 4.1993866 9.96459961 C4.42082336 10.7725145 4.64226013 11.58042938 4.8704071 12.41282654 C5.57339658 14.98629671 6.24788777 17.5660199 6.9181366 20.14819336 C7.80850183 23.5289493 8.71315039 26.90530525 9.6368866 30.27709961 C9.85852478 31.08619781 10.08016296 31.89529602 10.30851746 32.72891235 C12.23376818 39.48102933 14.90345982 45.48791317 18.4181366 51.58569336 C18.6634613 51.02277588 18.90878601 50.4598584 19.1615448 49.87988281 C21.86299124 43.80742622 24.88470125 40.64686398 30.6681366 37.27319336 C36.67909634 35.77045342 42.28858681 35.52037441 47.7931366 38.64819336 C51.46444289 41.32363924 54.12529833 44.16916511 55.4181366 48.58569336 C56.41768121 55.49683038 56.0272988 61.01125556 52.0978241 66.86694336 C49.80590796 69.21215987 47.1816455 70.84031932 44.4181366 72.58569336 C51.50192364 78.13007085 58.67038249 83.53038052 65.9806366 88.77319336 C75.14780283 95.35053677 84.17307761 102.1083862 93.18132019 108.90112305 C95.22210525 110.43806006 97.26620007 111.97039764 99.31266785 113.49975586 C99.87872742 113.92289062 100.44478699 114.34602539 101.02799988 114.78198242 C102.48474162 115.87036823 103.94166526 116.95851057 105.39860535 118.04663086 C107.4181366 119.58569336 107.4181366 119.58569336 108.4181366 120.58569336 C108.70381834 126.15952659 108.12749854 130.92495556 106.4806366 136.27319336 C106.26173767 136.99522949 106.04283875 137.71726563 105.81730652 138.46118164 C96.77600656 167.0570622 81.30147934 193.42269784 62.4181366 216.58569336 C61.97034851 217.13644531 61.52256042 217.68719727 61.061203 218.25463867 C50.10312244 231.62372549 38.10713964 243.99795075 24.4181366 254.58569336 C23.47325378 255.35913086 22.52837097 256.13256836 21.55485535 256.92944336 C3.40362773 271.50577863 -27.33858811 292.58569336 -51.5818634 292.58569336 C-51.5818634 307.10569336 -51.5818634 321.62569336 -51.5818634 336.58569336 C-48.9418634 336.58569336 -46.3018634 336.58569336 -43.5818634 336.58569336 C-40.04842845 336.96607318 -36.5748069 337.6212507 -33.0818634 338.27319336 C-32.11861145 338.45253418 -31.1553595 338.631875 -30.16291809 338.81665039 C-15.80211527 341.59962231 0.60486333 344.79223217 9.4181366 357.58569336 C10.41965533 360.59024955 10.56204053 362.64597492 10.59513855 365.78808594 C10.60797379 366.8496138 10.62080902 367.91114166 10.6340332 369.00483704 C10.6451136 370.72515388 10.6451136 370.72515388 10.65641785 372.48022461 C10.66448959 373.66033615 10.67256134 374.84044769 10.68087769 376.05632019 C10.69471574 378.5554355 10.70543914 381.05456969 10.71330261 383.55371094 C10.73052156 387.37267895 10.77441272 391.19078275 10.81852722 395.00952148 C10.82865365 397.43724949 10.83716991 399.86498486 10.84391785 402.29272461 C10.86142593 403.43352982 10.87893402 404.57433502 10.89697266 405.74971008 C10.87470323 413.9020437 9.67620445 417.2440853 3.9806366 423.08569336 C-10.31724417 434.07322735 -31.11200835 436.93894473 -48.5818634 438.58569336 C-49.93997131 438.71379395 -49.93997131 438.71379395 -51.32551575 438.84448242 C-60.28661649 439.61840197 -69.21885958 439.82843405 -78.2068634 439.83569336 C-78.96654419 439.8363681 -79.72622498 439.83704285 -80.50892639 439.83773804 C-107.00758132 439.80071424 -144.41359436 439.48065556 -165.1287384 420.29663086 C-168.15569443 416.73263424 -168.83516893 413.81674121 -168.87239075 409.17797852 C-168.88515045 408.09650543 -168.89791016 407.01503235 -168.91105652 405.90078735 C-168.91328217 404.73719696 -168.91550781 403.57360657 -168.9178009 402.37475586 C-168.9277861 400.5734169 -168.9277861 400.5734169 -168.93797302 398.73568726 C-168.94809784 396.1954705 -168.9527901 393.65522715 -168.95246887 391.11499023 C-168.95683899 387.23238187 -168.99315455 383.35091287 -169.03108215 379.46850586 C-169.03695092 376.99975974 -169.04091991 374.53100823 -169.0428009 372.06225586 C-169.05717194 370.90271393 -169.07154297 369.743172 -169.08634949 368.54849243 C-169.04354909 360.98220862 -168.25623863 357.26841944 -162.8631134 351.86303711 C-147.62134637 340.39828691 -125.23591543 336.58569336 -106.5818634 336.58569336 C-106.9118634 322.72569336 -107.2418634 308.86569336 -107.5818634 294.58569336 C-110.9437384 293.78131836 -114.3056134 292.97694336 -117.7693634 292.14819336 C-146.68719455 284.80408065 -172.03842487 269.8494586 -194.5818634 250.58569336 C-195.33080872 249.94889648 -196.07975403 249.31209961 -196.85139465 248.65600586 C-210.34388283 236.84145914 -223.03029913 224.10615616 -233.5818634 209.58569336 C-234.00902649 209.00867676 -234.43618958 208.43166016 -234.876297 207.8371582 C-251.46829176 185.42406136 -264.20727825 161.22166533 -272.5818634 134.58569336 C-272.81872864 133.84303223 -273.05559387 133.10037109 -273.29963684 132.33520508 C-274.62965496 127.72440185 -275.12346401 124.16330334 -273.5818634 119.58569336 C-271.07834387 116.97363071 -268.19971219 115.03792581 -265.2068634 113.02319336 C-263.45908164 111.79327286 -261.71169658 110.56278845 -259.9646759 109.33178711 C-258.61937805 108.39955322 -258.61937805 108.39955322 -257.24690247 107.44848633 C-253.13318961 104.57310806 -249.11083954 101.57802072 -245.0818634 98.58569336 C-243.51070758 97.42751867 -241.93909046 96.26996952 -240.36701965 95.11303711 C-237.08074431 92.69182045 -233.79728985 90.26683426 -230.51545715 87.83959961 C-214.46378538 75.97538808 -214.46378538 75.97538808 -206.5818634 70.58569336 C-207.21414856 69.66336914 -207.21414856 69.66336914 -207.85920715 68.72241211 C-208.40705872 67.91416992 -208.95491028 67.10592773 -209.5193634 66.27319336 C-210.06463684 65.47268555 -210.60991028 64.67217773 -211.17170715 63.84741211 C-214.04083835 59.24567536 -214.06094297 54.84652938 -213.5818634 49.58569336 C-211.76789741 44.14379537 -208.19923702 40.80736086 -203.5818634 37.58569336 C-197.73114516 35.63545394 -191.73417423 35.68609996 -186.1443634 38.39819336 C-183.52581695 39.82500051 -181.65821624 41.46062204 -179.5818634 43.58569336 C-178.83488299 41.16440186 -178.09006231 38.74247158 -177.3474884 36.31982422 C-176.70804572 34.23393729 -176.06608665 32.14882024 -175.42170715 30.06445312 C-173.91627687 25.1533632 -172.4616095 20.25399728 -171.24983215 15.26147461 C-171.04962463 14.45693848 -170.84941711 13.65240234 -170.6431427 12.82348633 C-170.28037898 11.33677045 -169.93790497 9.84489105 -169.62019348 8.34790039 C-168.2154217 2.67605824 -165.37351506 -0.1719601 -160.5818634 -3.41430664 C-129.61127813 -20.49982825 -28.01265937 -23.91398563 0 0 Z M-127.5818634 0.96069336 C-128.61375793 1.07445312 -129.64565247 1.18821289 -130.70881653 1.30541992 C-137.83076862 2.17536521 -144.66131361 3.70370874 -151.5818634 5.58569336 C-133.12374008 15.23842469 -105.63356628 12.93685857 -85.51521301 12.90136719 C-81.78387723 12.89820566 -78.05333656 12.92178226 -74.32209778 12.94702148 C-54.27058725 12.99929121 -33.99723073 12.02817207 -14.5818634 6.58569336 C-32.74999685 -11.58244009 -105.18063487 -1.52188378 -127.5818634 0.96069336 Z M-158.5818634 15.58569336 C-158.87319153 16.53186523 -159.16451965 17.47803711 -159.4646759 18.45288086 C-160.57389024 22.04186672 -161.70095438 25.62504747 -162.83332825 29.20678711 C-163.33027594 30.78612772 -163.82283006 32.36685786 -164.31086731 33.94897461 C-167.1557583 43.15337041 -169.95835463 51.64041421 -175.5818634 59.58569336 C-176.07299622 60.2959668 -176.56412903 61.00624023 -177.07014465 61.73803711 C-178.2176409 63.37039093 -179.39585935 64.98109964 -180.5818634 66.58569336 C-179.94119934 66.55088867 -179.30053528 66.51608398 -178.64045715 66.48022461 C-171.59957812 66.25986923 -166.89294899 66.90102937 -161.2693634 71.46069336 C-157.6964222 75.95995265 -157.09146493 79.89707103 -157.5818634 85.58569336 C-159.14581028 90.19933666 -160.7756175 93.49311856 -164.5818634 96.58569336 C-170.23132478 98.46884715 -177.07211215 98.76796241 -182.5193634 96.08569336 C-186.30919037 92.99195706 -188.36146147 90.34526092 -189.5818634 85.58569336 C-189.76444766 80.13306361 -188.72885633 75.58055707 -186.5818634 70.58569336 C-192.46238662 74.25473776 -197.97283711 78.35859355 -203.4568634 82.58569336 C-211.92718277 89.11417441 -220.51479615 95.47065845 -229.13948059 101.79321289 C-232.4712579 104.23842571 -235.79659498 106.69232652 -239.12214661 109.14599609 C-246.58829453 114.65427177 -254.06509677 120.1465948 -261.5818634 125.58569336 C-260.97963553 131.76913163 -259.16267568 137.20995716 -257.0193634 143.02319336 C-256.66366272 143.99313232 -256.30796204 144.96307129 -255.94148254 145.96240234 C-252.97823981 153.86503495 -249.52492778 161.37622779 -245.53450012 168.80688477 C-244.60635515 170.5399612 -243.70503454 172.28731949 -242.80451965 174.03491211 C-228.86966501 200.73548393 -208.3559449 225.08732096 -184.5818634 243.58569336 C-183.6228009 244.36170898 -182.6637384 245.13772461 -181.6756134 245.93725586 C-161.15890803 262.25736241 -138.05956091 275.03813269 -112.5818634 281.58569336 C-111.56358459 281.850354 -111.56358459 281.850354 -110.5247345 282.12036133 C-78.80313499 289.95947323 -45.59889131 282.68519453 -17.31282043 267.51000977 C-15.78717633 266.69532873 -14.246114 265.90966279 -12.70295715 265.12866211 C3.09477108 256.95904706 17.013621 245.63529028 30.08610535 233.69506836 C32.16112434 231.81816676 34.2779072 230.01208884 36.4181366 228.21069336 C56.66874683 210.42572628 72.20384583 185.87620123 83.4181366 161.58569336 C83.72058289 160.94067871 84.02302917 160.29566406 84.3346405 159.63110352 C92.65733079 143.16271139 92.65733079 143.16271139 96.4181366 125.58569336 C95.02110637 124.301129 95.02110637 124.301129 93.14860535 123.03881836 C92.43454529 122.5310083 91.72048523 122.02319824 90.98478699 121.5 C90.19966736 120.95077881 89.41454773 120.40155762 88.6056366 119.83569336 C86.94093182 118.65300313 85.27688997 117.46937934 83.6134491 116.28491211 C82.75138855 115.67309082 81.889328 115.06126953 81.00114441 114.4309082 C76.96272492 111.54599568 72.97082895 108.59927746 68.9806366 105.64819336 C68.20325134 105.07431885 67.42586609 104.50044434 66.62492371 103.90917969 C65.03702847 102.73690913 63.44938339 101.56429966 61.86198425 100.39135742 C57.63242411 97.26629979 53.40049999 94.14445285 49.1681366 91.02319336 C48.39413513 90.45157471 47.62013367 89.87995605 46.82267761 89.29101562 C44.69072804 87.71857168 42.55586517 86.15027021 40.4181366 84.58569336 C39.3962323 83.83763428 39.3962323 83.83763428 38.35368347 83.07446289 C35.63033985 80.67995385 35.63033985 80.67995385 32.4181366 79.58569336 C32.28858582 80.5640918 32.28858582 80.5640918 32.15641785 81.56225586 C31.16610787 87.72216565 30.17955028 91.43211972 25.4181366 95.58569336 C19.99836065 98.5428915 15.35459692 99.0718723 9.42985535 97.38647461 C5.85736851 95.96441674 3.35479761 94.08170317 1.31266785 90.82006836 C-0.4992894 86.29413148 -0.1062099 81.36236209 0.4181366 76.58569336 C3.06206312 71.20341437 6.08971796 68.43646171 11.6681366 66.39819336 C12.5756366 66.13006836 13.4831366 65.86194336 14.4181366 65.58569336 C13.8902655 64.96307617 13.8902655 64.96307617 13.35173035 64.32788086 C1.92232457 50.06350499 -1.99337008 32.8720736 -6.5818634 15.58569336 C-7.98371887 15.96661133 -7.98371887 15.96661133 -9.41389465 16.35522461 C-17.04457782 18.37464799 -24.6558391 20.05294318 -32.4568634 21.27319336 C-33.21587952 21.39218994 -33.97489563 21.51118652 -34.75691223 21.63378906 C-44.00436378 23.02265915 -53.12434448 23.74176654 -62.47639465 23.75366211 C-64.00311043 23.75994629 -64.00311043 23.75994629 -65.56066895 23.76635742 C-68.83860699 23.77608438 -72.11641338 23.77615515 -75.3943634 23.77319336 C-76.51246399 23.77292145 -77.63056458 23.77264954 -78.782547 23.77236938 C-135.65322873 23.70865187 -135.65322873 23.70865187 -158.5818634 15.58569336 Z M-200.5818634 49.58569336 C-201.98121354 52.38439363 -201.83451745 54.49068128 -201.5818634 57.58569336 C-200.14408659 59.67046974 -198.98388101 60.39808514 -196.7068634 61.46069336 C-193.4714423 61.65101225 -192.03445021 60.64056339 -189.5818634 58.58569336 C-188.33509334 55.68862629 -188.33509334 55.68862629 -188.5818634 52.58569336 C-190.37119106 50.13365176 -191.80932715 48.92367797 -194.5818634 47.71069336 C-197.15357287 47.54996152 -198.44455628 48.18538869 -200.5818634 49.58569336 Z M33.7306366 49.21069336 C31.17451892 51.41075713 31.17451892 51.41075713 30.7931366 54.58569336 C31.19889202 57.73189958 31.19889202 57.73189958 33.5431366 60.08569336 C36.36417298 61.9291532 36.36417298 61.9291532 39.6056366 61.02319336 C42.66121138 59.75022046 42.66121138 59.75022046 44.4181366 56.58569336 C44.27118625 53.05888516 44.07293257 51.24048933 41.5431366 48.71069336 C38.2547542 46.96978503 36.88496662 47.30342404 33.7306366 49.21069336 Z M-176.5818634 77.58569336 C-178.8782412 80.34464971 -178.8782412 80.34464971 -178.3318634 83.14819336 C-177.74378288 85.73569903 -177.74378288 85.73569903 -175.5818634 87.58569336 C-172.48259521 87.2637037 -172.48259521 87.2637037 -169.5818634 86.58569336 C-168.90512893 83.18248402 -168.90512893 83.18248402 -168.5818634 79.58569336 C-170.46846215 77.27906737 -170.46846215 77.27906737 -173.5818634 77.27319336 C-174.5718634 77.37631836 -175.5618634 77.47944336 -176.5818634 77.58569336 Z M11.5431366 78.77319336 C10.16636063 80.59493591 10.16636063 80.59493591 10.6056366 83.14819336 C11.26440692 85.73010608 11.26440692 85.73010608 13.4181366 87.58569336 C17.24378325 87.39812274 17.24378325 87.39812274 20.4181366 85.58569336 C20.66819045 82.62752229 20.66819045 82.62752229 20.4181366 79.58569336 C18.59610079 77.35602589 18.59610079 77.35602589 15.9806366 77.27319336 C13.41443645 77.4002668 13.41443645 77.4002668 11.5431366 78.77319336 Z M-94.5818634 295.58569336 C-94.5818634 316.04569336 -94.5818634 336.50569336 -94.5818634 357.58569336 C-86.80110997 358.45363268 -86.80110997 358.45363268 -79.0818634 358.71069336 C-78.0609259 358.71327148 -77.0399884 358.71584961 -75.9881134 358.71850586 C-71.83864602 358.5567147 -67.70908524 358.04427356 -63.5818634 357.58569336 C-63.5818634 336.79569336 -63.5818634 316.00569336 -63.5818634 294.58569336 C-73.92057168 294.58569336 -84.24889407 295.24126105 -94.5818634 295.58569336 Z M-156.5818634 361.58569336 C-156.70400234 363.92717567 -156.70400234 363.92717567 -155.5818634 366.58569336 C-148.66729046 372.2302427 -140.05491753 374.28725094 -131.5818634 376.58569336 C-130.47971497 376.88604492 -129.37756653 377.18639648 -128.24201965 377.49584961 C-93.28987712 385.92673005 -37.27331687 387.96220743 -5.2537384 368.57006836 C-2.45989339 366.86276915 -2.45989339 366.86276915 -1.7068634 364.33569336 C-1.6656134 363.75819336 -1.6243634 363.18069336 -1.5818634 362.58569336 C-13.18219264 350.64417797 -35.76587445 348.93369454 -51.5818634 347.58569336 C-51.64244934 348.86186523 -51.70303528 350.13803711 -51.76545715 351.45288086 C-51.84985909 353.12216351 -51.93450726 354.79143373 -52.0193634 356.46069336 C-52.05867981 357.30245117 -52.09799622 358.14420898 -52.13850403 359.01147461 C-52.18039856 359.81713867 -52.22229309 360.62280273 -52.26545715 361.45288086 C-52.30211487 362.19650879 -52.33877258 362.94013672 -52.37654114 363.70629883 C-52.5818634 365.58569336 -52.5818634 365.58569336 -53.5818634 367.58569336 C-56.39182933 368.52234867 -58.09964849 368.71213778 -61.00569153 368.71508789 C-61.8967157 368.71824005 -62.78773987 368.72139221 -63.70576477 368.72463989 C-64.66518982 368.72261566 -65.62461487 368.72059143 -66.6131134 368.71850586 C-67.60057556 368.71946259 -68.58803772 368.72041931 -69.60542297 368.72140503 C-71.69343632 368.72208561 -73.78145178 368.72023983 -75.86946106 368.71606445 C-79.06921634 368.71071451 -82.26883125 368.71601359 -85.46858215 368.72241211 C-87.49592621 368.72175131 -89.52327019 368.7204701 -91.5506134 368.71850586 C-92.51003845 368.72053009 -93.4694635 368.72255432 -94.45796204 368.72463989 C-95.34898621 368.72148773 -96.24001038 368.71833557 -97.15803528 368.71508789 C-97.941745 368.7142923 -98.72545471 368.7134967 -99.53291321 368.712677 C-101.5818634 368.58569336 -101.5818634 368.58569336 -104.5818634 367.58569336 C-105.70010156 365.34921705 -105.77582402 363.93677807 -105.89826965 361.45288086 C-105.94016418 360.6472168 -105.98205872 359.84155273 -106.02522278 359.01147461 C-106.06453918 358.1697168 -106.10385559 357.32795898 -106.1443634 356.46069336 C-106.187547 355.61120117 -106.23073059 354.76170898 -106.27522278 353.88647461 C-106.38140576 351.78641113 -106.48214837 349.68607388 -106.5818634 347.58569336 C-122.68614353 347.58569336 -143.41133293 351.98218155 -156.5818634 361.58569336 Z M-157.5818634 379.58569336 C-157.70586376 383.90891797 -157.79638596 388.23118938 -157.85652161 392.55566406 C-157.88159984 394.02524861 -157.91567196 395.49470923 -157.95906067 396.96386719 C-158.02001839 399.08161017 -158.04813656 401.19769912 -158.07014465 403.31616211 C-158.09632874 404.5887085 -158.12251282 405.86125488 -158.14949036 407.17236328 C-157.43365082 411.47694501 -155.91048875 412.86735742 -152.5818634 415.58569336 C-119.08797741 436.2879445 -61.44193619 431.3151744 -24.97444153 422.99047852 C-11.06747222 419.5170166 -11.06747222 419.5170166 -0.5818634 410.58569336 C-0.3044069 407.28541696 -0.3044069 407.28541696 -0.3865509 403.51147461 C-0.3893808 402.82764206 -0.39221069 402.14380951 -0.39512634 401.43925476 C-0.40630657 399.25872171 -0.43140649 397.07860191 -0.4568634 394.89819336 C-0.46689603 393.41838159 -0.47602139 391.93856337 -0.48420715 390.45874023 C-0.50623859 386.83425736 -0.54075339 383.2100157 -0.5818634 379.58569336 C-3.6222208 380.59042511 -6.64239261 381.6084208 -9.64045715 382.73413086 C-55.85495453 399.51026054 -111.72418996 394.87158451 -157.5818634 379.58569336 Z " fill="#000000" transform="translate(402.5818634033203,42.414306640625)"/>
<path d="M0 0 C0.9106723 -0.01942154 1.8213446 -0.03884308 2.75961304 -0.05885315 C11.18816103 -0.22791891 19.61800286 -0.32440293 28.04785824 -0.39992237 C33.7120025 -0.45127003 39.37370328 -0.52562236 45.03662109 -0.65625 C50.51047573 -0.78203095 55.98212732 -0.84832124 61.45733833 -0.87351036 C63.53990131 -0.89309162 65.62238094 -0.93343859 67.70411491 -0.99537086 C84.84076431 -1.48128695 84.84076431 -1.48128695 89.73245239 2.8487854 C92.37937617 5.7281075 94.34087875 8.93734767 96.32446289 12.30395508 C97.80474753 14.29791047 99.30231397 16.27927177 100.82446289 18.24145508 C101.54633789 19.21985352 102.26821289 20.19825195 103.01196289 21.20629883 C104.67412188 23.43280571 106.35381435 25.62769418 108.07446289 27.80786133 C108.53272461 28.39124268 108.99098633 28.97462402 109.46313477 29.57568359 C110.34983999 30.70139849 111.24153642 31.82320543 112.13891602 32.94042969 C116.36947681 38.33303657 116.36947681 38.33303657 116.32446289 41.30395508 C113.49894065 47.30173466 109.36754283 52.32004442 105.26196289 57.49145508 C104.02087109 59.06811556 102.77997868 60.64493301 101.53930664 62.22192383 C100.72127563 63.25482544 100.72127563 63.25482544 99.88671875 64.30859375 C98.33778756 66.28693639 96.82487518 68.28864844 95.32446289 70.30395508 C96.23623291 70.27140625 97.14800293 70.23885742 98.08740234 70.20532227 C125.75735975 69.45440338 125.75735975 69.45440338 131.58227539 73.65551758 C134.43467342 76.47430228 136.34795308 79.82984338 138.32446289 83.30395508 C139.91757645 85.28831483 141.54184058 87.24815661 143.19946289 89.17895508 C143.87750977 90.02200195 144.55555664 90.86504883 145.25415039 91.73364258 C147.2619408 94.38885228 147.2619408 94.38885228 149.91455078 96.51367188 C154.1866408 101.68720668 153.01690073 109.16393849 152.95336914 115.51879883 C152.95419871 117.01803255 152.95666143 118.51726618 152.9606781 120.01649475 C152.96353061 123.15287783 152.94889173 126.28854465 152.92138672 129.42480469 C152.88733325 133.43081402 152.89331691 137.43554088 152.91204929 141.44161129 C152.92265563 144.53620453 152.91364832 147.63050315 152.89866447 150.72506905 C152.89350676 152.20134161 152.893935 153.67764526 152.90020943 155.1539135 C152.93839682 169.53850049 152.93839682 169.53850049 148.32446289 175.30395508 C142.3409959 180.04086644 137.7704832 180.45289714 130.34246826 180.44439697 C129.12686812 180.44885366 129.12686812 180.44885366 127.88671041 180.45340037 C125.16770861 180.4620808 122.44875088 180.46359507 119.72973633 180.46508789 C117.78155931 180.46971654 115.83338319 180.47474126 113.88520813 180.48013306 C108.58962253 180.49325478 103.2940496 180.4997016 97.99845028 180.50414371 C94.6897127 180.50707487 91.38097858 180.51117977 88.07224274 180.51564789 C77.71922152 180.52932237 67.36620821 180.53898921 57.01317859 180.54284978 C45.06358173 180.54733021 33.11409927 180.5648777 21.16453719 180.59385037 C11.92703827 180.61546969 2.68957154 180.6255542 -6.54795241 180.6268909 C-12.06466936 180.62793876 -17.58127875 180.63384276 -23.09796906 180.65171051 C-28.28869051 180.66819538 -33.47922362 180.67034461 -38.66996193 180.6615715 C-40.57265286 180.66080135 -42.47535394 180.66514098 -44.37801933 180.67502975 C-46.9807722 180.68776126 -49.58285918 180.68186602 -52.18560791 180.67144775 C-53.30800916 180.68353236 -53.30800916 180.68353236 -54.45308518 180.6958611 C-60.07448921 180.6434394 -65.97310513 179.80610118 -70.24369168 175.85202146 C-74.09607013 171.32101629 -74.81326381 168.68399228 -74.96362305 162.84155273 C-74.98143829 162.17778625 -74.99925354 161.51401978 -75.01760864 160.83013916 C-75.17259186 154.68140808 -75.25967303 148.53108775 -75.32760239 142.38083839 C-75.37363753 138.25466014 -75.44068806 134.13134885 -75.56030273 130.0065918 C-75.67576507 126.00984471 -75.7356155 122.01566021 -75.75812531 118.01734543 C-75.77576741 116.50298089 -75.81230019 114.98870039 -75.869133 113.47529984 C-76.13445101 106.05439495 -75.97708143 100.02947621 -70.90045547 94.18997765 C-68.58529256 91.7951734 -66.12121545 89.56423226 -63.67553711 87.30395508 C-61.97622621 85.3740046 -60.39518935 83.38665508 -58.80053711 81.36645508 C-57.44763816 79.66118511 -56.07295082 77.97294165 -54.67553711 76.30395508 C-53.96228271 75.44253906 -53.24902832 74.58112305 -52.51416016 73.69360352 C-48.88641404 70.63964471 -46.88337466 70.65305274 -42.18725586 70.59692383 C-41.48405716 70.58180252 -40.78085846 70.56668121 -40.05635071 70.55110168 C-37.82491708 70.50834013 -35.59483902 70.49939915 -33.36303711 70.49145508 C-31.84412115 70.46830137 -30.32523722 70.44293419 -28.80639648 70.4152832 C-25.09613578 70.35254901 -21.38632626 70.32012064 -17.67553711 70.30395508 C-18.5456543 69.24990479 -18.5456543 69.24990479 -19.43334961 68.17456055 C-23.95867752 62.67191863 -28.43606781 57.15531071 -32.67553711 51.42895508 C-33.15120117 50.80504883 -33.62686523 50.18114258 -34.11694336 49.53833008 C-38.77692386 43.24536496 -38.77692386 43.24536496 -38.67553711 39.30395508 C-37.44166053 37.05710054 -36.24795338 35.29525982 -34.67553711 33.30395508 C-34.19068848 32.66458008 -33.70583984 32.02520508 -33.20629883 31.36645508 C-31.52653082 29.16442353 -29.82270469 26.98284256 -28.11303711 24.80395508 C-27.50113525 24.02093018 -26.8892334 23.23790527 -26.25878906 22.43115234 C-24.39986094 20.05372304 -22.53788906 17.6787028 -20.67553711 15.30395508 C-19.56607111 13.88605753 -18.45669107 12.46809271 -17.34741211 11.05004883 C-16.3528418 9.78034416 -15.35806264 8.51080304 -14.36303711 7.24145508 C-13.6706897 6.35780273 -13.6706897 6.35780273 -12.96435547 5.45629883 C-8.69122086 0.0191006 -6.82685477 0.11985891 0 0 Z M2.32446289 11.30395508 C4.50389668 20.39707547 4.50389668 20.39707547 7.32446289 29.30395508 C13.63443684 24.22854125 19.09690749 18.47815029 24.32446289 12.30395508 C24.32446289 11.97395508 24.32446289 11.64395508 24.32446289 11.30395508 C17.06446289 11.30395508 9.80446289 11.30395508 2.32446289 11.30395508 Z M52.32446289 11.30395508 C56.18837097 15.81184784 59.98519641 20.10162537 64.19946289 24.24145508 C64.69704102 24.73452148 65.19461914 25.22758789 65.70727539 25.7355957 C66.91066574 26.92741499 68.11721654 28.11604186 69.32446289 29.30395508 C71.60967208 25.8761413 72.45813764 22.54698009 73.44946289 18.61645508 C74.06821289 16.20333008 74.68696289 13.79020508 75.32446289 11.30395508 C67.73446289 11.30395508 60.14446289 11.30395508 52.32446289 11.30395508 Z M38.32446289 14.30395508 C35.33718192 17.23329982 32.36108587 20.1737568 29.38696289 23.11645508 C28.53682617 23.94983398 27.68668945 24.78321289 26.81079102 25.6418457 C26.0019043 26.44428711 25.19301758 27.24672852 24.35961914 28.07348633 C23.61075439 28.81187744 22.86188965 29.55026855 22.09033203 30.31103516 C20.11527085 32.27741439 20.11527085 32.27741439 19.32446289 35.30395508 C32.19446289 35.30395508 45.06446289 35.30395508 58.32446289 35.30395508 C53.07896818 29.17788203 53.07896818 29.17788203 47.76196289 23.11645508 C47.03879883 22.29790039 46.31563477 21.4793457 45.57055664 20.63598633 C43.30181718 18.28044292 40.92008204 16.28830363 38.32446289 14.30395508 Z M-8.67553711 19.30395508 C-10.30549013 21.21659368 -11.92953226 23.1337565 -13.55053711 25.05395508 C-14.01073242 25.5927832 -14.47092773 26.13161133 -14.94506836 26.68676758 C-17.31844526 29.50730245 -19.01135388 31.97558862 -20.67553711 35.30395508 C-14.73553711 35.30395508 -8.79553711 35.30395508 -2.67553711 35.30395508 C-3.29428711 32.84958008 -3.91303711 30.39520508 -4.55053711 27.86645508 C-4.74115723 27.09245361 -4.93177734 26.31845215 -5.12817383 25.52099609 C-5.58383727 23.76526935 -6.12778664 22.03316732 -6.67553711 20.30395508 C-7.33553711 19.97395508 -7.99553711 19.64395508 -8.67553711 19.30395508 Z M84.32446289 19.30395508 C83.00446289 24.58395508 81.68446289 29.86395508 80.32446289 35.30395508 C86.26446289 35.30395508 92.20446289 35.30395508 98.32446289 35.30395508 C96.90164984 33.40687101 95.4781635 31.51028763 94.05102539 29.61645508 C92.90739683 28.08471727 91.77692655 26.54305951 90.66040039 24.99145508 C90.13704102 24.26958008 89.61368164 23.54770508 89.07446289 22.80395508 C88.59493164 22.13364258 88.11540039 21.46333008 87.62133789 20.77270508 C87.19336914 20.28801758 86.76540039 19.80333008 86.32446289 19.30395508 C85.66446289 19.30395508 85.00446289 19.30395508 84.32446289 19.30395508 Z M-20.67553711 46.30395508 C-15.93749707 53.76216423 -10.57315616 60.61280594 -5.08374023 67.52075195 C-2.92000256 70.26068606 -0.79701368 73.03125231 1.32446289 75.80395508 C6.60020984 82.68278269 11.95645803 89.49699834 17.32446289 96.30395508 C18.48903636 92.81023466 18.1410805 92.10173668 16.89331055 88.7565918 C16.55610992 87.83909149 16.2189093 86.92159119 15.87149048 85.97628784 C15.497612 84.9887149 15.12373352 84.00114197 14.73852539 82.98364258 C14.36214935 81.96924103 13.98577332 80.95483948 13.59799194 79.90969849 C12.80019344 77.76460511 11.99795614 75.6211582 11.19165039 73.47924805 C9.95308169 70.18856964 8.72743948 66.89330902 7.50415039 63.59692383 C6.72885768 61.51721739 5.95284059 59.43778082 5.17602539 57.35864258 C4.80619537 56.36702118 4.43636536 55.37539978 4.05532837 54.35372925 C3.54007095 52.98693527 3.54007095 52.98693527 3.0144043 51.5925293 C2.56020615 50.38365555 2.56020615 50.38365555 2.09683228 49.15036011 C1.4693759 47.32238291 1.4693759 47.32238291 0.32446289 46.30395508 C-1.23726456 46.21709905 -2.80283055 46.19693288 -4.36694336 46.20629883 C-5.31118164 46.20952148 -6.25541992 46.21274414 -7.22827148 46.21606445 C-8.71810547 46.22863281 -8.71810547 46.22863281 -10.23803711 46.24145508 C-11.23512695 46.2459668 -12.2322168 46.25047852 -13.25952148 46.25512695 C-15.7315856 46.26695501 -18.20353229 46.28343659 -20.67553711 46.30395508 Z M13.32446289 46.30395508 C15.35091542 53.05879684 17.4581235 59.65093551 19.89868164 66.24926758 C20.39172539 67.59310013 20.39172539 67.59310013 20.89472961 68.96408081 C21.93105102 71.78672774 22.97143002 74.60785831 24.01196289 77.42895508 C24.72121777 79.35854317 25.43020457 81.28822982 26.13891602 83.21801758 C27.8643387 87.91447367 29.59339856 92.60957567 31.32446289 97.30395508 C35.94446289 97.30395508 40.56446289 97.30395508 45.32446289 97.30395508 C48.14570889 91.11059651 50.67526937 84.88735592 52.99633789 78.49145508 C53.32361877 77.59652344 53.65089966 76.7015918 53.98809814 75.77954102 C54.67185607 73.90785035 55.35411145 72.03561015 56.03491211 70.1628418 C57.08217643 67.28274193 58.13459612 64.40456431 59.18774414 61.52661133 C59.85340885 59.70250207 60.51878411 57.87828716 61.18383789 56.05395508 C61.49939636 55.1905249 61.81495483 54.32709473 62.14007568 53.4375 C63.64844674 49.95173412 63.64844674 49.95173412 64.32446289 46.30395508 C47.49446289 46.30395508 30.66446289 46.30395508 13.32446289 46.30395508 Z M76.32446289 46.30395508 C73.73298578 53.24212021 71.15141443 60.18385728 68.57910156 67.12915039 C67.7019597 69.49312494 66.82208164 71.85608607 65.93945312 74.21801758 C64.67392005 77.6060365 63.41815471 80.99753478 62.16430664 84.38989258 C61.76541733 85.45138519 61.36652802 86.51287781 60.95555115 87.60653687 C60.41487755 89.07783554 60.41487755 89.07783554 59.86328125 90.57885742 C59.54129257 91.44489594 59.21930389 92.31093445 58.88755798 93.20321655 C58.06586685 95.33971109 58.06586685 95.33971109 59.32446289 97.30395508 C65.83583954 89.21507997 72.29762307 81.09874134 78.60180664 72.84692383 C80.70032134 70.10553462 82.82326824 67.38415102 84.95336914 64.66723633 C85.5832373 63.86261963 86.21310547 63.05800293 86.86206055 62.22900391 C88.10299781 60.64506278 89.34607044 59.06279165 90.59155273 57.48242188 C91.16212402 56.75321533 91.73269531 56.02400879 92.32055664 55.27270508 C93.08130493 54.30494141 93.08130493 54.30494141 93.85742188 53.31762695 C95.48957493 51.07732101 96.89838179 48.68075692 98.32446289 46.30395508 C91.06446289 46.30395508 83.80446289 46.30395508 76.32446289 46.30395508 Z M-55.67553711 95.30395508 C-55.67553711 95.96395508 -55.67553711 96.62395508 -55.67553711 97.30395508 C-36.20553711 97.30395508 -16.73553711 97.30395508 3.32446289 97.30395508 C-2.27548535 87.18863177 -2.27548535 87.18863177 -11.35742188 81.41650391 C-12.7755816 81.33014816 -14.19628735 81.28024353 -15.61694336 81.26098633 C-16.38046616 81.23864426 -17.14398895 81.21630219 -17.9306488 81.19328308 C-19.54497324 81.1586163 -21.15972035 81.14026608 -22.77441406 81.13720703 C-25.21309746 81.11666515 -27.63296121 80.99527263 -30.06811523 80.8684082 C-42.69101757 80.5618019 -48.77118683 84.83529899 -55.67553711 95.30395508 Z M74.32446289 96.30395508 C74.32446289 96.63395508 74.32446289 96.96395508 74.32446289 97.30395508 C93.79446289 97.30395508 113.26446289 97.30395508 133.32446289 97.30395508 C132.00446289 95.32395508 130.68446289 93.34395508 129.32446289 91.30395508 C128.82470947 90.47758545 128.32495605 89.65121582 127.81005859 88.79980469 C124.82470749 84.60234263 122.5608974 82.60799635 117.48217773 81.35913086 C113.63446334 80.88589128 109.81763625 80.81331591 105.94433594 80.85595703 C103.51889984 80.86642514 101.1195343 80.75460431 98.69750977 80.6340332 C85.78764484 80.38598064 80.57090212 85.31032561 74.32446289 96.30395508 Z M-63.67553711 108.30395508 C-63.67553711 127.11395508 -63.67553711 145.92395508 -63.67553711 165.30395508 C-60.39620639 168.5832858 -59.50829294 168.65641729 -55.09382963 168.70984739 C-54.3303158 168.70383735 -53.56680198 168.6978273 -52.78015137 168.69163513 C-51.96707787 168.69702067 -51.15400437 168.70240621 -50.31629229 168.70795494 C-47.58237252 168.72230216 -44.84893234 168.71511428 -42.11499023 168.70800781 C-40.1588451 168.71370781 -38.2027033 168.72067063 -36.24656677 168.72880554 C-30.92641701 168.74679196 -25.60643168 168.74555841 -20.2862606 168.73986316 C-15.85006975 168.73677954 -11.41391087 168.74285444 -6.97772455 168.7489019 C3.48419684 168.76296322 13.94603661 168.76137218 24.40795898 168.75 C35.21382773 168.73851378 46.01944843 168.75259935 56.82528448 168.77939647 C66.09242427 168.80152039 75.359486 168.80819843 84.62665033 168.80232006 C90.1661539 168.79894176 95.7054984 168.80142347 101.24497986 168.81857109 C106.45215872 168.83398576 111.65896874 168.83014582 116.86613274 168.81126595 C118.78059249 168.80756499 120.69507926 168.81073208 122.60951424 168.82115173 C125.21646653 168.83426067 127.82217938 168.82290505 130.42907715 168.80516052 C131.19259098 168.81476553 131.9561048 168.82437054 132.74275541 168.8342666 C135.09127241 168.84661505 135.09127241 168.84661505 138.32446289 168.30395508 C150.33945353 152.28396756 141.32446289 128.32893947 141.32446289 108.30395508 C73.67446289 108.30395508 6.02446289 108.30395508 -63.67553711 108.30395508 Z " fill="#000000" transform="translate(75.675537109375,286.696044921875)"/>
<path d="M0 0 C4.49728354 3.14809848 7.17544688 6.32862369 10 11 C10.97839844 10.83951172 10.97839844 10.83951172 11.9765625 10.67578125 C17.5551978 9.91057021 21.20938743 9.57813388 26 13 C28.375 15.6875 28.375 15.6875 30 18 C30.78375 17.34 31.5675 16.68 32.375 16 C36.66000691 13.15686745 41.03333331 13.20856368 46 14 C49.79853672 15.7956719 51.52011124 17.29616315 53.875 20.75 C55.2361704 24.68227005 55.74677599 27.88862888 55 32 C52.96960499 35.84324769 50.8819364 38.95120023 47 41 C40.06629834 42.53314917 40.06629834 42.53314917 37 41 C37.350625 41.66 37.70125 42.32 38.0625 43 C39.51568633 47.65019625 39.16564429 51.69571477 36.98828125 56 C34.52618018 59.72810257 32.47640476 61.84892449 28 63 C28.15726562 63.52851563 28.31453125 64.05703125 28.4765625 64.6015625 C29.6683645 70.06250598 30.45296164 77.01817573 27.953125 82.1484375 C26.20879038 84.25189984 24.44760904 85.77619548 22 87 C19.87407151 86.91691115 17.74906706 86.8092162 15.625 86.6875 C12.1415869 86.58565789 12.1415869 86.58565789 9 87 C6.41038912 89.59273537 6.41038912 89.59273537 5 93 C2.29740945 96.13144474 -0.27918708 97.83981935 -4.375 98.75 C-9.5114333 97.68728966 -12.56732483 94.88247399 -16 91 C-17.23046875 88.765625 -17.23046875 88.765625 -18 87 C-18.86882812 87.05800781 -19.73765625 87.11601562 -20.6328125 87.17578125 C-31.21952649 87.59024992 -31.21952649 87.59024992 -34.75 84.625 C-38.235694 80.558357 -38.13597652 78.38062604 -38.125 73.0625 C-38.12886719 71.19271484 -38.12886719 71.19271484 -38.1328125 69.28515625 C-38 66 -38 66 -37 63 C-37.7425 62.773125 -38.485 62.54625 -39.25 62.3125 C-43.67609113 60.20004742 -46.1739162 56.47472788 -48 52 C-48.01171875 49.7109375 -48.01171875 49.7109375 -47.6875 47.375 C-47.58824219 46.59898437 -47.48898437 45.82296875 -47.38671875 45.0234375 C-47 43 -47 43 -46 41 C-46.825 41.2475 -47.65 41.495 -48.5 41.75 C-53.24652559 42.08903754 -56.08602995 40.56313083 -60 38 C-63.36581634 35.06848254 -63.72174607 31.52972746 -64.06640625 27.24609375 C-63.93416236 22.77313872 -61.83477225 19.96520541 -59 16.6875 C-55.4272349 13.67297945 -51.83424091 13.67726641 -47.36328125 13.69921875 C-43.56556582 14.18256435 -41.1379958 15.86349222 -38 18 C-37.608125 17.236875 -37.21625 16.47375 -36.8125 15.6875 C-34.7464295 12.62401615 -33.38176396 11.46030716 -30 10 C-26.06647603 9.72396323 -22.77986732 9.97439049 -19 11 C-18.61328125 10.45730469 -18.2265625 9.91460937 -17.828125 9.35546875 C-17.30734375 8.64003906 -16.7865625 7.92460937 -16.25 7.1875 C-15.73953125 6.47980469 -15.2290625 5.77210938 -14.703125 5.04296875 C-10.45820911 -0.04898311 -6.50063077 -1.78448688 0 0 Z M-5 12 C-5.33 12.66 -5.66 13.32 -6 14 C-5.01 13.67 -4.02 13.34 -3 13 C-3.66 12.67 -4.32 12.34 -5 12 Z M-27 22 C-27 23.65 -27 25.3 -27 27 C-26.01 27 -25.02 27 -24 27 C-23.67 25.35 -23.34 23.7 -23 22 C-24.32 22 -25.64 22 -27 22 Z M14 22 C14 25.51716303 14.82445585 26.37121748 17 29 C17.33 26.69 17.66 24.38 18 22 C16.68 22 15.36 22 14 22 Z M-12 29 C-18.49524372 37.51521227 -18.60392407 45.57152544 -18 56 C-16.80713629 62.30638978 -14.40986033 67.41320941 -9.1875 71.375 C-5.78063256 72.3483907 -3.40708385 71.89660101 0 71 C5.19401064 67.2554807 7.52212037 62.08538671 9 56 C9.93623103 47.20510245 9.80590398 38.67465897 5 31 C2.57215101 28.1331427 -0.02218349 26.41557202 -3.5 24.9375 C-7.38377479 25.03459437 -9.06808353 26.49565469 -12 29 Z M40 25 C39.67 26.32 39.34 27.64 39 29 C40.32 29 41.64 29 43 29 C42.67 27.68 42.34 26.36 42 25 C41.34 25 40.68 25 40 25 Z M-50 25 C-50.99 25.495 -50.99 25.495 -52 26 C-51.67 27.32 -51.34 28.64 -51 30 C-50.01 30 -49.02 30 -48 30 C-47.67 29.01 -47.34 28.02 -47 27 C-47.99 26.34 -48.98 25.68 -50 25 Z M-36 47 C-35.87822312 48.91466367 -35.87822312 48.91466367 -35 51 C-32.52066803 52.77148372 -32.52066803 52.77148372 -30 54 C-30 50.7 -30 47.4 -30 44 C-32.76223278 44 -33.89281454 45.31425163 -36 47 Z M21 44 C21 46.97 21 49.94 21 53 C23.50965614 52.29660434 23.50965614 52.29660434 26 51 C26.88693303 48.95894361 26.88693303 48.95894361 27 47 C24.32752366 44.65712582 24.32752366 44.65712582 21 44 Z M-26 69 C-27.29633621 70.06645115 -27.29633621 70.06645115 -27.0625 72.5625 C-27.041875 73.366875 -27.02125 74.17125 -27 75 C-26.01 75.495 -26.01 75.495 -25 76 C-24.01 75.34 -23.02 74.68 -22 74 C-23.32 72.35 -24.64 70.7 -26 69 Z M16 69 C15.01 70.98 14.02 72.96 13 75 C14.32 75.33 15.64 75.66 17 76 C17.67958603 73.60280568 17.67958603 73.60280568 18 71 C17.34 70.34 16.68 69.68 16 69 Z M-6 83 C-5.67 83.99 -5.34 84.98 -5 86 C-4.34 85.67 -3.68 85.34 -3 85 C-3 84.34 -3 83.68 -3 83 C-3.99 83 -4.98 83 -6 83 Z " fill="#000000" transform="translate(328,142)"/>
<path d="M0 0 C3.46751337 2.83389145 5.58728425 5.76185274 7 10 C7.5747617 15.86256937 6.60317286 20.34716334 3 25 C-0.65034588 27.82684052 -4.06965987 28.88771757 -8.625 29.4375 C-13.90985436 28.75242629 -17.340734 26.99899694 -20.8125 23 C-24.04569951 18.56589781 -24.36681699 15.41055056 -24 10 C-22.10742655 4.74285153 -19.47364849 2.13155394 -15 -1 C-9.74772352 -2.46994972 -5.06974215 -1.93557248 0 0 Z M-12 11 C-12.042721 12.66611905 -12.04063832 14.33382885 -12 16 C-10.9404123 17.28322547 -10.9404123 17.28322547 -8.5 17.125 C-6.0595877 17.28322547 -6.0595877 17.28322547 -5 16 C-4.95936168 14.33382885 -4.957279 12.66611905 -5 11 C-8.58327753 9.99782936 -8.58327753 9.99782936 -12 11 Z " fill="#000000" transform="translate(262,137)"/>
<path d="M0 0 C4.18544582 3.68717846 5.76476478 7.17969307 6.125 12.6875 C5.93349843 17.84063304 4.02372503 21.4922972 0.625 25.3125 C-3.84352972 28.49012114 -8.04849301 29.08105411 -13.375 28.3125 C-18.51210953 26.49940252 -21.3441423 23.81548859 -24.375 19.3125 C-25.80349022 14.07470253 -25.33359112 10.34887716 -23.375 5.3125 C-17.90190519 -3.60661748 -8.71367204 -4.35683602 0 0 Z M-11.375 9.3125 C-12.035 9.9725 -12.695 10.6325 -13.375 11.3125 C-13.0564823 13.42070797 -13.0564823 13.42070797 -12.375 15.3125 C-10.725 15.6425 -9.075 15.9725 -7.375 16.3125 C-6.715 14.9925 -6.055 13.6725 -5.375 12.3125 C-6.035 11.3225 -6.695 10.3325 -7.375 9.3125 C-8.695 9.3125 -10.015 9.3125 -11.375 9.3125 Z " fill="#000000" transform="translate(403.375,137.6875)"/>
</svg>
