<?xml version="1.0" encoding="UTF-8"?>
<svg version="1.1" xmlns="http://www.w3.org/2000/svg" width="512" height="512">
<path d="M0 0 C5.49474857 3.72543953 8.97989965 7.74700697 10.56420898 14.35229492 C11.00932025 17.05662637 11.11367325 19.56187356 11.09765625 22.30078125 C11.09282227 23.76547852 11.09282227 23.76547852 11.08789062 25.25976562 C11.07532227 26.77086914 11.07532227 26.77086914 11.0625 28.3125 C11.05798828 29.33923828 11.05347656 30.36597656 11.04882812 31.42382812 C11.03708184 33.94927882 11.02065565 36.47460905 11 39 C12.29768311 38.99333817 13.59536621 38.98667633 14.93237305 38.97981262 C27.17368745 38.91894503 39.41497107 38.87400013 51.65640259 38.84456348 C57.9495475 38.82892097 64.24257004 38.8077082 70.53564453 38.77368164 C76.61106567 38.74103824 82.68636925 38.72313634 88.76187134 38.71536827 C91.07746226 38.70983375 93.39304689 38.69902618 95.70858765 38.68280983 C98.9569072 38.6609698 102.2047436 38.65803588 105.453125 38.65942383 C106.88272301 38.64324509 106.88272301 38.64324509 108.34120178 38.6267395 C116.25353113 38.66321909 122.66563931 40.14285618 128.57421875 45.77734375 C129.41645996 46.57382324 130.25870117 47.37030273 131.12646484 48.19091797 C132.08533001 49.12623399 133.04309892 50.06267466 134 51 C135.1440401 52.10693655 136.28808324 53.21386997 137.43212891 54.32080078 C140.60062075 57.40131559 143.740324 60.50960796 146.86987305 63.62963867 C148.81962157 65.56958577 150.77980468 67.49858943 152.74023438 69.42773438 C154.00065635 70.68163225 155.26044451 71.93616762 156.51953125 73.19140625 C157.09669388 73.75622208 157.67385651 74.3210379 158.26850891 74.90296936 C164.54870092 81.21755789 169.09064053 87.56790791 169.3125 96.6875 C169.23184576 103.37373632 167.93704868 107.81404889 163.38671875 112.75 C158.47976591 117.27614718 153.91013299 119.0322813 147.25 119.4375 C134.10363534 118.87739847 126.19712007 108.69039218 117.75 99.8125 C115.88857827 97.86254253 114.02345955 95.91695761 112.14508057 93.98332214 C110.98403497 92.78776107 109.83250121 91.58286273 108.69232178 90.36738586 C103.47195277 84.98442189 98.77671694 83.79201973 91.2890625 83.5859375 C90.04511719 83.54726562 88.80117187 83.50859375 87.51953125 83.46875 C86.23433594 83.4378125 84.94914063 83.406875 83.625 83.375 C81.66240234 83.31699219 81.66240234 83.31699219 79.66015625 83.2578125 C76.44032972 83.16380297 73.2201845 83.08082365 70 83 C70 87.62 70 92.24 70 97 C71.69125 97.0825 73.3825 97.165 75.125 97.25 C81.33213221 97.82370156 84.77610954 99.59683238 89.03515625 104.19921875 C91.96524852 108.37591092 92.70178954 112.81507499 93.875 117.72265625 C95.72965906 123.12563872 99.00546574 125.18052432 103.875 127.8125 C111.14416066 132.07336295 115.2172366 137.0910935 118 145 C119.09570019 149.27022883 119.11697972 153.43316899 119.0625 157.8125 C119.05798828 158.50537109 119.05347656 159.19824219 119.04882812 159.91210938 C119.03713156 161.60811068 119.01919924 163.30406703 119 165 C119.66644531 164.95359375 120.33289063 164.9071875 121.01953125 164.859375 C131.15912025 164.46230019 138.67679095 166.64420747 146.4375 173.3125 C150.24993843 177.01635632 152.86692497 180.13658892 155 185 C155.30679688 185.6909375 155.61359375 186.381875 155.9296875 187.09375 C160.9145848 200.32799061 156.26000828 217.50190337 154.3125 231.13671875 C154.04663869 233.03317919 153.78143388 234.92973176 153.5168457 236.82637024 C152.82523122 241.77522448 152.12714412 246.72313943 151.42687988 251.67077637 C150.30539795 259.5961933 149.19020343 267.52247613 148.0821228 275.4497776 C147.69737224 278.19137271 147.30752654 280.93220828 146.91723633 283.67301941 C144.9467335 297.63944009 143.81991521 311.38143579 143.8125 325.5 C143.80025391 326.69625 143.78800781 327.8925 143.77539062 329.125 C143.76396221 336.37823598 144.1396379 343.508007 144.83813477 350.72338867 C144.92616049 351.63674579 145.01418621 352.5501029 145.10487938 353.4911375 C145.98599175 362.32855771 147.16535579 371.11358222 148.43381119 379.90265846 C148.83359155 382.67408665 149.22693678 385.44636903 149.61886597 388.21891785 C150.59035796 395.08305982 151.57152403 401.94580941 152.55383301 408.80841064 C153.3914613 414.66191922 154.22466202 420.51602282 155.05169296 426.37103844 C155.43730103 429.0880814 155.82938434 431.80413813 156.22171021 434.5202179 C156.45820168 436.1902702 156.69437397 437.86036775 156.93017578 439.53051758 C157.03924255 440.27292694 157.14830933 441.0153363 157.26068115 441.78024292 C159.0123213 454.35800479 157.73720223 464.61495523 150 475 C143.81697525 481.95258577 136.10651133 485.49291787 127 487 C124.59030939 487.096743 122.17822002 487.13914307 119.76660156 487.14717102 C119.04871303 487.15084771 118.33082449 487.1545244 117.59118176 487.1583125 C115.19098884 487.16930567 112.79083928 487.17318578 110.390625 487.17700195 C108.66715865 487.18327006 106.94369364 487.18991717 105.2202301 487.19691467 C99.56349624 487.21792172 93.90676223 487.2283161 88.25 487.23828125 C86.29853298 487.2423305 84.3470661 487.24644747 82.39559937 487.25063133 C73.22310618 487.26967813 64.05062099 487.28390846 54.87811184 487.2922433 C44.31180258 487.30200458 33.74570343 487.32829727 23.17946815 487.36874419 C14.99918764 487.39897617 6.81896709 487.413719 -1.36136818 487.41702431 C-6.24055947 487.41936732 -11.11952618 487.42822933 -15.99865723 487.45348549 C-20.59521735 487.47689451 -25.19140709 487.48094828 -29.78801155 487.47072411 C-31.46607768 487.47023169 -33.14416284 487.47646437 -34.82217216 487.49028015 C-47.61287997 487.58961568 -59.92753193 486.74957327 -70.06640625 477.96875 C-77.04551903 470.86274426 -81.05472088 462.3517742 -80.97949219 452.24476624 C-80.20272082 443.07703625 -78.98987917 433.98753256 -77.70248413 424.88024712 C-77.3035544 422.05780325 -76.90962388 419.23469833 -76.5168457 416.41139221 C-75.68231896 410.41947219 -74.84141425 404.42845609 -74 398.4375 C-73.02386789 391.48287273 -72.05043902 384.52788076 -71.0821228 377.57216072 C-70.69659886 374.81125466 -70.30704542 372.05093795 -69.91723633 369.29063416 C-68.01342935 355.70738612 -66.79635053 342.34817852 -66.75976562 328.62426758 C-66.75024305 326.49192387 -66.71918586 324.36062727 -66.6875 322.22851562 C-66.45529642 293.157825 -72.32592644 263.86579221 -76.54052734 235.17456055 C-77.18438662 230.78782668 -77.81511927 226.39936863 -78.43769073 222.00956535 C-78.67363051 220.36365626 -78.91434392 218.71842303 -79.16027069 217.07397652 C-81.30984838 202.68361379 -82.14397185 190.71344022 -74 178 C-68.62670989 170.84435025 -60.79734539 166.44556577 -52 165 C-50.01561604 164.92130162 -48.02888652 164.89215956 -46.04296875 164.90234375 C-44.93115234 164.90556641 -43.81933594 164.90878906 -42.67382812 164.91210938 C-41.52333984 164.92048828 -40.37285156 164.92886719 -39.1875 164.9375 C-38.01767578 164.94201172 -36.84785156 164.94652344 -35.64257812 164.95117188 C-32.76166642 164.9629307 -29.88085956 164.97936574 -27 165 C-27.06960937 163.76765625 -27.13921875 162.5353125 -27.2109375 161.265625 C-27.61832702 151.01972669 -27.58624768 142.47188097 -21 134 C-17.27336049 130.29993189 -13.42842587 127.67378579 -8.6875 125.4375 C-5.02222496 123.47700405 -3.86208678 121.72417356 -2 118 C-1.66776542 116.19449567 -1.37938537 114.3806072 -1.125 112.5625 C-0.27742836 107.00787871 1.64945382 103.56994579 6 100 C10.628813 97.11437828 15.67517056 97.38034496 21 97 C21 92.38 21 87.76 21 83 C19.29070312 83.0314209 19.29070312 83.0314209 17.546875 83.06347656 C13.29033131 83.13626614 9.03384186 83.18194042 4.77685547 83.21972656 C2.93984707 83.23975373 1.10290171 83.26698382 -0.73388672 83.30175781 C-3.38525002 83.35067065 -6.03576541 83.37305763 -8.6875 83.390625 C-9.49928711 83.41127014 -10.31107422 83.43191528 -11.14746094 83.45318604 C-17.78340948 83.45575572 -23.12133993 81.69527053 -28.0234375 77.10546875 C-28.46945313 76.47253906 -28.91546875 75.83960937 -29.375 75.1875 C-30.06722656 74.24970703 -30.06722656 74.24970703 -30.7734375 73.29296875 C-34.22605478 66.83855364 -34.30755306 60.51194662 -34.30078125 53.3515625 C-34.30506638 52.33959808 -34.3093515 51.32763367 -34.31376648 50.28500366 C-34.31948946 48.15192409 -34.32002509 46.018825 -34.31567383 43.88574219 C-34.31251678 40.64223537 -34.33598911 37.3996441 -34.36132812 34.15625 C-34.36360178 32.07552197 -34.36430431 29.99479152 -34.36328125 27.9140625 C-34.372491 26.95440582 -34.38170074 25.99474915 -34.39118958 25.00601196 C-34.33322686 16.46623496 -32.79471707 8.89165431 -26.796875 2.5078125 C-18.78364925 -4.21632911 -9.13699213 -4.8791538 0 0 Z M-18 18 C-18.5786784 21.39915436 -18.53695951 24.7502745 -18.49609375 28.19140625 C-18.49754898 29.17366684 -18.49900421 30.15592743 -18.50050354 31.16795349 C-18.49884681 33.23984755 -18.48731087 35.31175419 -18.46655273 37.38354492 C-18.43756803 40.55505581 -18.44595483 43.72489765 -18.45898438 46.89648438 C-18.45274759 48.91146646 -18.44435712 50.92644326 -18.43359375 52.94140625 C-18.43652939 53.8893959 -18.43946503 54.83738556 -18.44248962 55.81410217 C-18.42980545 56.69859543 -18.41712128 57.58308868 -18.40405273 58.49438477 C-18.39864975 59.26984146 -18.39324677 60.04529816 -18.38768005 60.84425354 C-17.89316816 63.59405263 -16.89498047 64.96975449 -15 67 C-12.100743 67.966419 -10.27819851 68.12472054 -7.26475525 68.12457275 C-6.29062683 68.12713577 -5.31649841 68.12969879 -4.31285095 68.13233948 C-3.24531082 68.13023972 -2.17777069 68.12813995 -1.07788086 68.12597656 C0.6104335 68.12877876 0.6104335 68.12877876 2.33285522 68.13163757 C4.78172133 68.13564595 7.23059117 68.13771681 9.67946053 68.13809967 C15.56277419 68.14195301 21.44597843 68.1680446 27.32924163 68.19131613 C36.36037797 68.22637011 45.39139737 68.25298476 54.42260742 68.25048828 C61.16952734 68.24872352 67.91592321 68.2731167 74.66274834 68.3123703 C77.23063546 68.32281762 79.79857525 68.32436376 82.36647224 68.31671906 C85.96885284 68.30706772 89.56986214 68.32833979 93.17211914 68.35644531 C94.22548965 68.34624863 95.27886017 68.33605194 96.364151 68.32554626 C105.18286483 68.44837095 112.08916498 71.09123336 118.59448242 77.12207031 C119.69407343 78.26207238 120.7808709 79.41453377 121.85546875 80.578125 C123.06701944 81.83336987 124.2786091 83.08857713 125.49023438 84.34375 C127.35057708 86.3039256 129.20547922 88.26908899 131.05834961 90.23632812 C132.8739004 92.15450218 134.70745395 94.05407696 136.54296875 95.953125 C137.08793503 96.54474426 137.63290131 97.13636353 138.19438171 97.74591064 C141.88828956 101.55594365 144.47393813 102.90439775 150 103 C152.08333333 102.08333333 152.08333333 102.08333333 153 100 C153.83752425 97.21717469 153.83752425 97.21717469 153 94 C151.65441012 92.1125184 151.65441012 92.1125184 149.90942383 90.24975586 C149.27316071 89.54640106 148.63689758 88.84304626 147.98135376 88.11837769 C144.98650085 84.91641057 141.92935531 81.78630266 138.82421875 78.69140625 C138.17298538 78.03921616 137.52175201 77.38702606 136.8507843 76.71507263 C135.48988465 75.35349864 134.1277462 73.99316176 132.7644043 72.6340332 C130.67183675 70.54687726 128.58473176 68.45436368 126.49804688 66.36132812 C125.16959181 65.03353295 123.84082707 63.70604753 122.51171875 62.37890625 C121.88778732 61.75295059 121.2638559 61.12699493 120.62101746 60.48207092 C116.69446187 56.5769336 114.95186745 54.87881267 109.45852661 54.86196899 C108.50234436 54.85651566 107.54616211 54.85106232 106.56100464 54.84544373 C104.98224045 54.84388023 104.98224045 54.84388023 103.37158203 54.84228516 C102.26580811 54.83720444 101.16003418 54.83212372 100.02075195 54.82688904 C97.61333134 54.81616832 95.20590065 54.80755485 92.79846573 54.80076981 C88.99139386 54.78901179 85.18443703 54.76956741 81.37741089 54.74765015 C70.55095966 54.68592616 59.72452757 54.63170949 48.89794922 54.59863281 C42.28199174 54.57833132 35.66622586 54.54245207 29.05038071 54.49787521 C26.52498705 54.48368351 23.99955646 54.47498567 21.47412491 54.47182083 C17.94492909 54.46692975 14.41629029 54.44381755 10.88720703 54.41650391 C9.83874603 54.41951004 8.79028503 54.42251617 7.71005249 54.4256134 C6.26731964 54.40897392 6.26731964 54.40897392 4.79544067 54.39199829 C3.54385509 54.38703307 3.54385509 54.38703307 2.26698494 54.38196754 C-0.56837094 53.90423437 -1.94724884 52.99429423 -4 51 C-4.37859858 48.4176358 -4.51102914 46.24372962 -4.46875 43.6640625 C-4.47579956 42.94769623 -4.48284912 42.23132996 -4.4901123 41.49325562 C-4.51959279 38.43248988 -4.50299701 35.37236008 -4.49072266 32.31152344 C-4.48833572 30.07448566 -4.50929583 27.83847286 -4.53125 25.6015625 C-4.51993042 24.91494537 -4.50861084 24.22832825 -4.49694824 23.52090454 C-4.534033 19.97673225 -4.94875039 18.0803347 -6.87304688 15.06396484 C-8.82901327 12.82070577 -8.82901327 12.82070577 -11.5 12.375 C-15.19865493 13.29966373 -16.03076281 14.74597594 -18 18 Z M37 83 C37 87.62 37 92.24 37 97 C42.61 97 48.22 97 54 97 C54 92.38 54 87.76 54 83 C48.39 83 42.78 83 37 83 Z M16 113 C14.66009256 116.28951727 13.54621842 119.5073161 12.625 122.9375 C9.40040726 133.65966799 2.02353974 138.46884819 -7.3359375 143.7265625 C-9.43573887 145.14060743 -9.43573887 145.14060743 -11 149 C-11 154.28 -11 159.56 -11 165 C26.62 165 64.24 165 103 165 C104.28623939 151.171907 104.28623939 151.171907 100 145 C97.71753061 142.85586209 95.43467421 141.22896719 92.6640625 139.76953125 C85.81820366 136.09990421 81.94045435 132.26830618 79 125 C78.2897601 122.04570423 77.77726746 119.16894881 77.421875 116.15234375 C77.21304688 115.08693359 77.21304688 115.08693359 77 114 C74.34092416 112.67046208 72.33434632 112.88013969 69.35693359 112.88647461 C68.17586029 112.88655014 66.99478699 112.88662567 65.77792358 112.88670349 C63.85757797 112.89444542 63.85757797 112.89444542 61.8984375 112.90234375 C59.93833237 112.90446617 59.93833237 112.90446617 57.93862915 112.90663147 C54.46323742 112.91045106 50.98788743 112.92027658 47.51251221 112.93133545 C43.96668055 112.94156157 40.42084215 112.94613167 36.875 112.95117188 C29.91664951 112.96189934 22.95832676 112.97896908 16 113 Z M-61.91015625 188.21875 C-67.51483787 199.31411972 -63.62817023 212.45314237 -61.91824532 224.30196762 C-61.55629649 226.81230487 -61.20006679 229.32339972 -60.84519958 231.83474731 C-59.83640361 238.96645682 -58.81744254 246.09670408 -57.7956543 253.2265625 C-52.97867306 286.87591467 -48.79286694 319.86432967 -52.16015625 353.91796875 C-52.28863953 355.22976608 -52.4171228 356.54156342 -52.54949951 357.89311218 C-54.54135883 377.5511265 -57.63139716 397.0849255 -60.54052734 416.62329102 C-61.1830316 420.94346451 -61.81379031 425.26522802 -62.43769073 429.58812523 C-62.67391635 431.20774638 -62.91464992 432.82671757 -63.16027069 434.44494057 C-65.6843621 448.70910513 -65.6843621 448.70910513 -62.25 462.375 C-58.65957236 466.56383224 -55.25919853 469.29211941 -50 471 C-46.55425597 471.30560278 -46.55425597 471.30560278 -42.73295593 471.26742554 C-41.65083138 471.27422221 -41.65083138 471.27422221 -40.54684573 471.28115618 C-38.13492472 471.29379364 -35.72322971 471.29218025 -33.3112793 471.29052734 C-31.57969879 471.29651303 -29.84812096 471.30331867 -28.11654663 471.31088257 C-23.41602797 471.32854632 -18.71558213 471.33323813 -14.01503348 471.33451414 C-11.07698355 471.33593616 -8.1389521 471.34020674 -5.20090675 471.34550858 C5.05284169 471.36401056 15.30653815 471.37217903 25.56030273 471.37060547 C35.11188834 471.36940424 44.66324792 471.39050256 54.21477634 471.4220928 C62.42046524 471.44826282 70.62608035 471.45897245 78.83181065 471.45769465 C83.73039044 471.4571852 88.62876936 471.46285885 93.52730751 471.48405075 C98.13618106 471.50344518 102.74466241 471.50354938 107.35354996 471.48901749 C109.04177232 471.48692974 110.73001932 471.49162829 112.41819954 471.5037384 C125.43850302 471.83804762 125.43850302 471.83804762 136.49921131 465.58807945 C141.52456168 460.01558759 142.29438541 455.2660973 142 448 C141.73815537 445.1826067 141.34482155 442.39256592 140.93017578 439.59399414 C140.75943039 438.3942672 140.75943039 438.3942672 140.5852356 437.17030334 C140.33884523 435.44366787 140.08994769 433.71738865 139.83877945 431.99144173 C139.43777346 429.23330238 139.04422625 426.47418626 138.65255737 423.71470642 C137.5378453 415.87156858 136.40894587 408.03048422 135.27783203 400.18969727 C127.5974842 346.88275893 128.46310271 299.22828558 136.125 246 C137.10655875 239.17155873 138.08339646 232.34248108 139.05169296 225.512146 C139.43699851 222.80834173 139.82912533 220.10558747 140.22171021 217.40283203 C140.45817487 215.74255707 140.69434587 214.08224024 140.93017578 212.421875 C141.03924255 211.68417877 141.14830933 210.94648254 141.26068115 210.18643188 C142.33032667 202.55305748 142.83589153 196.01042246 139 189 C134.94409381 184.17676021 130.82294886 181.30662871 124.47293282 180.61688995 C123.16147223 180.61316124 121.85001163 180.60943253 120.49880981 180.60559082 C119.76428837 180.59949972 119.02976692 180.59340861 118.27298725 180.58713293 C115.82262008 180.57054287 113.37277485 180.57527289 110.92236328 180.58007812 C109.16107648 180.57273545 107.39979449 180.56414864 105.63851929 180.55441284 C100.8615876 180.53220867 96.08482847 180.52926562 91.30785227 180.53116035 C87.31685256 180.53128011 83.32588933 180.52271387 79.33489978 180.51438284 C69.9174149 180.49515258 60.50001866 180.49226353 51.08251953 180.49902344 C41.37464487 180.50566369 31.66715021 180.4827996 21.95935261 180.44570971 C13.61775211 180.41499863 5.27627377 180.40365422 -3.06538212 180.40754652 C-8.0444662 180.40961261 -13.02325457 180.40415632 -18.002285 180.37965393 C-22.68594106 180.35736621 -27.36897995 180.35928143 -32.05263901 180.37958145 C-33.76827475 180.38298795 -35.4839522 180.37791789 -37.19953156 180.36359787 C-51.02114136 180.19722069 -51.02114136 180.19722069 -61.91015625 188.21875 Z " fill="#000000" transform="translate(99,14)"/>
<path d="M0 0 C4.1146037 2.05730185 6.34170819 3.73475395 8 8 C9.74917494 22.46120211 4.76380959 34.97663205 -3.77734375 46.37109375 C-13.21803092 57.81961622 -25.53616794 63.19202099 -40 65 C-40 72.26 -40 79.52 -40 87 C-38.2159375 86.96519531 -36.431875 86.93039062 -34.59375 86.89453125 C-32.22917612 86.86638156 -29.86459201 86.83908267 -27.5 86.8125 C-26.32695312 86.78736328 -25.15390625 86.76222656 -23.9453125 86.73632812 C-13.54849311 86.64871448 -5.61484428 88.56103961 2 96 C6.9224405 103.13614772 7.71824698 109.72411434 7.61523438 118.20751953 C7.62078339 119.38606506 7.6263324 120.5646106 7.63204956 121.77886963 C7.64379289 125.64727332 7.61962493 129.51449198 7.59375 133.3828125 C7.58956519 136.08462924 7.59200307 138.78643234 7.59387207 141.48825073 C7.59381867 147.13863311 7.57416479 152.78867912 7.54199219 158.43896484 C7.50507115 164.95451753 7.4963234 171.46963077 7.5032897 177.98527443 C7.50961191 184.27829692 7.49881106 190.57117013 7.47932434 196.86416245 C7.47118868 199.531469 7.46916836 202.19856582 7.47001648 204.86590958 C7.46821441 208.59460467 7.44679706 212.32268164 7.41992188 216.05126953 C7.42285248 217.14758698 7.42578308 218.24390442 7.42880249 219.3734436 C7.33905096 227.4636637 6.23069766 234.34195184 0.58984375 240.6171875 C-6.01352364 246.36065693 -12.61789989 248.1189658 -21.17129517 248.14717102 C-21.89452953 248.15084771 -22.61776389 248.1545244 -23.36291444 248.1583125 C-25.78703481 248.16932782 -28.21111228 248.17318954 -30.63525391 248.17700195 C-32.37329239 248.1832683 -34.11132954 248.18991525 -35.84936523 248.19691467 C-41.55842153 248.21793957 -47.26747804 248.22831655 -52.9765625 248.23828125 C-54.94388213 248.24232959 -56.91120162 248.24644653 -58.87852097 248.25063133 C-68.12309277 248.26968065 -77.3676566 248.28391144 -86.61224425 248.2922433 C-97.27311346 248.3020109 -107.93377478 248.3283191 -118.59457076 248.36874419 C-126.84102572 248.39893784 -135.08742121 248.41371532 -143.33393037 248.41702431 C-148.25607619 248.41937135 -153.17799984 248.42828659 -158.10008621 248.45348549 C-162.73437868 248.47682766 -167.36830367 248.4809748 -172.00263977 248.47072411 C-173.69809062 248.47023011 -175.39355993 248.47651031 -177.08895493 248.49028015 C-187.74803965 248.57196735 -196.13352699 247.76339778 -205.3125 241.875 C-212.31892991 234.3797494 -213.73895568 226.7156008 -213.64697266 216.73242188 C-213.65573425 215.54733536 -213.66449585 214.36224884 -213.67352295 213.14125061 C-213.69164145 209.91984619 -213.68756182 206.69948486 -213.67162752 203.47809792 C-213.65886731 200.08885321 -213.67073645 196.69967257 -213.67855835 193.3104248 C-213.68762579 187.62137554 -213.67574407 181.93265202 -213.65185547 176.24365234 C-213.62464928 169.68936348 -213.63346555 163.13585258 -213.6609875 156.58158255 C-213.68376118 150.92939955 -213.68683865 145.27744919 -213.67379415 139.62523508 C-213.66604462 136.26027605 -213.66483225 132.89568131 -213.68147659 129.53074646 C-213.69423631 125.77582915 -213.67473275 122.02238619 -213.64697266 118.26757812 C-213.65709381 117.16910049 -213.66721497 116.07062286 -213.67764282 114.93885803 C-213.56892288 106.96374585 -211.92334278 99.83249623 -206.03963661 94.0850296 C-198.88257191 88.20163914 -191.58843939 86.52616348 -182.5 86.8125 C-179.695 86.874375 -176.89 86.93625 -174 87 C-174 80.07 -174 73.14 -174 66 C-175.753125 66.0825 -177.50625 66.165 -179.3125 66.25 C-188.04542092 66.2088555 -195.05105967 64.24809174 -201.5 58.1875 C-206.72127202 52.44303303 -208.54743308 46.52566924 -209.3125 38.875 C-208.67000579 30.90807178 -205.87862951 23.48672087 -200 18 C-194.3093951 14.25725449 -189.35060245 11.89386065 -182.48477173 11.84851074 C-181.58338974 11.84016708 -180.68200775 11.83182343 -179.75331116 11.82322693 C-178.77075851 11.81904251 -177.78820587 11.81485809 -176.77587891 11.81054688 C-175.73418045 11.80225357 -174.69248199 11.79396027 -173.61921692 11.78541565 C-171.34996695 11.76800032 -169.08069885 11.75283758 -166.81142044 11.73963928 C-163.17968585 11.71847685 -159.54803544 11.69144363 -155.91635132 11.66296387 C-148.15260166 11.60323899 -140.38880816 11.55144946 -132.625 11.5 C-113.08297825 11.36827406 -93.54120525 11.22499379 -74 11 C-72.97762741 10.98827759 -71.95525482 10.97655518 -70.90190125 10.96447754 C-65.43075293 10.89871794 -59.96039834 10.81574884 -54.49000168 10.70335388 C-52.92240032 10.67263918 -51.35470402 10.64635409 -49.78694534 10.62513733 C-37.9759949 10.45770435 -27.24728731 9.27344102 -16.875 3.3125 C-11.1040612 0.3060065 -6.48041479 -1.51289095 0 0 Z M-18.078125 21.61328125 C-30.19359399 26.27600999 -42.46587067 26.4547703 -55.234375 26.4765625 C-57.09832261 26.49048741 -58.96226062 26.5057538 -60.82618713 26.52226257 C-64.7659253 26.55470778 -68.70558149 26.57862212 -72.64541626 26.59561157 C-78.78746338 26.62272502 -84.92918673 26.67288361 -91.07104492 26.72729492 C-99.23856787 26.79811568 -107.40610096 26.86313243 -115.57373047 26.92041016 C-116.54991364 26.92727246 -117.52609682 26.93413477 -118.53186131 26.94120502 C-122.21859854 26.96698503 -125.90533708 26.99255401 -129.59207916 27.01763153 C-138.93734539 27.08131068 -148.2820298 27.15799186 -157.62683105 27.27288818 C-161.23988458 27.31171956 -164.8526053 27.32822615 -168.46582031 27.34423828 C-170.61915711 27.37008041 -172.77247942 27.39717366 -174.92578125 27.42578125 C-175.87457657 27.42382248 -176.82337189 27.42186371 -177.80091858 27.41984558 C-183.48223437 27.5278054 -186.64453931 28.26693321 -191 32 C-192.91303463 35.0774905 -193.00253398 36.85809708 -192.9375 40.5 C-191.82276962 44.66166007 -190.28026327 46.27978168 -187 49 C-184.34418208 50.32790896 -182.33528365 50.13198928 -179.35998535 50.14044189 C-177.56008148 50.14900711 -177.56008148 50.14900711 -175.72381592 50.15774536 C-174.38684092 50.15899081 -173.04986581 50.16011589 -171.71289062 50.16113281 C-170.3101183 50.16576039 -168.90734723 50.17078497 -167.50457764 50.17617798 C-163.68596508 50.18931657 -159.86737012 50.19575068 -156.04873848 50.20018864 C-153.66096383 50.20311921 -151.27319399 50.20722417 -148.88542175 50.21169281 C-141.40923665 50.22537643 -133.93306254 50.23503679 -126.45686579 50.2388947 C-117.83807937 50.2433668 -109.21945222 50.26087147 -100.60071421 50.2898953 C-93.93390281 50.31156262 -87.26713603 50.3216018 -80.60028982 50.32293582 C-76.62159194 50.32398096 -72.64304361 50.32982555 -68.66438293 50.34775543 C-64.91494233 50.36432189 -61.16576223 50.36635042 -57.41629791 50.35761642 C-55.39765009 50.35648747 -53.3790106 50.37014159 -51.3604126 50.3843689 C-38.78113752 50.32706319 -28.3499391 47.48751192 -18.76953125 39.03125 C-13.61751279 33.6955761 -8 25.7313198 -8 18 C-11.60710366 18 -14.84121583 20.12448187 -18.078125 21.61328125 Z M-158 66 C-158 72.93 -158 79.86 -158 87 C-124.01 87 -90.02 87 -55 87 C-55 80.07 -55 73.14 -55 66 C-88.99 66 -122.98 66 -158 66 Z M-196 107 C-197.20712614 109.41425228 -197.13630695 110.95088173 -197.15390015 113.64863586 C-197.16250061 114.62861542 -197.17110107 115.60859497 -197.17996216 116.61827087 C-197.18422211 117.69726151 -197.18848206 118.77625214 -197.19287109 119.88793945 C-197.20104858 121.0213678 -197.20922607 122.15479614 -197.21765137 123.3225708 C-197.24253365 127.08613551 -197.2590277 130.84966247 -197.2734375 134.61328125 C-197.27876118 135.89601614 -197.28408485 137.17875103 -197.28956985 138.50035667 C-197.31080444 143.89020464 -197.32993457 149.28004028 -197.34119225 154.66991901 C-197.35743108 162.39378634 -197.39060695 170.11715058 -197.44759309 177.84082824 C-197.49096358 183.92663493 -197.50693733 190.01224425 -197.51332474 196.09819603 C-197.52005471 198.68701955 -197.53532163 201.27583526 -197.55921555 203.86455727 C-197.59072603 207.48472235 -197.59092438 211.10361155 -197.58349609 214.72387695 C-197.59990143 215.79679489 -197.61630676 216.86971283 -197.63320923 217.97514343 C-197.60642608 224.01534973 -197.60642608 224.01534973 -194.58853149 229.14225769 C-190.47531785 232.09423685 -188.26709389 232.13014775 -183.19415283 232.14717102 C-182.48613927 232.15084771 -181.7781257 232.1545244 -181.04865718 232.1583125 C-178.66426682 232.16936979 -176.27992 232.17319663 -173.89550781 232.17700195 C-172.19068258 232.18326508 -170.48585873 232.18991175 -168.78103638 232.19691467 C-164.14040883 232.21433885 -159.4997916 232.22488039 -154.85913944 232.2331202 C-151.96082695 232.23826757 -149.06251768 232.24434344 -146.16420746 232.25063133 C-137.0990396 232.26968774 -128.03387992 232.28391767 -118.96869588 232.2922433 C-108.49906668 232.30201706 -98.02964883 232.32833831 -87.56009412 232.36874419 C-79.4717024 232.39889063 -71.38337131 232.41371079 -63.2949245 232.41702431 C-58.46230118 232.41937657 -53.62990353 232.42835969 -48.79734039 232.45348549 C-44.25008691 232.47674535 -39.70320801 232.48100789 -35.15591049 232.47072411 C-33.48780701 232.47022812 -31.81968522 232.47656712 -30.15163803 232.49028015 C-27.87190352 232.50797165 -25.59351726 232.50090772 -23.31378174 232.48774719 C-22.0387743 232.49013555 -20.76376686 232.4925239 -19.45012283 232.49498463 C-15.35395105 231.9073122 -13.19234341 230.58925861 -10 228 C-7.28763927 222.82829648 -7.71101409 217.13025577 -7.7253418 211.42407227 C-7.72023087 210.37130096 -7.71511993 209.31852966 -7.70985413 208.2338562 C-7.69597869 204.76131471 -7.69691331 201.28897213 -7.69921875 197.81640625 C-7.69533087 195.39794338 -7.69099601 192.9794812 -7.68623352 190.5610199 C-7.67877583 185.49467758 -7.67905948 180.42840497 -7.68432617 175.36206055 C-7.69012195 168.87444696 -7.67318469 162.38711875 -7.6499815 155.89955235 C-7.63524002 150.90580074 -7.63437301 145.91211782 -7.63749123 140.91834831 C-7.63697829 138.52658459 -7.63174568 136.13481701 -7.62167931 133.74307442 C-7.60932376 130.39696903 -7.61610166 127.05141896 -7.62768555 123.70532227 C-7.62004181 122.72068497 -7.61239807 121.73604767 -7.60452271 120.72157288 C-7.64773096 115.06609864 -8.087187 110.91389235 -11 106 C-15.03642851 102.89529365 -18.14470806 102.62192282 -23.16661072 102.61231995 C-23.87718756 102.60693441 -24.5877644 102.60154887 -25.31987387 102.59600013 C-27.69511612 102.58172035 -30.06980107 102.58882407 -32.44506836 102.59594727 C-34.15033923 102.59024369 -35.85560628 102.58327948 -37.56086731 102.57514954 C-42.18898069 102.55720153 -46.81690464 102.5583896 -51.44504237 102.56409192 C-55.30942704 102.56718141 -59.17377519 102.56109399 -63.03815466 102.55505317 C-72.15494322 102.54100415 -81.27163808 102.54257237 -90.38842773 102.55395508 C-99.79237663 102.5654369 -109.19604037 102.55136042 -118.59995168 102.5245586 C-126.67568373 102.50240432 -134.75132623 102.49576361 -142.82708651 102.50163502 C-147.64957893 102.50500642 -152.47188854 102.50257732 -157.29435539 102.48538399 C-161.82937324 102.46992126 -166.36396853 102.47386285 -170.89896965 102.49268913 C-172.56222452 102.49637689 -174.22551065 102.49326108 -175.88873672 102.48280334 C-178.16178004 102.46960373 -180.43342231 102.48112998 -182.70640564 102.49879456 C-183.97751662 102.49900384 -185.24862761 102.49921312 -186.5582571 102.49942875 C-190.63271259 103.09202248 -192.81312823 104.44028858 -196 107 Z " fill="#000000" transform="translate(485,253)"/>
<path d="M0 0 C0.97976807 -0.00852997 1.95953613 -0.01705994 2.96899414 -0.02584839 C4.03248581 -0.02494202 5.09597748 -0.02403564 6.19169617 -0.02310181 C7.32074371 -0.02981903 8.44979126 -0.03653625 9.61305237 -0.04345703 C13.34593608 -0.06245655 17.07864016 -0.06636231 20.81156921 -0.06851196 C23.40842767 -0.0749387 26.0052854 -0.08166697 28.60214233 -0.08868408 C34.04689012 -0.10066189 39.49156673 -0.10445009 44.93632507 -0.10317993 C51.21606555 -0.10197937 57.49546187 -0.12306737 63.77511531 -0.15466726 C69.83050117 -0.18404526 75.88570123 -0.19115402 81.94116783 -0.18996048 C84.51074313 -0.19231832 87.08032106 -0.2011521 89.64985085 -0.21662521 C93.24742152 -0.23625967 96.84411076 -0.23045598 100.44169617 -0.21841431 C102.02782463 -0.23527283 102.02782463 -0.23527283 103.64599609 -0.25247192 C111.03422228 -0.18975392 116.20718736 1.11733932 122.03422546 5.94320679 C122.48024109 6.48332397 122.92625671 7.02344116 123.38578796 7.57992554 C124.07801453 8.37849976 124.07801453 8.37849976 124.78422546 9.19320679 C127.97135583 14.58290813 128.30604404 20.40963054 128.28544617 26.52255249 C128.2905571 27.31705811 128.29566803 28.11156372 128.30093384 28.93014526 C128.31475535 31.5387439 128.31387842 34.14707604 128.31156921 36.75570679 C128.31546079 38.58262733 128.31979641 40.40954697 128.32455444 42.23646545 C128.3320011 46.06021053 128.33173708 49.88386325 128.32646179 53.70761108 C128.32067534 58.58629801 128.3375858 63.46460428 128.36080647 68.34322834 C128.37560383 72.11554645 128.37640726 75.8877742 128.37329674 79.6601162 C128.37380714 81.45769185 128.37899153 83.25527295 128.38910866 85.05282021 C128.49607146 106.71759938 128.49607146 106.71759938 123.14360046 113.70492554 C122.48102234 114.22055054 121.81844421 114.73617554 121.13578796 115.26742554 C120.47836609 115.80367554 119.82094421 116.33992554 119.14360046 116.89242554 C115.1896976 119.44146182 111.7150739 120.51629579 107.02157593 120.53485107 C105.55192383 120.54764603 105.55192383 120.54764603 104.05258179 120.56069946 C102.98909012 120.55979309 101.92559845 120.55888672 100.82987976 120.55795288 C99.70083221 120.5646701 98.57178467 120.57138733 97.40852356 120.57830811 C93.67563985 120.59730763 89.94293577 120.60121338 86.21000671 120.60336304 C83.61314825 120.60978978 81.01629053 120.61651805 78.41943359 120.62353516 C72.97468581 120.63551296 67.5300092 120.63930117 62.08525085 120.63803101 C55.80551037 120.63683044 49.52611405 120.65791845 43.24646062 120.68951833 C37.19107476 120.71889633 31.1358747 120.72600509 25.0804081 120.72481155 C22.5108328 120.7271694 19.94125487 120.73600317 17.37172508 120.75147629 C13.77415441 120.77111074 10.17746517 120.76530705 6.57987976 120.75326538 C5.52246078 120.76450439 4.46504181 120.77574341 3.37557983 120.787323 C-3.55644173 120.72847767 -9.33546167 119.74480983 -14.50993824 114.8201046 C-19.48127094 109.1204564 -20.28587818 104.89385753 -20.26387024 97.46322632 C-20.26898117 96.57495148 -20.2740921 95.68667664 -20.27935791 94.77148438 C-20.29325745 91.83516704 -20.29229672 88.89908436 -20.28999329 85.96273804 C-20.2938803 83.92016513 -20.29821499 81.87759303 -20.30297852 79.83502197 C-20.31044172 75.55286032 -20.31014892 71.27078111 -20.30488586 66.98861694 C-20.29909421 61.50524548 -20.3160145 56.02221213 -20.33923054 50.53889656 C-20.35397458 46.3198042 -20.3548386 42.1007931 -20.35172081 37.88167953 C-20.35223378 35.86030279 -20.35746706 33.83892148 -20.36753273 31.81756973 C-20.37989126 28.98829552 -20.37310861 26.1596778 -20.36152649 23.33041382 C-20.36917023 22.49800171 -20.37681396 21.6655896 -20.38468933 20.80795288 C-20.33293156 15.07774013 -19.30615077 10.83692157 -15.34077454 6.43930054 C-14.77100891 5.97008179 -14.20124329 5.50086304 -13.61421204 5.01742554 C-12.76729797 4.29812866 -12.76729797 4.29812866 -11.90327454 3.56430054 C-8.08618969 0.9780308 -4.57939438 0.01810418 0 0 Z M-3.75285625 18.08055019 C-5.568243 21.29161984 -5.40737185 24.41121643 -5.37739563 28.00180054 C-5.38265259 28.77624512 -5.38790955 29.5506897 -5.39332581 30.34860229 C-5.40651495 32.90508269 -5.3977918 35.46093895 -5.38764954 38.01742554 C-5.38967059 39.79574706 -5.39258229 41.57406778 -5.39634705 43.35238647 C-5.40076892 47.07805274 -5.39434377 50.80350313 -5.38032532 54.52914429 C-5.36323346 59.30428247 -5.37307538 64.0789148 -5.39104271 68.85403442 C-5.40188426 72.52576508 -5.39843251 76.19737584 -5.39065933 79.86911011 C-5.38865835 81.62977152 -5.39111303 83.39044383 -5.39809799 85.15109253 C-5.40571864 87.61203843 -5.39410021 90.0721656 -5.37739563 92.53305054 C-5.38346832 93.26044434 -5.38954102 93.98783813 -5.39579773 94.73727417 C-5.34299559 98.93705615 -4.9298906 101.2394481 -1.98921204 104.26742554 C0.14501107 104.86322711 0.14501107 104.86322711 2.56535339 104.76863098 C3.96599281 104.78338219 3.96599281 104.78338219 5.39492798 104.7984314 C6.41736099 104.78876343 7.43979401 104.77909546 8.49320984 104.76913452 C9.57147537 104.77453751 10.64974091 104.77994049 11.76068115 104.7855072 C15.33391048 104.79804034 18.9063413 104.78147223 22.47953796 104.76351929 C24.95671125 104.76367417 27.43388478 104.76516132 29.91105652 104.76792908 C35.77238605 104.76949282 41.63342195 104.75109147 47.49468756 104.72512728 C52.1715111 104.70602912 56.8480983 104.70452816 61.52494812 104.71347046 C67.96696049 104.72577748 74.40876408 104.7234715 80.85076904 104.70781136 C83.31002393 104.70328624 85.76929019 104.70296926 88.22854614 104.70687675 C91.66205858 104.70977819 95.09493401 104.69333236 98.52836609 104.67147827 C99.5507991 104.67597992 100.57323212 104.68048157 101.62664795 104.68511963 C102.56040756 104.675215 103.49416718 104.66531036 104.45622253 104.65510559 C105.26811287 104.6526757 106.0800032 104.6502458 106.91649628 104.64774227 C109.5536586 104.16884195 110.43863457 103.41437491 112.01078796 101.26742554 C112.30165937 98.58303528 112.41041459 96.13147889 112.38310242 93.44711304 C112.38675308 92.65170105 112.39040375 91.85628906 112.39416504 91.03677368 C112.4022771 88.40510773 112.38865522 85.77405625 112.37406921 83.14242554 C112.37355068 81.31543986 112.37406811 79.48845363 112.37557983 77.66146851 C112.37549008 73.83146847 112.36505446 70.00167881 112.3469696 66.17172241 C112.32428234 61.25865854 112.32373801 56.34590213 112.33048725 51.43280029 C112.33382635 47.65989441 112.32719825 43.88705882 112.31735802 40.11416626 C112.31350471 38.30244311 112.31235834 36.49071215 112.31394386 34.6789856 C112.3143141 32.14841779 112.30170599 29.61824638 112.28544617 27.08773804 C112.28792358 26.33647644 112.290401 25.58521484 112.29295349 24.81118774 C112.25466029 21.08311177 112.13374468 19.45186062 110.01078796 16.26742554 C107.95422983 15.81022994 107.95422983 15.81022994 105.53851318 15.87974548 C104.59771408 15.86984085 103.65691498 15.85993622 102.68760681 15.84973145 C101.65222778 15.85423309 100.61684875 15.85873474 99.5500946 15.8633728 C98.46222153 15.85650955 97.37434845 15.8496463 96.25350952 15.84257507 C92.6425232 15.82421149 89.0319674 15.82815832 85.42094421 15.83383179 C82.91992042 15.82927452 80.41889789 15.82397032 77.9178772 15.81794739 C72.66959179 15.80899744 67.42141899 15.81122841 62.17314148 15.82138062 C56.10408293 15.83286101 50.03546631 15.81879139 43.96646601 15.79198414 C38.13157638 15.76717455 32.29685909 15.76464586 26.46192741 15.771101 C23.97754112 15.77125478 21.49314655 15.76516393 19.00879097 15.75280952 C15.53914831 15.73798827 12.07048708 15.74851224 8.60087585 15.76571655 C7.56752106 15.75604858 6.53416626 15.74638062 5.46949768 15.73641968 C4.52587875 15.74625381 3.58225983 15.75608795 2.61004639 15.76622009 C1.78948289 15.76642938 0.96891939 15.76663866 0.12349033 15.76685429 C-2.14710797 16.1052256 -2.14710797 16.1052256 -3.75285625 18.08055019 Z " fill="#000000" transform="translate(83.98921203613281,279.7325744628906)"/>
<path d="M0 0 C0.96990875 -0.00852997 1.9398175 -0.01705994 2.93911743 -0.02584839 C3.99168732 -0.02494202 5.0442572 -0.02403564 6.12872314 -0.02310181 C7.80525467 -0.03317764 7.80525467 -0.03317764 9.51565552 -0.04345703 C13.21126755 -0.06245712 16.90669812 -0.06636247 20.60235596 -0.06851196 C23.17439855 -0.07493914 25.7464404 -0.08166744 28.31848145 -0.08868408 C33.7119548 -0.10066236 39.10535631 -0.10445011 44.49884033 -0.10317993 C50.7160784 -0.10197999 56.9329685 -0.12305535 63.15011859 -0.15466726 C69.14783622 -0.18406743 75.14536634 -0.19115338 81.14316559 -0.18996048 C83.68679473 -0.19231656 86.2304266 -0.2011404 88.7740097 -0.21662521 C92.33785085 -0.23628718 95.90080427 -0.23044498 99.46466064 -0.21841431 C100.50913361 -0.22965332 101.55360657 -0.24089233 102.62973022 -0.25247192 C110.15758511 -0.18811015 116.41310639 1.11094212 122.22134399 6.1443634 C126.75085564 12.90026859 126.90048851 19.01071255 126.78204346 26.99008179 C126.78353897 28.94016396 126.78353897 28.94016396 126.7850647 30.92964172 C126.78488635 33.66747183 126.76425818 36.40411062 126.72784424 39.14169312 C126.68242359 42.63083399 126.68139989 46.11824288 126.69487953 49.6075983 C126.70321096 52.96445284 126.6791885 56.32078655 126.65704346 59.67758179 C126.65886627 60.92048477 126.66068909 62.16338776 126.66256714 63.44395447 C126.5476928 70.50362861 125.88477837 75.27670247 122.05548096 81.26742554 C120.05548096 83.10726929 120.05548096 83.10726929 118.05548096 84.20492554 C117.39548096 84.58519897 116.73548096 84.96547241 116.05548096 85.35726929 C112.46470441 86.99135315 109.22602148 87.39374042 105.30041504 87.40786743 C103.87068863 87.41643265 103.87068863 87.41643265 102.41207886 87.4251709 C100.85352676 87.42684769 100.85352676 87.42684769 99.26348877 87.42855835 C98.16384796 87.43352325 97.06420715 87.43848816 95.9312439 87.44360352 C92.29035823 87.45821816 88.64951615 87.46502622 85.00860596 87.47055054 C82.47757974 87.47630281 79.94655354 87.48206054 77.41552734 87.48782349 C72.78459188 87.49698875 68.15366949 87.50328969 63.52272725 87.50632024 C56.72073886 87.51079677 49.91895184 87.52832873 43.11702466 87.55732083 C37.2138484 87.58160295 31.31072189 87.58926753 25.40749359 87.59099579 C22.90211644 87.59401956 20.39674008 87.60203874 17.89139557 87.61518097 C14.38245987 87.63227291 10.87401194 87.63035314 7.36505127 87.62387085 C5.81864456 87.63769302 5.81864456 87.63769302 4.24099731 87.65179443 C-2.6801854 87.6118277 -8.74361991 86.99066048 -14.22186279 82.32992554 C-14.76971436 81.64930054 -15.31756592 80.96867554 -15.88201904 80.26742554 C-16.44791748 79.58680054 -17.01381592 78.90617554 -17.59686279 78.20492554 C-20.02077848 74.72010763 -20.07815364 71.72743465 -20.10565186 67.60604858 C-20.1152594 66.44441696 -20.12486694 65.28278534 -20.13476562 64.08595276 C-20.1390155 62.82970596 -20.14326538 61.57345917 -20.14764404 60.27914429 C-20.15619415 58.34250664 -20.15619415 58.34250664 -20.16491699 56.366745 C-20.17541698 53.6322185 -20.18126594 50.8977213 -20.18475342 48.16317749 C-20.19023096 44.66951766 -20.2142468 41.17624898 -20.24272537 37.6827116 C-20.26590039 34.33986361 -20.26780475 30.99706842 -20.27264404 27.65414429 C-20.28499084 26.40397018 -20.29733765 25.15379608 -20.31005859 23.86573792 C-20.29228982 16.93201065 -20.13829789 11.80934141 -15.29608154 6.43930054 C-14.72631592 5.97008179 -14.15655029 5.50086304 -13.56951904 5.01742554 C-12.72260498 4.29812866 -12.72260498 4.29812866 -11.85858154 3.56430054 C-8.05873362 0.9897097 -4.55970449 0.01821266 0 0 Z M-3.94451904 17.26742554 C-3.99510049 24.63637369 -4.03020237 32.00527732 -4.05438232 39.37435913 C-4.06445915 41.88283969 -4.07812084 44.39130845 -4.09539795 46.89974976 C-4.11957241 50.49890041 -4.13098516 54.0978962 -4.13983154 57.69711304 C-4.15015411 58.82422699 -4.16047668 59.95134094 -4.17111206 61.11260986 C-4.17126312 62.1535379 -4.17141418 63.19446594 -4.17156982 64.26693726 C-4.17601105 65.18627045 -4.18045227 66.10560364 -4.18502808 67.05279541 C-4.15615497 69.47354329 -4.15615497 69.47354329 -1.94451904 71.26742554 C0.08906406 71.56790407 0.08906406 71.56790407 2.45855713 71.5146637 C3.84668106 71.52095543 3.84668106 71.52095543 5.2628479 71.52737427 C6.79022079 71.51894501 6.79022079 71.51894501 8.34844971 71.51034546 C9.41842194 71.5122438 10.48839417 71.51414215 11.59078979 71.51609802 C15.14159378 71.51981468 18.69219502 71.50908888 22.24298096 71.49789429 C24.70155819 71.49670288 27.16013587 71.49624924 29.61871338 71.49650574 C34.77702677 71.49493933 39.93527092 71.48663765 45.09356689 71.47323608 C51.71845873 71.45624605 58.34327436 71.45242166 64.96818542 71.45318127 C70.04665866 71.45290983 75.1251151 71.44743288 80.20358276 71.44017982 C82.6469205 71.43698894 85.09026015 71.43502477 87.53359985 71.43428612 C90.94327052 71.43212701 94.35285907 71.42339201 97.76251221 71.41268921 C98.7807608 71.4131424 99.7990094 71.41359558 100.84811401 71.4140625 C101.77352997 71.40979752 102.69894592 71.40553253 103.65240479 71.40113831 C104.45914139 71.39946246 105.26587799 71.39778662 106.09706116 71.39605999 C108.13478457 71.38928618 108.13478457 71.38928618 110.05548096 70.26742554 C111.00500122 67.41886473 111.18694421 65.63096725 111.20074463 62.6758728 C111.20712448 61.74803482 111.21350433 60.82019684 111.22007751 59.86424255 C111.22119034 58.864207 111.22230316 57.86417145 111.22344971 56.83383179 C111.22677811 55.80434921 111.23010651 54.77486664 111.23353577 53.71418762 C111.23859992 51.53621874 111.24094425 49.3582421 111.24078369 47.18026733 C111.24297005 43.84656002 111.26113096 40.51318365 111.28009033 37.17953491 C111.28302436 35.06430167 111.28500909 32.94906685 111.28594971 30.83383179 C111.29672798 29.3368148 111.29672798 29.3368148 111.307724 27.80955505 C111.30310905 26.41306984 111.30310905 26.41306984 111.29840088 24.9883728 C111.2998259 24.17135391 111.30125092 23.35433502 111.30271912 22.51255798 C111.02938163 20.03042147 110.214256 18.45619715 109.05548096 16.26742554 C94.61742358 16.24408563 80.17936912 16.22650741 65.74129677 16.21561337 C59.03775019 16.21045274 52.33421533 16.20341446 45.63067627 16.19198608 C39.16626231 16.18115261 32.70186054 16.17514772 26.2374382 16.17254829 C23.76618635 16.17069488 21.2949352 16.16707586 18.82368851 16.16169548 C15.37310575 16.15447897 11.9225739 16.15343486 8.47198486 16.15390015 C7.44124344 16.15030487 6.41050201 16.14670959 5.348526 16.14300537 C4.41180557 16.14438004 3.47508514 16.1457547 2.50997925 16.14717102 C1.28491637 16.14578833 1.28491637 16.14578833 0.03510475 16.14437771 C-2.02080478 16.14270832 -2.02080478 16.14270832 -3.94451904 17.26742554 Z " fill="#000000" transform="translate(328.94451904296875,376.7325744628906)"/>
<path d="M0 0 C2.05016632 1.61855236 3.37310586 3.0015033 5 5 C5.59683594 5.68191406 6.19367188 6.36382812 6.80859375 7.06640625 C15.17353573 16.96410563 23.63421853 29.02252874 23.3125 42.4140625 C22.43406577 49.68310579 18.45231608 56.1964721 13 61 C6.20486335 65.39214137 -1.11307812 67.25163384 -9.16796875 65.5390625 C-16.71974316 63.32942111 -22.72171686 59.56500078 -26.9375 52.8125 C-30.3939201 45.79385103 -30.97031639 38.99483718 -28.5 31.5625 C-24.15355987 21.13401053 -13.75007564 -2.24491031 0 0 Z M-4 21 C-5.4952292 23.1778995 -6.97066712 25.36558945 -8.4375 27.5625 C-8.85837891 28.17158203 -9.27925781 28.78066406 -9.71289062 29.40820312 C-12.46262616 33.56580326 -13.82754939 36.88807115 -14 42 C-12.38772538 45.16483536 -10.99397194 47.27108725 -8.125 49.375 C-5.14483554 50.25151896 -3.10161374 50.43422592 0 50 C2.92483867 48.17452064 5.43429205 46.13141589 7 43 C7.60076491 37.6633351 5.87897486 34.1996537 3.1875 29.75 C2.83107422 29.12609375 2.47464844 28.5021875 2.10742188 27.859375 C0.29407448 24.77169357 -0.97708859 23.01527428 -4 21 Z " fill="#000000" transform="translate(141,307)"/>
</svg>
